<svg width="105" height="24" viewBox="0 0 105 24" fill="none" xmlns="http://www.w3.org/2000/svg">
<path d="M94.0638 22.328C93.7972 22.328 93.6638 22.1947 93.6638 21.928V18.456C93.6638 18.3173 93.6692 18.2053 93.6798 18.12C93.7012 18.0347 93.7652 17.9653 93.8718 17.912L97.8238 15.992V13.768L93.9358 11.464C93.7545 11.3573 93.6638 11.1973 93.6638 10.984V4.696C93.6638 4.52533 93.6745 4.40267 93.6958 4.328C93.7172 4.24267 93.7972 4.152 93.9358 4.056L98.1438 1.208C98.2398 1.144 98.3358 1.096 98.4318 1.064C98.5278 1.02133 98.6452 1 98.7838 1H103.52C103.786 1 103.92 1.13333 103.92 1.4V4.744C103.92 4.97867 103.84 5.13867 103.68 5.224L99.4878 6.984V9.288L103.68 11.688C103.84 11.7627 103.92 11.9333 103.92 12.2V19.16C103.92 19.2453 103.904 19.336 103.872 19.432C103.85 19.528 103.797 19.5973 103.712 19.64L98.6878 22.136C98.6238 22.168 98.5438 22.2107 98.4478 22.264C98.3625 22.3067 98.2772 22.328 98.1918 22.328H94.0638Z" fill="#DEDBDB"/>
<path d="M77.9312 22.328C77.6646 22.328 77.5312 22.1947 77.5312 21.928V1.4C77.5312 1.13333 77.6646 1 77.9312 1H86.9392C87.2059 1 87.4192 1.06933 87.5792 1.208L91.2592 4.856C91.3766 4.96267 91.4512 5.05333 91.4832 5.128C91.5152 5.20267 91.5312 5.32533 91.5312 5.496V9.88C91.5312 10.0187 91.4619 10.152 91.3232 10.28L89.4352 12.152L88.2992 13.128L89.8192 15.208L91.6912 19.064C91.7339 19.16 91.7659 19.256 91.7872 19.352C91.8086 19.4373 91.8192 19.544 91.8192 19.672V21.928C91.8192 22.1947 91.6859 22.328 91.4193 22.328H86.9392C86.7046 22.328 86.5446 22.2213 86.4593 22.008L84.0112 15.096H83.0993V21.928C83.0993 22.1947 82.9659 22.328 82.6992 22.328H77.9312ZM84.5232 10.312C85.2699 10.312 85.7979 10.1467 86.1072 9.816C86.4166 9.47467 86.5713 8.888 86.5713 8.056C86.5713 7.21333 86.4166 6.62667 86.1072 6.296C85.7979 5.95467 85.2699 5.784 84.5232 5.784C83.7872 5.784 83.2646 5.95467 82.9552 6.296C82.6459 6.62667 82.4912 7.21333 82.4912 8.056C82.4912 8.888 82.6459 9.47467 82.9552 9.816C83.2646 10.1467 83.7872 10.312 84.5232 10.312Z" fill="#DEDBDB"/>
<path d="M62.931 22.328C62.6643 22.328 62.531 22.1947 62.531 21.928V1.4C62.531 1.13333 62.6643 1 62.931 1H74.067C74.3337 1 74.467 1.13333 74.467 1.4V5.528C74.467 5.79467 74.3337 5.928 74.067 5.928H68.275V9.464H73.699C73.9657 9.464 74.099 9.59733 74.099 9.864V13.464C74.099 13.7307 73.9657 13.864 73.699 13.864H68.275V17.4H74.067C74.3337 17.4 74.467 17.5333 74.467 17.8V21.928C74.467 22.1947 74.3337 22.328 74.067 22.328H62.931Z" fill="#DEDBDB"/>
<path d="M50.3015 22.328C50.0349 22.328 49.9015 22.1947 49.9015 21.928V15.592L45.7415 11.464C45.6669 11.3787 45.6189 11.304 45.5975 11.24C45.5869 11.1653 45.5815 11.08 45.5815 10.984V1.4C45.5815 1.13333 45.7149 1 45.9815 1H50.9415C51.2082 1 51.3415 1.13333 51.3415 1.4V10.504H54.2215V1.4C54.2215 1.13333 54.3549 1 54.6215 1H59.5655C59.8322 1 59.9655 1.13333 59.9655 1.4V10.984C59.9655 11.08 59.9602 11.1653 59.9495 11.24C59.9389 11.304 59.8909 11.3787 59.8055 11.464L55.6775 15.592V21.928C55.6775 22.1947 55.5442 22.328 55.2775 22.328H50.3015Z" fill="#DEDBDB"/>
<path d="M29.1324 22.328C28.8658 22.328 28.7324 22.1947 28.7324 21.928V7.096C28.7324 6.94667 28.7858 6.78667 28.8924 6.616L32.6844 1.24C32.8018 1.08 32.9724 1 33.1964 1H38.6204C38.8551 1 39.0258 1.08 39.1324 1.24L42.9404 6.616C43.0471 6.76533 43.1004 6.92533 43.1004 7.096V21.928C43.1004 22.1947 42.9671 22.328 42.7004 22.328H37.7564C37.4898 22.328 37.3564 22.1947 37.3564 21.928V15.384H34.4764V21.928C34.4764 22.1947 34.3431 22.328 34.0764 22.328H29.1324ZM35.9164 11.288C36.7378 11.288 37.3084 11.096 37.6284 10.712C37.9591 10.3173 38.1244 9.62933 38.1244 8.648C38.1244 7.66667 37.9591 6.984 37.6284 6.6C37.3084 6.216 36.7378 6.024 35.9164 6.024C35.1058 6.024 34.5351 6.216 34.2044 6.6C33.8738 6.984 33.7084 7.66667 33.7084 8.648C33.7084 9.62933 33.8738 10.3173 34.2044 10.712C34.5351 11.096 35.1058 11.288 35.9164 11.288Z" fill="#DEDBDB"/>
<path d="M17.2748 22.328C17.0081 22.328 16.8748 22.1947 16.8748 21.928V1.4C16.8748 1.13333 17.0081 1 17.2748 1H22.2188C22.4854 1 22.6188 1.13333 22.6188 1.4V17.4H26.2348C26.5014 17.4 26.6348 17.5333 26.6348 17.8V21.928C26.6348 22.1947 26.5014 22.328 26.2348 22.328H17.2748Z" fill="#DEDBDB"/>
<path d="M1.39976 22.328C1.13309 22.328 0.999756 22.1947 0.999756 21.928V1.4C0.999756 1.13333 1.13309 1 1.39976 1H10.5678C10.8238 1 11.0371 1.08533 11.2078 1.256L14.4078 4.456C14.5891 4.63733 14.6798 4.85067 14.6798 5.096V11.336C14.6798 11.592 14.5891 11.8053 14.4078 11.976L11.2078 15.176C11.0371 15.3573 10.8238 15.448 10.5678 15.448H6.74376V21.928C6.74376 22.1947 6.61042 22.328 6.34376 22.328H1.39976ZM7.68776 10.408C8.43442 10.408 8.96242 10.248 9.27176 9.928C9.58109 9.59733 9.73576 9.02667 9.73576 8.216C9.73576 7.40533 9.58109 6.83467 9.27176 6.504C8.96242 6.17333 8.43442 6.008 7.68776 6.008C6.95176 6.008 6.42909 6.17333 6.11976 6.504C5.81042 6.83467 5.65576 7.40533 5.65576 8.216C5.65576 9.02667 5.81042 9.59733 6.11976 9.928C6.42909 10.248 6.95176 10.408 7.68776 10.408Z" fill="#DEDBDB"/>
<path d="M103.92 19.1602V12.2002C103.92 11.9335 103.84 11.7631 103.68 11.6885L99.4883 9.28809V6.98438L103.68 5.22461C103.82 5.15001 103.898 5.01784 103.916 4.8291L103.92 4.74414V1.40039C103.92 1.13372 103.786 1 103.52 1V0C103.807 0 104.207 0.0722613 104.527 0.392578C104.848 0.712924 104.92 1.11291 104.92 1.40039V4.74414C104.92 5.22122 104.735 5.79479 104.15 6.10645L104.109 6.12793L104.067 6.14648L100.488 7.64844V8.70801L104.177 10.8203H104.176C104.79 11.1493 104.92 11.7847 104.92 12.2002V19.1602C104.92 19.3707 104.88 19.5686 104.82 19.748C104.718 20.0842 104.491 20.3682 104.159 20.5342L104.157 20.5361L99.1328 23.0312C99.0868 23.0543 99.0215 23.0898 98.9336 23.1387L98.9141 23.1484L98.8955 23.1582C98.6879 23.262 98.4495 23.3281 98.1914 23.3281H94.0635C93.7761 23.3281 93.3768 23.2557 93.0566 22.9355C92.7363 22.6152 92.6641 22.2152 92.6641 21.9277V18.4561C92.6641 18.2977 92.6696 18.1396 92.6875 17.9961L92.6953 17.9365L92.71 17.8779C92.8249 17.4182 93.1549 17.1525 93.4248 17.0176L93.4346 17.0127L96.8242 15.3652V14.3369L93.4258 12.3242V12.3232C92.936 12.0336 92.6641 11.5445 92.6641 10.9844V4.69629C92.6641 4.52522 92.672 4.29645 92.7266 4.08594H92.7256C92.727 4.08045 92.729 4.07477 92.7305 4.06934C92.7319 4.06415 92.7329 4.05887 92.7344 4.05371H92.7354C92.8575 3.61576 93.1914 3.35545 93.3662 3.23438L93.375 3.22754L97.583 0.379883L97.5889 0.375977C97.7486 0.269488 97.9242 0.178945 98.1152 0.115234V0.116211C98.3445 0.0302449 98.5752 0 98.7842 0V1L98.6836 1.00391C98.5877 1.01192 98.5036 1.03248 98.4316 1.06445C98.3357 1.09645 98.2395 1.14407 98.1436 1.20801L93.9355 4.05566C93.7969 4.15163 93.7177 4.24282 93.6963 4.32812C93.675 4.40279 93.6641 4.52562 93.6641 4.69629V10.9844C93.6641 11.1974 93.7545 11.3572 93.9355 11.4639L97.8242 13.7686V15.9922L93.8721 17.9121L93.7998 17.9551C93.7358 18.0011 93.6957 18.0561 93.6797 18.1201C93.669 18.2054 93.6641 18.3174 93.6641 18.4561V21.9277C93.6641 22.1943 93.7971 22.328 94.0635 22.3281H98.1914C98.2342 22.3281 98.2775 22.3232 98.3203 22.3125L98.4482 22.2637C98.544 22.2105 98.6236 22.1677 98.6875 22.1357L103.712 19.6396C103.797 19.597 103.851 19.5276 103.872 19.4316C103.888 19.3837 103.9 19.3372 103.908 19.292L103.92 19.1602ZM103.52 0V1H98.7842V0H103.52Z" fill="black"/>
<path d="M77.5371 22.0215C77.5661 22.2258 77.6975 22.328 77.9307 22.3281H82.6992L82.793 22.3223C82.9971 22.2931 83.0986 22.1611 83.0986 21.9277V15.0957H84.0107L86.459 22.0078C86.5336 22.1944 86.6656 22.2999 86.8545 22.3232L86.9395 22.3281H91.4189C91.6524 22.3281 91.7834 22.2259 91.8125 22.0215L91.8193 21.9277V19.6719C91.8193 19.5442 91.8084 19.4378 91.7871 19.3525C91.7764 19.3045 91.7631 19.256 91.7471 19.208L91.6914 19.0645L89.8193 15.208L88.2988 13.1279L89.4355 12.1523L91.3232 10.2803C91.4272 10.1843 91.4925 10.0853 91.5186 9.9834L91.5312 9.87988V5.49609C91.5312 5.32544 91.5154 5.20259 91.4834 5.12793C91.4514 5.05328 91.3761 4.96308 91.2588 4.85645L87.5791 1.20801C87.4591 1.10399 87.309 1.03866 87.1289 1.0127L86.9395 1V0C87.3268 5.23661e-05 87.7326 0.0907351 88.0859 0.336914L88.2344 0.452148L88.2598 0.474609L88.2832 0.498047L91.9629 4.14551H91.9619C92.0827 4.25809 92.2411 4.42183 92.3535 4.63281L92.4023 4.73438L92.4414 4.83789C92.5222 5.08109 92.5312 5.33018 92.5312 5.49609V9.87988C92.5312 10.3709 92.284 10.7425 92.0264 10.9893L90.1396 12.8623L90.1143 12.8877L90.0869 12.9102L89.6514 13.2842L90.627 14.6182L90.6797 14.6904L90.7188 14.7715L92.5908 18.627L92.6045 18.6582C92.6723 18.8108 92.727 18.9697 92.7637 19.1348H92.7617C92.8048 19.3183 92.8193 19.5033 92.8193 19.6719V21.9277C92.8193 22.2152 92.7461 22.6152 92.4258 22.9355C92.1055 23.2556 91.7063 23.3281 91.4189 23.3281H86.9395C86.6687 23.3281 86.3661 23.2648 86.0889 23.0801C85.81 22.8942 85.6332 22.637 85.5303 22.3799L85.5234 22.3613L85.5166 22.3418L84.0986 18.3379V21.9277C84.0986 22.2152 84.0264 22.6152 83.7061 22.9355C83.3858 23.2556 82.9866 23.3281 82.6992 23.3281H77.9307C77.6432 23.328 77.244 23.2557 76.9238 22.9355C76.6035 22.6152 76.5312 22.2152 76.5312 21.9277V1.40039C76.5312 1.11291 76.6035 0.712924 76.9238 0.392578C77.244 0.0725088 77.6433 7.62277e-05 77.9307 0V1C77.6643 1.00015 77.5312 1.13388 77.5312 1.40039V21.9277L77.5371 22.0215ZM85.5713 8.05566C85.5712 7.27361 85.415 7.02042 85.377 6.97949L85.3711 6.97363L85.3662 6.96777C85.3367 6.93516 85.1579 6.78423 84.5234 6.78418C83.9049 6.78418 83.7281 6.93266 83.6963 6.96777L83.6904 6.97363L83.6855 6.97949C83.6477 7.02 83.4913 7.27277 83.4912 8.05566C83.4912 8.7944 83.6349 9.06854 83.6914 9.1377C83.7346 9.17836 83.9269 9.3125 84.5234 9.3125V10.3125L84.2568 10.3047C83.745 10.2737 83.353 10.1495 83.0811 9.93262L82.9551 9.81641C82.6844 9.51771 82.5319 9.03088 82.498 8.35645L82.4912 8.05566C82.4913 7.21324 82.6458 6.6265 82.9551 6.2959C83.2644 5.95464 83.7875 5.78418 84.5234 5.78418L84.793 5.79199C85.3984 5.82934 85.8368 5.99725 86.1074 6.2959C86.4167 6.62651 86.5712 7.21327 86.5713 8.05566L86.5635 8.35645C86.5297 9.03086 86.3781 9.51772 86.1074 9.81641L85.9805 9.93262C85.662 10.1856 85.1764 10.3125 84.5234 10.3125V9.3125C85.1315 9.31245 85.3271 9.17737 85.3701 9.1377C85.4264 9.06912 85.5713 8.79566 85.5713 8.05566ZM86.9395 0V1H77.9307V0H86.9395Z" fill="black"/>
<path d="M62.5371 22.0215C62.5661 22.2258 62.6975 22.328 62.9307 22.3281H74.0674L74.1611 22.3223C74.3652 22.293 74.4668 22.161 74.4668 21.9277V17.7998C74.4667 17.5668 74.365 17.4355 74.1611 17.4062L74.0674 17.4004V16.4004C74.3548 16.4004 74.754 16.4727 75.0742 16.793C75.3944 17.1132 75.4667 17.5124 75.4668 17.7998V21.9277C75.4668 22.2152 75.3946 22.6152 75.0742 22.9355C74.754 23.2557 74.3548 23.3281 74.0674 23.3281H62.9307C62.6432 23.328 62.244 23.2557 61.9238 22.9355C61.6035 22.6152 61.5312 22.2152 61.5312 21.9277V1.40039C61.5312 1.11291 61.6035 0.712924 61.9238 0.392578C62.244 0.0725088 62.6433 7.62277e-05 62.9307 0V1C62.6643 1.00015 62.5312 1.13388 62.5312 1.40039V21.9277L62.5371 22.0215ZM74.0986 13.4639V9.86426C74.0986 9.63098 73.997 9.49991 73.793 9.4707L73.6992 9.46387V8.46387C73.9867 8.46388 74.3857 8.53711 74.7061 8.85742C75.0263 9.17775 75.0986 9.57681 75.0986 9.86426V13.4639C75.0986 13.7513 75.0264 14.1513 74.7061 14.4717C74.3858 14.7917 73.9866 14.8642 73.6992 14.8643H69.2754V16.4004H74.0674V17.4004H68.2754V13.8643H73.6992L73.793 13.8574C73.997 13.8282 74.0986 13.6971 74.0986 13.4639ZM74.4668 5.52832V1.40039C74.4668 1.16718 74.3651 1.0361 74.1611 1.00684L74.0674 1V0C74.3548 4.45871e-05 74.754 0.0725189 75.0742 0.392578C75.3946 0.712924 75.4668 1.11291 75.4668 1.40039V5.52832C75.4668 5.81577 75.3945 6.21489 75.0742 6.53516C74.754 6.8554 74.3548 6.92769 74.0674 6.92773H69.2754V8.46387H73.6992V9.46387H68.2754V5.92773H74.0674L74.1611 5.92188C74.3359 5.89682 74.4359 5.79687 74.4609 5.62207L74.4668 5.52832ZM74.0674 0V1H62.9307V0H74.0674Z" fill="black"/>
<path d="M49.9014 21.9277C49.9014 22.1611 50.0037 22.2932 50.208 22.3223L50.3018 22.3281H55.2773C55.5108 22.3281 55.6418 22.2259 55.6709 22.0215L55.6777 21.9277V15.5918L59.8057 11.4639C59.8696 11.3999 59.9126 11.342 59.9346 11.29L59.9492 11.2402C59.9546 11.2029 59.9592 11.1628 59.9619 11.1201L59.9658 10.9844V1.40039C59.9658 1.13372 59.8321 1 59.5654 1V0C59.8528 0 60.252 0.0726127 60.5723 0.392578C60.8926 0.712924 60.9658 1.11291 60.9658 1.40039V10.9844C60.9658 11.1155 60.9583 11.2498 60.9395 11.3818L60.9375 11.3926L60.9355 11.4043C60.8719 11.7863 60.6362 12.0473 60.5127 12.1709L56.6777 16.0059V21.9277C56.6777 22.2152 56.6055 22.6152 56.2852 22.9355C55.9648 23.2559 55.5648 23.3281 55.2773 23.3281H50.3018C50.0144 23.3281 49.6152 23.2556 49.2949 22.9355C48.9746 22.6152 48.9014 22.2152 48.9014 21.9277V16.0078L45.0371 12.1738L45.0127 12.1494L44.9893 12.123C44.8787 11.9967 44.7319 11.8039 44.6494 11.5566L44.6201 11.4707L44.6074 11.3818C44.5886 11.2498 44.582 11.1155 44.582 10.9844V1.40039C44.582 1.11291 44.6543 0.712924 44.9746 0.392578C45.2948 0.0725238 45.6941 2.89087e-05 45.9814 0V1C45.7149 1.00006 45.582 1.13378 45.582 1.40039V10.9844L45.5859 11.1201C45.5886 11.1628 45.5923 11.2029 45.5977 11.2402C45.619 11.3041 45.6668 11.3787 45.7412 11.4639L49.9014 15.5918V21.9277ZM51.3418 1.40039C51.3418 1.13372 51.2081 1 50.9414 1V0C51.2287 0 51.628 0.0726226 51.9482 0.392578C52.2686 0.712924 52.3418 1.11291 52.3418 1.40039V9.50391H53.2217V1.40039C53.2217 1.11291 53.2939 0.712924 53.6143 0.392578C53.9346 0.0723107 54.3346 0 54.6221 0V1L54.5283 1.00684C54.3239 1.03589 54.2217 1.16691 54.2217 1.40039V10.5039H51.3418V1.40039ZM59.5654 0V1H54.6221V0H59.5654ZM50.9414 0V1H45.9814V0H50.9414Z" fill="black"/>
<path d="M37.3623 22.0215C37.3872 22.1969 37.4876 22.2974 37.6631 22.3223L37.7568 22.3281H42.7002C42.9337 22.3281 43.0647 22.2259 43.0938 22.0215L43.1006 21.9277V7.0957C43.1005 6.92523 43.047 6.7654 42.9404 6.61621L39.1328 1.24023C39.0261 1.08023 38.8548 1 38.6201 1V0C39.0973 0 39.6132 0.178218 39.9482 0.662109L43.7568 6.03809H43.7559C43.9727 6.3428 44.1005 6.70207 44.1006 7.0957V21.9277C44.1006 22.2152 44.0274 22.6152 43.707 22.9355C43.3867 23.2556 42.9876 23.3281 42.7002 23.3281H37.7568C37.4694 23.3281 37.0694 23.2559 36.749 22.9355C36.4287 22.6152 36.3564 22.2152 36.3564 21.9277V16.3838H35.4766V21.9277C35.4766 22.2152 35.4034 22.6152 35.083 22.9355C34.7627 23.2556 34.3635 23.3281 34.0762 23.3281H29.1328C28.8453 23.3281 28.4453 23.2559 28.125 22.9355C27.8047 22.6152 27.7324 22.2152 27.7324 21.9277V7.0957C27.7325 6.70464 27.8715 6.36181 28.0439 6.08594L28.0596 6.0625L28.0752 6.04004L31.8672 0.664062L31.8721 0.65625L31.8779 0.648438C32.2099 0.19586 32.7011 2.06148e-05 33.1963 0V1C32.9723 1.00002 32.8019 1.08027 32.6846 1.24023L28.8926 6.61621L28.8223 6.74219C28.7624 6.866 28.7325 6.98386 28.7324 7.0957V21.9277C28.7324 22.1613 28.8346 22.2932 29.0391 22.3223L29.1328 22.3281H34.0762C34.3096 22.3281 34.4407 22.2259 34.4697 22.0215L34.4766 21.9277V15.3838H37.3564V21.9277L37.3623 22.0215ZM37.124 8.64844C37.124 7.71282 36.9527 7.34887 36.8701 7.25293L36.8652 7.24609L36.8604 7.24023C36.8241 7.19677 36.6275 7.02441 35.916 7.02441C35.2247 7.02447 35.0135 7.19303 34.9619 7.25293C34.8792 7.34929 34.708 7.7137 34.708 8.64844C34.708 9.55806 34.8705 9.94076 34.9648 10.0615C35.02 10.1234 35.2338 10.288 35.916 10.2881V11.2881C35.1055 11.288 34.5347 11.0959 34.2041 10.7119C33.9148 10.3665 33.7519 9.79648 33.7158 9.00195L33.708 8.64844C33.708 7.78968 33.8347 7.15914 34.0879 6.75781L34.2041 6.60059C34.5347 6.21664 35.1055 6.02447 35.916 6.02441L36.2129 6.0332C36.8766 6.07524 37.348 6.26463 37.6279 6.60059C37.9586 6.9846 38.124 7.66715 38.124 8.64844L38.1162 9.00195C38.0801 9.79666 37.9173 10.3665 37.6279 10.7119C37.3079 11.0959 36.7373 11.2881 35.916 11.2881V10.2881C36.627 10.2881 36.8239 10.1159 36.8604 10.0723L36.8623 10.0703C36.9555 9.95911 37.124 9.57929 37.124 8.64844ZM38.6201 0V1H33.1963V0H38.6201Z" fill="black"/>
<path d="M16.8809 22.0215C16.9099 22.2258 17.0412 22.328 17.2744 22.3281H26.2354L26.3291 22.3223C26.533 22.293 26.6348 22.1609 26.6348 21.9277V17.7998C26.6347 17.5668 26.5329 17.4355 26.3291 17.4062L26.2354 17.4004V16.4004C26.5228 16.4005 26.922 16.4728 27.2422 16.793C27.5623 17.1132 27.6347 17.5124 27.6348 17.7998V21.9277C27.6348 22.2152 27.5625 22.6152 27.2422 22.9355C26.922 23.2557 26.5228 23.328 26.2354 23.3281H17.2744C16.987 23.328 16.5877 23.2557 16.2676 22.9355C15.9472 22.6152 15.875 22.2152 15.875 21.9277V1.40039C15.875 1.11291 15.9472 0.712924 16.2676 0.392578C16.5877 0.0725088 16.987 7.62277e-05 17.2744 0V1C17.008 1.00015 16.875 1.13388 16.875 1.40039V21.9277L16.8809 22.0215ZM22.6191 1.40039C22.6191 1.13372 22.4854 1 22.2188 1V0C22.5061 0 22.9053 0.0725827 23.2256 0.392578C23.5459 0.712924 23.6191 1.11291 23.6191 1.40039V16.4004H26.2354V17.4004H22.6191V1.40039ZM22.2188 0V1H17.2744V0H22.2188Z" fill="black"/>
<path d="M1.00586 22.0215C1.03489 22.2258 1.1662 22.328 1.39941 22.3281H6.34375C6.57721 22.3281 6.70823 22.2259 6.7373 22.0215L6.74414 21.9277V15.4482H10.5674L10.6621 15.4443C10.8767 15.4245 11.0587 15.3344 11.208 15.1758L14.4082 11.9766C14.5895 11.8059 14.6797 11.5919 14.6797 11.3359V5.0957C14.6796 4.88116 14.6105 4.69097 14.4717 4.52539L14.4082 4.45605L11.208 1.25586C11.0374 1.08523 10.8234 1 10.5674 1V0C11.0078 0 11.4258 0.136608 11.7715 0.418945L11.915 0.548828L15.1152 3.74902C15.4745 4.10832 15.6796 4.5723 15.6797 5.0957V11.3359C15.6797 11.849 15.4873 12.3188 15.1133 12.6816L15.1152 12.6836L11.915 15.8828L11.9141 15.8818C11.5512 16.256 11.0806 16.4482 10.5674 16.4482H7.74414V21.9277C7.74414 22.2152 7.67093 22.6152 7.35059 22.9355C7.0303 23.2556 6.63112 23.3281 6.34375 23.3281H1.39941C1.11199 23.328 0.712745 23.2557 0.392578 22.9355C0.0722317 22.6152 0 22.2152 0 21.9277V1.40039C0 1.11291 0.0722314 0.712924 0.392578 0.392578C0.712735 0.0725088 1.11201 7.62277e-05 1.39941 0V1C1.13305 1.00015 1 1.13388 1 1.40039V21.9277L1.00586 22.0215ZM8.73633 8.21582C8.73629 7.47895 8.58494 7.23378 8.54199 7.1875C8.51388 7.15745 8.32978 7.00781 7.6875 7.00781C7.06209 7.00787 6.88117 7.15491 6.85059 7.1875C6.80804 7.23298 6.65629 7.47727 6.65625 8.21582C6.65625 8.92677 6.7972 9.17967 6.8457 9.23828C6.89022 9.27787 7.08839 9.40815 7.6875 9.4082V10.4082L7.42188 10.4004C6.82454 10.3654 6.39078 10.2077 6.12012 9.92773C5.84949 9.63838 5.69691 9.1656 5.66309 8.50879L5.65625 8.21582C5.65628 7.50689 5.77411 6.98144 6.01074 6.63965L6.12012 6.50391C6.42943 6.17345 6.95187 6.00787 7.6875 6.00781C8.43394 6.00781 8.96211 6.17344 9.27148 6.50391C9.58078 6.83453 9.73629 7.40531 9.73633 8.21582L9.72852 8.50879C9.69469 9.16565 9.54215 9.63839 9.27148 9.92773C8.96215 10.2477 8.43417 10.4082 7.6875 10.4082V9.4082C8.30216 9.4082 8.50306 9.27517 8.5459 9.2373C8.5948 9.17772 8.73633 8.92469 8.73633 8.21582ZM10.5674 0V1H1.39941V0H10.5674Z" fill="black"/>
</svg>
