<svg width="151" height="46" viewBox="0 0 151 46" fill="none" xmlns="http://www.w3.org/2000/svg">
<path d="M24.6404 41.584C24.0644 41.584 23.6004 41.584 23.2484 41.584C22.9284 41.552 22.5284 41.344 22.0484 40.96L5.00837 27.088C4.52837 26.704 4.24037 26.416 4.14437 26.224C4.04837 26.032 4.00037 25.68 4.00037 25.168V20.368C4.00037 19.856 4.04837 19.52 4.14437 19.36C4.24037 19.168 4.52837 18.864 5.00837 18.448L22.0484 4.624C22.5284 4.208 22.9284 4 23.2484 4C23.6004 4 24.0644 4 24.6404 4H28.3844C29.5044 4 30.0644 4.4 30.0644 5.2V17.728C30.0644 18.016 30.0324 18.304 29.9684 18.592C29.9044 18.848 29.6644 19.072 29.2484 19.264L23.9684 21.904V23.68L29.2484 26.32C29.6644 26.512 29.9044 26.752 29.9684 27.04C30.0324 27.296 30.0644 27.552 30.0644 27.808V40.384C30.0644 41.184 29.5044 41.584 28.3844 41.584H24.6404Z" fill="#DEDBDB"/>
<path d="M0 25.168V20.3682C4.41548e-07 20.0077 0.0156171 19.5899 0.0761719 19.166C0.118419 18.8704 0.22407 18.2444 0.566406 17.5713C0.887032 16.93 1.31919 16.4581 1.52832 16.2373C1.79575 15.955 2.09459 15.6807 2.38867 15.4258L2.4375 15.3828L2.48828 15.3418L19.5283 1.51758C20.1674 0.976611 21.4815 0.000121096 23.248 0V4C22.9282 4.00014 22.5285 4.20836 22.0488 4.62402L5.00879 18.4482L4.68457 18.7393C4.39653 19.0093 4.21654 19.2163 4.14453 19.3604C4.04856 19.5204 4 19.8562 4 20.3682V25.168C4 25.68 4.04853 26.0326 4.14453 26.2246C4.24073 26.4166 4.52913 26.7042 5.00879 27.0879L22.0488 40.96C22.5286 41.3437 22.9281 41.5519 23.248 41.584H28.3848L28.5879 41.5791C29.5067 41.5353 29.9964 41.1856 30.0576 40.5293L30.0645 40.3838V27.8086C30.0645 27.5526 30.0328 27.296 29.9688 27.04C29.9128 26.7881 29.7218 26.573 29.3965 26.3945L23.9688 23.6807V21.9043L29.3965 19.1904C29.6754 19.0404 29.8556 18.8725 29.9365 18.6865L29.9688 18.5918C30.0167 18.376 30.0466 18.1601 30.0586 17.9443L30.0645 17.7285V5.2002C30.0645 4.45021 29.5722 4.05178 28.5879 4.00488L28.3848 4V0C29.3002 4.02597e-05 30.7052 0.141692 31.9697 1.04492C33.4823 2.12541 34.0645 3.74888 34.0645 5.2002V17.7285C34.0644 18.3153 33.9988 18.8941 33.873 19.46L33.8613 19.5117L33.8486 19.5625C33.3763 21.4513 31.9393 22.386 31.1328 22.793C32.0589 23.2641 33.4488 24.2639 33.873 26.1729H33.8711C33.9959 26.7044 34.0645 27.2514 34.0645 27.8086V40.3838C34.0645 41.8351 33.4822 43.4586 31.9697 44.5391C30.7052 45.4423 29.3002 45.5839 28.3848 45.584H23.0488L22.8506 45.5645C21.3321 45.4126 20.1699 44.58 19.5498 44.084L19.5361 44.0732L19.5234 44.0625L2.4834 30.1904V30.1895C2.18807 29.9522 1.88159 29.6912 1.60352 29.4131C1.37697 29.1865 0.909197 28.6983 0.566406 28.0127C0.00534785 26.8903 0 25.6665 0 25.168ZM24.6406 0V4H23.248V0H24.6406ZM28.3848 0V4H24.6406V0H28.3848Z" fill="black"/>
<path d="M130.981 35.7845C130.689 35.7845 130.543 35.6387 130.543 35.347V12.8945C130.543 12.6029 130.689 12.457 130.981 12.457H140.903C141.183 12.457 141.416 12.5329 141.603 12.6845L145.628 16.6745C145.756 16.7912 145.832 16.8904 145.856 16.972C145.891 17.0537 145.908 17.1879 145.908 17.3745V22.1695C145.908 22.3212 145.838 22.4729 145.698 22.6245L143.581 24.6895L142.408 25.7045L144.036 27.927L146.083 32.1445C146.13 32.2495 146.165 32.3545 146.188 32.4595C146.223 32.5529 146.241 32.6695 146.241 32.8095V35.347C146.241 35.6387 146.095 35.7845 145.803 35.7845H140.851C140.594 35.7845 140.419 35.6679 140.326 35.4345L137.666 27.9795H136.721V35.347C136.721 35.6387 136.575 35.7845 136.283 35.7845H130.981ZM138.226 22.5895C139.019 22.5895 139.579 22.4087 139.906 22.047C140.244 21.6854 140.413 21.0612 140.413 20.1745C140.413 19.2995 140.244 18.6812 139.906 18.3195C139.579 17.9462 139.019 17.7595 138.226 17.7595C137.444 17.7595 136.884 17.9462 136.546 18.3195C136.207 18.6812 136.038 19.2995 136.038 20.1745C136.038 21.0612 136.207 21.6854 136.546 22.047C136.884 22.4087 137.444 22.5895 138.226 22.5895Z" fill="#DEDBDB"/>
<path d="M112.094 35.7845C111.803 35.7845 111.657 35.6387 111.657 35.347V19.1245C111.657 18.9612 111.715 18.7862 111.832 18.5995L115.979 12.7195C116.108 12.5445 116.294 12.457 116.539 12.457H122.507C122.763 12.457 122.95 12.5445 123.067 12.7195L127.232 18.5995C127.348 18.7629 127.407 18.9379 127.407 19.1245V35.347C127.407 35.6387 127.261 35.7845 126.969 35.7845H121.492C121.2 35.7845 121.054 35.6387 121.054 35.347V28.2245H118.027V35.347C118.027 35.6387 117.881 35.7845 117.589 35.7845H112.094ZM119.532 23.622C120.395 23.622 121.002 23.4179 121.352 23.0095C121.713 22.5895 121.894 21.8662 121.894 20.8395C121.894 19.8129 121.713 19.0954 121.352 18.687C121.002 18.267 120.395 18.057 119.532 18.057C118.668 18.057 118.056 18.267 117.694 18.687C117.344 19.0954 117.169 19.8129 117.169 20.8395C117.169 21.8662 117.344 22.5895 117.694 23.0095C118.056 23.4179 118.668 23.622 119.532 23.622Z" fill="#DEDBDB"/>
<path d="M99.4716 35.7845C99.1799 35.7845 99.0341 35.6387 99.0341 35.347V17.9695H96.3566C96.0649 17.9695 95.9191 17.8237 95.9191 17.532V12.8945C95.9191 12.6029 96.0649 12.457 96.3566 12.457H108.099C108.391 12.457 108.537 12.6029 108.537 12.8945V17.532C108.537 17.8237 108.391 17.9695 108.099 17.9695H105.404V35.347C105.404 35.6387 105.258 35.7845 104.967 35.7845H99.4716Z" fill="#DEDBDB"/>
<path d="M83.3683 35.7845C83.0766 35.7845 82.9308 35.6387 82.9308 35.347V12.8945C82.9308 12.6029 83.0766 12.457 83.3683 12.457H88.8458C89.1375 12.457 89.2833 12.6029 89.2833 12.8945V30.272H93.1683C93.46 30.272 93.6058 30.4179 93.6058 30.7095V35.347C93.6058 35.6387 93.46 35.7845 93.1683 35.7845H83.3683Z" fill="#DEDBDB"/>
<path d="M68.236 35.7845C67.9676 35.7845 67.7343 35.6854 67.536 35.487L64.036 31.987C63.8493 31.8004 63.756 31.567 63.756 31.287V16.937C63.756 16.6687 63.8493 16.4354 64.036 16.237L67.536 12.737C67.7343 12.5504 67.9676 12.457 68.236 12.457H75.236C75.516 12.457 75.7493 12.5504 75.936 12.737L79.436 16.237C79.6343 16.4354 79.7335 16.6687 79.7335 16.937V31.287C79.7335 31.567 79.6343 31.8004 79.436 31.987L75.936 35.487C75.7493 35.6854 75.516 35.7845 75.236 35.7845H68.236ZM70.8435 30.272H72.6285C73.1185 30.272 73.3635 29.9395 73.3635 29.2745V18.9495C73.3635 18.2962 73.1185 17.9695 72.6285 17.9695H70.8435C70.3535 17.9695 70.1085 18.2962 70.1085 18.9495V29.2745C70.1085 29.9395 70.3535 30.272 70.8435 30.272Z" fill="#DEDBDB"/>
<path d="M49.3004 35.7845C49.0321 35.7845 48.7988 35.6854 48.6004 35.487L45.1004 31.987C44.9138 31.8004 44.8204 31.567 44.8204 31.287V12.8945C44.8204 12.6029 44.9663 12.457 45.2579 12.457H50.7354C51.0271 12.457 51.1729 12.6029 51.1729 12.8945V29.7295H54.2004V12.8945C54.2004 12.6029 54.3463 12.457 54.6379 12.457H60.1154C60.4071 12.457 60.5529 12.6029 60.5529 12.8945V31.287C60.5529 31.567 60.4596 31.8004 60.2729 31.987L56.7729 35.487C56.5746 35.6854 56.3413 35.7845 56.0729 35.7845H49.3004Z" fill="#DEDBDB"/>
<path d="M137.666 27.9795L140.325 35.4346C140.419 35.6678 140.594 35.7842 140.851 35.7842H145.803C146.058 35.7842 146.201 35.6725 146.233 35.4492L146.24 35.3467V32.8096C146.24 32.6696 146.223 32.5523 146.188 32.459C146.177 32.4066 146.162 32.3542 146.145 32.3018L146.083 32.1445L144.035 27.9268L142.408 25.7041L143.581 24.6895L145.698 22.624C145.803 22.5104 145.868 22.3968 145.895 22.2832L145.908 22.1689V17.374C145.908 17.1874 145.89 17.0533 145.855 16.9717C145.832 16.89 145.756 16.7905 145.628 16.6738L141.604 12.6846C141.464 12.5708 141.297 12.4992 141.104 12.4707L140.903 12.457V8.45703C141.879 8.45707 142.966 8.72028 143.934 9.43164L144.125 9.58008L144.279 9.7041L144.419 9.84375L148.444 13.833L148.442 13.834C148.736 14.1146 149.324 14.7401 149.643 15.6855C149.655 15.7201 149.665 15.7548 149.676 15.7891C149.684 15.8168 149.694 15.8448 149.702 15.873H149.7C149.905 16.5633 149.908 17.1595 149.908 17.374V22.1689C149.908 23.6414 149.21 24.7165 148.638 25.3369L148.566 25.4141L148.491 25.4883L147.681 26.2773L149.682 30.3975L149.711 30.458L149.738 30.5195C149.856 30.7841 149.956 31.0657 150.035 31.3623C150.203 31.926 150.24 32.4359 150.24 32.8096V35.3467C150.24 36.109 150.047 37.4154 148.96 38.5029C147.872 39.5906 146.565 39.7842 145.803 39.7842H140.851C140.179 39.7842 139.36 39.6406 138.561 39.1807C137.709 39.6769 136.848 39.7842 136.283 39.7842H130.98C130.218 39.7842 128.912 39.5905 127.824 38.5029C126.924 37.6024 126.639 36.5517 126.566 35.7842H126.97C127.225 35.784 127.369 35.6724 127.4 35.4492L127.407 35.3467V19.124C127.407 18.9375 127.348 18.7629 127.231 18.5996L126.543 17.627V12.8945C126.543 12.1321 126.737 10.8249 127.824 9.7373C128.912 8.64995 130.218 8.45705 130.98 8.45703V12.457L130.878 12.4639C130.655 12.4958 130.543 12.6394 130.543 12.8945V35.3467C130.543 35.6383 130.689 35.7841 130.98 35.7842H136.283C136.575 35.7841 136.721 35.6383 136.721 35.3467V27.9795H137.666ZM139.999 20.1807C139.949 20.0307 139.838 19.7639 139.602 19.4697L139.467 19.3145L139.325 19.1738C138.994 18.8685 138.662 18.7165 138.448 18.6475C138.349 18.6155 138.274 18.6005 138.23 18.5938C138.229 18.594 138.227 18.5945 138.226 18.5947V21.7559C138.27 21.75 138.361 21.7355 138.484 21.6943C138.739 21.6094 139.127 21.4152 139.487 21.0264C139.804 20.6796 139.942 20.3526 139.999 20.1807ZM138.226 19.8906L137.912 20.1826L138.226 20.4746V19.8906ZM140.903 8.45703V12.457H130.98V8.45703H140.903ZM138.226 19.8906V18.5947C138.181 18.6019 138.108 18.6164 138.012 18.6475C137.767 18.7265 137.352 18.919 136.963 19.3389C136.648 19.6837 136.509 20.0087 136.451 20.1807C136.506 20.3476 136.638 20.6612 136.937 20.9971C137.313 21.4087 137.719 21.6088 137.976 21.6943C138.092 21.7331 138.179 21.7491 138.226 21.7559V20.4746L137.912 20.1826L138.226 19.8906ZM140.413 20.1738C140.413 21.0605 140.244 21.6852 139.905 22.0469L139.772 22.1738C139.436 22.4508 138.92 22.5889 138.226 22.5889C137.542 22.5889 137.027 22.4508 136.683 22.1738L136.546 22.0469C136.208 21.6852 136.038 21.0605 136.038 20.1738C136.038 19.4083 136.168 18.8393 136.427 18.4668L136.546 18.3193C136.884 17.946 137.444 17.7588 138.226 17.7588C139.019 17.7588 139.579 17.9461 139.905 18.3193C140.244 18.681 140.413 19.299 140.413 20.1738Z" fill="black"/>
<path d="M111.664 35.4492C111.691 35.6407 111.801 35.7501 111.992 35.7773L112.095 35.7842H117.589C117.844 35.7842 117.988 35.6725 118.02 35.4492L118.026 35.3467V28.2246H121.055V35.3467C121.055 35.6383 121.201 35.7842 121.492 35.7842H126.97L127.072 35.7773C127.263 35.7499 127.373 35.6405 127.4 35.4492L127.407 35.3467V19.124C127.407 18.984 127.374 18.8505 127.309 18.7236L127.231 18.5996L123.066 12.7188C122.964 12.5659 122.809 12.48 122.6 12.4609L122.507 12.457V8.45703C123.738 8.45705 125.299 8.94023 126.328 10.4082L126.331 10.4072L130.496 16.2871H130.495C130.512 16.3106 130.527 16.3355 130.543 16.3594V35.3467L130.55 35.4492C130.582 35.6725 130.725 35.7841 130.98 35.7842H131.383C131.311 36.5517 131.026 37.6024 130.126 38.5029C129.039 39.5904 127.732 39.7841 126.97 39.7842H121.492C121 39.7842 120.281 39.7017 119.54 39.3516C118.8 39.7014 118.081 39.7842 117.589 39.7842H112.095C111.332 39.7842 110.025 39.5906 108.938 38.5029C107.85 37.4153 107.657 36.109 107.657 35.3467V19.124C107.657 18.707 107.713 18.3209 107.801 17.9688H108.099C108.39 17.9688 108.536 17.8229 108.536 17.5312V16.332L108.563 16.2939L112.711 10.4141L112.731 10.3838L112.754 10.3535C113.741 9.00782 115.209 8.45709 116.539 8.45703V12.457L116.45 12.4609C116.249 12.4801 116.092 12.5659 115.979 12.7188L111.832 18.5996L111.755 18.7373C111.689 18.8727 111.657 19.0017 111.657 19.124V35.3467L111.664 35.4492ZM120.245 20.8828L119.532 21.4766V22.0488C119.575 22.0406 119.64 22.0263 119.723 21.998C119.974 21.9118 120.37 21.7095 120.726 21.2969L120.245 20.8828ZM119.054 21.875C119.155 21.9273 119.247 21.9668 119.326 21.9941C119.416 22.0253 119.487 22.0404 119.532 22.0488V21.4766L119.054 21.875ZM120.251 20.8779L120.731 21.29C120.871 21.1276 120.968 20.9736 121.037 20.8447C120.974 20.7288 120.888 20.5924 120.768 20.4482L120.251 20.8779ZM119.532 20.2686L119.02 19.8271C118.804 19.9454 118.555 20.1276 118.32 20.3994L118.314 20.4062L118.204 20.5449C118.123 20.6535 118.062 20.7549 118.015 20.8438C118.079 20.9684 118.173 21.1177 118.307 21.2773C118.539 21.5472 118.787 21.7295 119.004 21.8486L119.532 21.3809V20.2686ZM119.529 19.6299C119.488 19.6383 119.43 19.6535 119.358 19.6777C119.266 19.7087 119.151 19.7554 119.023 19.8252L119.532 20.2617V19.6309C119.531 19.6306 119.53 19.6301 119.529 19.6299ZM122.507 8.45703V12.457H116.539V8.45703H122.507ZM121.886 21.21C121.846 22.0418 121.668 22.6413 121.352 23.0088C121.002 23.4171 120.395 23.622 119.532 23.6221L119.22 23.6123C118.519 23.5676 118.011 23.3661 117.694 23.0088C117.344 22.5888 117.169 21.8654 117.169 20.8389C117.169 19.8124 117.344 19.0948 117.694 18.6865C118.056 18.2666 118.669 18.0566 119.532 18.0566L119.844 18.0664C120.543 18.1124 121.045 18.3192 121.352 18.6865L120.051 19.8379C119.912 19.7593 119.787 19.7065 119.689 19.6738C119.624 19.6519 119.57 19.6388 119.532 19.6309V20.2617L119.553 20.2793L119.548 20.2832L119.532 20.2686V21.3809L120.168 20.8174L119.548 20.2832L119.553 20.2793L120.174 20.8125L120.688 20.3574C120.474 20.1156 120.248 19.9499 120.051 19.8379L121.352 18.6865C121.713 19.0948 121.894 19.8124 121.895 20.8389L121.886 21.21Z" fill="black"/>
<path d="M99.041 35.4492C99.0684 35.6406 99.1777 35.75 99.3691 35.7773L99.4717 35.7842H104.967L105.069 35.7773C105.261 35.7499 105.37 35.6406 105.397 35.4492L105.404 35.3467V17.9688H108.099C108.39 17.9688 108.536 17.8229 108.536 17.5312V12.8945C108.536 12.6392 108.425 12.4957 108.201 12.4639L108.099 12.457V8.45703C108.861 8.45703 110.168 8.64971 111.256 9.7373C112.343 10.8249 112.536 12.1321 112.536 12.8945V17.5312C112.536 17.555 112.534 17.5797 112.533 17.6045L111.832 18.5996C111.715 18.7861 111.657 18.9608 111.657 19.124V20.2236C111.539 20.381 111.407 20.5375 111.256 20.6885C110.663 21.2816 110.004 21.6073 109.404 21.7822V35.3467C109.404 36.1091 109.211 37.4153 108.123 38.5029C107.036 39.5905 105.729 39.7841 104.967 39.7842H99.4717C98.7093 39.7842 97.4031 39.5905 96.3154 38.5029C95.2278 37.4153 95.0342 36.1091 95.0342 35.3467V21.7773C94.4393 21.6013 93.7876 21.2758 93.2002 20.6885C92.1126 19.6008 91.9189 18.2937 91.9189 17.5312V12.8945C91.9189 12.1321 92.1126 10.8249 93.2002 9.7373C94.2877 8.64995 95.5941 8.45705 96.3564 8.45703V12.457L96.2539 12.4639C96.0307 12.4958 95.9189 12.6394 95.9189 12.8945V17.5312C95.9189 17.8229 96.0649 17.9687 96.3564 17.9688H99.0342V35.3467L99.041 35.4492ZM108.099 8.45703V12.457H96.3564V8.45703H108.099Z" fill="black"/>
<path d="M82.9375 35.4492C82.9694 35.6725 83.113 35.7841 83.3682 35.7842H93.168C93.4232 35.7842 93.5667 35.6725 93.5986 35.4492L93.6055 35.3467V30.709C93.6054 30.4174 93.4596 30.2715 93.168 30.2715H89.2832V12.8945C89.2832 12.6393 89.1716 12.4958 88.9482 12.4639L88.8457 12.457V8.45703C89.608 8.45703 90.9144 8.64999 92.002 9.7373C93.0896 10.8249 93.2832 12.1321 93.2832 12.8945V26.2754C94.0572 26.2948 95.2904 26.518 96.3252 27.5527C97.4125 28.6402 97.6054 29.9466 97.6055 30.709V35.3467C97.6055 36.109 97.4125 37.4154 96.3252 38.5029C95.2376 39.5906 93.9304 39.7842 93.168 39.7842H83.3682C82.6057 39.7842 81.2995 39.5905 80.2119 38.5029C79.1243 37.4153 78.9307 36.1091 78.9307 35.3467V32.4912L79.4355 31.9863C79.6338 31.7998 79.7333 31.5669 79.7334 31.2871V16.9365C79.7334 16.6683 79.6338 16.4346 79.4355 16.2363L78.9307 15.7314V12.8945C78.9307 12.1321 79.1243 10.8249 80.2119 9.7373C81.2994 8.64995 82.6058 8.45705 83.3682 8.45703V12.457L83.2656 12.4639C83.0424 12.4958 82.9307 12.6394 82.9307 12.8945V35.3467L82.9375 35.4492ZM88.8457 8.45703V12.457H83.3682V8.45703H88.8457Z" fill="black"/>
<path d="M63.7607 31.3896C63.7812 31.6243 63.8729 31.8231 64.0361 31.9863L67.5361 35.4863C67.7096 35.6598 67.9097 35.7575 68.1367 35.7793L68.2363 35.7842H75.2363L75.3389 35.7793C75.5736 35.7576 75.7722 35.6598 75.9355 35.4863L79.4355 31.9863C79.609 31.823 79.7068 31.6244 79.7285 31.3896L79.7334 31.2871V16.9365C79.7334 16.6683 79.6338 16.4346 79.4355 16.2363L75.9355 12.7363C75.7723 12.5733 75.5734 12.4813 75.3389 12.4609L75.2363 12.457V8.45703C76.4263 8.45711 77.6194 8.86613 78.5762 9.72949L78.7646 9.9082L82.2646 13.4082C82.5151 13.6587 82.7378 13.9345 82.9307 14.2305V34C82.7411 34.2896 82.5179 34.5616 82.2627 34.8135L82.2646 34.8154L78.7646 38.3154L78.7627 38.3135C77.806 39.2827 76.5454 39.7841 75.2363 39.7842H68.2363C66.855 39.7842 65.6186 39.2258 64.708 38.3154L61.208 34.8154C60.5076 34.115 60.0708 33.2689 59.876 32.3828L60.2734 31.9863C60.4365 31.8231 60.5284 31.6242 60.5488 31.3896L60.5527 31.2871V14.2236C60.7192 13.9659 60.9096 13.7219 61.123 13.4951L61.165 13.4512L64.708 9.9082L64.75 9.86523L64.7949 9.82422C65.7229 8.95089 66.9322 8.45703 68.2363 8.45703V12.457L68.1367 12.4609C67.9098 12.4814 67.7095 12.5732 67.5361 12.7363L64.0361 16.2363L63.9707 16.3125C63.8277 16.4937 63.7559 16.7017 63.7559 16.9365V31.2871L63.7607 31.3896ZM72.6289 30.2715H70.8438L70.7549 30.2676C70.3814 30.2339 70.1699 29.9808 70.1201 29.5078L70.1084 29.2744H72.6289V30.2715ZM73.3633 29.2744L73.3516 29.5078C73.298 30.0169 73.0574 30.2713 72.6289 30.2715V29.2744H70.1084V18.9492C70.1084 18.3365 70.3239 18.0108 70.7549 17.9727L70.8438 17.9688H72.6289C73.1186 17.9689 73.3633 18.2961 73.3633 18.9492V29.2744ZM75.2363 8.45703V12.457H68.2363V8.45703H75.2363Z" fill="black"/>
<path d="M44.8252 31.3896C44.8456 31.6243 44.9374 31.8231 45.1006 31.9863L48.6006 35.4863C48.774 35.6598 48.9742 35.7575 49.2012 35.7793L49.3008 35.7842H56.0732L56.1719 35.7793C56.3666 35.7607 56.5419 35.6868 56.6973 35.5566L56.7734 35.4863L60.2734 31.9863C60.4365 31.8231 60.5284 31.6242 60.5488 31.3896L60.5527 31.2871V12.8945C60.5527 12.6393 60.4412 12.4957 60.2178 12.4639L60.1152 12.457V8.45703C60.8776 8.45703 62.1848 8.64967 63.2725 9.7373C64.36 10.8249 64.5527 12.1321 64.5527 12.8945V15.7197L64.0361 16.2363C63.8495 16.4346 63.7559 16.6683 63.7559 16.9365V31.2871L63.7607 31.3896C63.7812 31.6243 63.8729 31.8231 64.0361 31.9863L64.4326 32.3828C64.2378 33.2689 63.802 34.115 63.1016 34.8154L59.6016 38.3154C58.691 39.226 57.4546 39.7841 56.0732 39.7842H49.3008C47.9194 39.7842 46.6831 39.2258 45.7725 38.3154L42.2725 34.8154C41.2867 33.8297 40.8204 32.5564 40.8203 31.2871V12.8945C40.8203 12.1321 41.0139 10.8249 42.1016 9.7373C43.1891 8.64995 44.4954 8.45705 45.2578 8.45703V12.457L45.1553 12.4639C44.9321 12.4958 44.8203 12.6394 44.8203 12.8945V31.2871L44.8252 31.3896ZM50.7354 8.45703C51.2276 8.45703 51.946 8.53884 52.6865 8.88867C53.427 8.53878 54.1454 8.45706 54.6377 8.45703H60.1152V12.457H54.6377C54.3462 12.4571 54.2002 12.603 54.2002 12.8945V29.7295H51.1729V12.8945C51.1729 12.6029 51.027 12.457 50.7354 12.457H45.2578V8.45703H50.7354Z" fill="black"/>
</svg>
