<svg width="286" height="72" viewBox="0 0 286 72" fill="none" xmlns="http://www.w3.org/2000/svg">
<g filter="url(#filter0_d_352_9)">
<path d="M260.633 49.2781C260.233 49.2781 260.033 49.0781 260.033 48.6781V44.1661C260.033 43.9581 260.041 43.7901 260.057 43.6621C260.089 43.5341 260.185 43.4301 260.345 43.3501L266.633 40.4701V36.1981L260.441 32.3581C260.169 32.1981 260.033 31.9581 260.033 31.6381V22.8301C260.033 22.5741 260.049 22.3901 260.081 22.2781C260.113 22.1501 260.233 22.0141 260.441 21.8701L266.753 17.5981C266.913 17.5021 267.057 17.4301 267.185 17.3821C267.329 17.3181 267.505 17.2861 267.713 17.2861H274.193C274.593 17.2861 274.793 17.4861 274.793 17.8861V21.9661C274.793 22.3181 274.673 22.5581 274.433 22.6861L268.145 25.2781V29.7181L274.433 33.3181C274.673 33.4301 274.793 33.6861 274.793 34.0861V44.5261C274.793 44.6541 274.769 44.7901 274.721 44.9341C274.689 45.0781 274.609 45.1821 274.481 45.2461L266.945 48.9901C266.849 49.0381 266.729 49.1021 266.585 49.1821C266.457 49.2461 266.329 49.2781 266.201 49.2781H260.633Z" fill="#6890E7"/>
</g>
<g filter="url(#filter1_d_352_9)">
<path d="M237.681 49.2781C237.281 49.2781 237.081 49.0781 237.081 48.6781V17.8861C237.081 17.4861 237.281 17.2861 237.681 17.2861H254.409C254.809 17.2861 255.009 17.4861 255.009 17.8861V23.0701C255.009 23.4701 254.809 23.6701 254.409 23.6701H245.073V30.4861H253.593C253.993 30.4861 254.193 30.6861 254.193 31.0861V35.4781C254.193 35.8781 253.993 36.0781 253.593 36.0781H245.073V42.8701H254.409C254.809 42.8701 255.009 43.0701 255.009 43.4701V48.6781C255.009 49.0781 254.809 49.2781 254.409 49.2781H237.681Z" fill="#6890E7"/>
</g>
<g filter="url(#filter2_d_352_9)">
<path d="M215.734 49.2781C215.366 49.2781 215.046 49.1421 214.774 48.8701L209.974 44.0701C209.702 43.8141 209.566 43.4941 209.566 43.1101V23.4301C209.566 23.0621 209.702 22.7421 209.974 22.4701L214.774 17.6701C215.046 17.4141 215.366 17.2861 215.734 17.2861H225.166C225.55 17.2861 225.87 17.4141 226.126 17.6701L230.926 22.4701C231.198 22.7421 231.334 23.0621 231.334 23.4301V43.1101C231.334 43.4941 231.198 43.8141 230.926 44.0701L226.126 48.8701C225.87 49.1421 225.55 49.2781 225.166 49.2781H215.734ZM218.566 42.8701H222.334C223.006 42.8701 223.342 42.4221 223.342 41.5261V25.0381C223.342 24.1261 223.006 23.6701 222.334 23.6701H218.566C217.91 23.6701 217.582 24.1261 217.582 25.0381V41.5261C217.582 42.4221 217.91 42.8701 218.566 42.8701ZM215.71 16.0861C215.358 16.0861 215.254 15.8701 215.398 15.4381L216.958 11.6941C217.134 11.4221 217.294 11.2861 217.438 11.2861H220.798C220.974 11.2861 221.11 11.4221 221.206 11.6941L221.83 13.3981L222.478 11.6941C222.606 11.4221 222.886 11.2861 223.318 11.2861H225.238C225.59 11.2861 225.694 11.5101 225.55 11.9581L224.086 15.6781C223.99 15.9501 223.83 16.0861 223.606 16.0861H220.27C220.11 16.0861 219.982 15.9501 219.886 15.6781L219.43 13.8541L218.278 15.6781C218.118 15.9501 217.838 16.0861 217.438 16.0861H215.71Z" fill="#6890E7"/>
</g>
<g filter="url(#filter3_d_352_9)">
<path d="M198.388 49.2781C198.02 49.2781 197.7 49.1741 197.428 48.9661L193.516 45.3901L189.556 40.2301C189.38 40.0061 189.268 39.8701 189.22 39.8221C189.172 39.7581 189.148 39.6141 189.148 39.3901V27.1501C189.148 26.9261 189.172 26.7821 189.22 26.7181C189.284 26.6541 189.396 26.5181 189.556 26.3101L193.228 21.5581L197.428 17.5981C197.604 17.4541 197.74 17.3661 197.836 17.3341C197.948 17.3021 198.132 17.2861 198.388 17.2861H204.316C204.716 17.2861 204.916 17.4861 204.916 17.8861V21.7261C204.916 21.8541 204.9 21.9901 204.868 22.1341C204.852 22.2621 204.772 22.3741 204.628 22.4701L200.116 25.5661L197.164 29.3581V37.2061L200.164 40.9981L204.628 44.0701C204.756 44.1501 204.836 44.2461 204.868 44.3581C204.9 44.4701 204.916 44.5901 204.916 44.7181V48.6781C204.916 49.0781 204.716 49.2781 204.316 49.2781H198.388ZM198.964 57.0301C198.564 57.0301 198.364 56.8621 198.364 56.5261V55.7101C198.364 55.3901 198.564 55.2301 198.964 55.2301H201.676V53.2861H199.564C199.164 53.2861 198.964 53.0861 198.964 52.6861V51.1261L200.188 49.2781H203.428L202.204 51.1261H203.764C204.164 51.1261 204.364 51.3261 204.364 51.7261V55.5181C204.364 55.8061 204.252 56.0621 204.028 56.2861L203.548 56.7661C203.436 56.8781 203.316 56.9501 203.188 56.9821C203.06 57.0141 202.932 57.0301 202.804 57.0301H198.964Z" fill="#6890E7"/>
</g>
<g filter="url(#filter4_d_352_9)">
<path d="M162.935 49.2781C162.535 49.2781 162.335 49.0781 162.335 48.6781V26.4301C162.335 26.2221 162.415 25.9821 162.575 25.7101L168.263 17.6461C168.439 17.4061 168.695 17.2861 169.031 17.2861H176.975C177.327 17.2861 177.583 17.4061 177.743 17.6461L183.455 25.7101C183.615 25.9341 183.695 26.1741 183.695 26.4301V48.6781C183.695 49.0781 183.495 49.2781 183.095 49.2781H176.303C175.903 49.2781 175.703 49.0781 175.703 48.6781V38.4781H170.351V48.6781C170.351 49.0781 170.151 49.2781 169.751 49.2781H162.935ZM173.015 33.3181C174.487 33.3181 175.479 32.9981 175.991 32.3581C176.519 31.7021 176.783 30.4621 176.783 28.6381C176.783 26.8141 176.519 25.5821 175.991 24.9421C175.479 24.2861 174.487 23.9581 173.015 23.9581C171.559 23.9581 170.567 24.2861 170.039 24.9421C169.527 25.5821 169.271 26.8141 169.271 28.6381C169.271 30.4621 169.527 31.7021 170.039 32.3581C170.567 32.9981 171.559 33.3181 173.015 33.3181Z" fill="#6890E7"/>
</g>
<g filter="url(#filter5_d_352_9)">
<path d="M124.525 49.2781C124.125 49.2781 123.925 49.0781 123.925 48.6781V22.6381C123.925 22.2701 124.061 21.9501 124.333 21.6781L128.317 17.6701C128.589 17.4141 128.909 17.2861 129.277 17.2861H134.773C135.141 17.2861 135.461 17.4141 135.733 17.6701L139.765 21.7261H140.893L144.925 17.6701C145.197 17.4141 145.517 17.2861 145.885 17.2861H151.357C151.741 17.2861 152.061 17.4141 152.317 17.6701L156.325 21.6781C156.597 21.9501 156.733 22.2701 156.733 22.6381V48.6781C156.733 49.0781 156.533 49.2781 156.133 49.2781H149.317C148.917 49.2781 148.717 49.0781 148.717 48.6781V23.6701H144.325V48.6781C144.325 49.0781 144.125 49.2781 143.725 49.2781H136.933C136.533 49.2781 136.333 49.0781 136.333 48.6781V23.6701H131.917V48.6781C131.917 49.0781 131.717 49.2781 131.317 49.2781H124.525Z" fill="#6890E7"/>
</g>
<g filter="url(#filter6_d_352_9)">
<path d="M99.7751 49.2781C99.3751 49.2781 99.1751 49.0781 99.1751 48.6781V17.8861C99.1751 17.4861 99.3751 17.2861 99.7751 17.2861H112.783C113.167 17.2861 113.487 17.3901 113.743 17.5981L119.263 23.0701C119.439 23.2301 119.543 23.3661 119.575 23.4781C119.623 23.5901 119.647 23.7741 119.647 24.0301V30.6061C119.647 30.8141 119.567 30.9981 119.407 31.1581L116.767 33.7261L114.535 35.6461L117.175 39.1501L119.887 44.9581C119.951 45.1021 119.999 45.2461 120.031 45.3901C120.079 45.5181 120.103 45.6781 120.103 45.8701V48.6781C120.103 49.0781 119.903 49.2781 119.503 49.2781H113.167C112.815 49.2781 112.575 49.1181 112.447 48.7981L108.583 37.5661H106.783V48.6781C106.783 49.0781 106.583 49.2781 106.183 49.2781H99.7751ZM109.423 31.6861C110.751 31.6861 111.655 31.4141 112.135 30.8701C112.615 30.3101 112.855 29.2701 112.855 27.7501C112.855 26.2141 112.615 25.1741 112.135 24.6301C111.655 24.0701 110.751 23.7901 109.423 23.7901C108.111 23.7901 107.207 24.0701 106.711 24.6301C106.215 25.1741 105.967 26.2141 105.967 27.7501C105.967 29.2701 106.215 30.3101 106.711 30.8701C107.207 31.4141 108.111 31.6861 109.423 31.6861Z" fill="#6890E7"/>
</g>
<g filter="url(#filter7_d_352_9)">
<path d="M77.8275 49.2781C77.4595 49.2781 77.1395 49.1421 76.8675 48.8701L72.0675 44.0701C71.7955 43.8141 71.6595 43.4941 71.6595 43.1101V23.4301C71.6595 23.0621 71.7955 22.7421 72.0675 22.4701L76.8675 17.6701C77.1395 17.4141 77.4595 17.2861 77.8275 17.2861H87.2595C87.6435 17.2861 87.9635 17.4141 88.2195 17.6701L93.0195 22.4701C93.2915 22.7421 93.4275 23.0621 93.4275 23.4301V43.1101C93.4275 43.4941 93.2915 43.8141 93.0195 44.0701L88.2195 48.8701C87.9635 49.1421 87.6435 49.2781 87.2595 49.2781H77.8275ZM80.6595 42.8701H84.4275C85.0995 42.8701 85.4355 42.4221 85.4355 41.5261V25.0381C85.4355 24.1261 85.0995 23.6701 84.4275 23.6701H80.6595C80.0035 23.6701 79.6755 24.1261 79.6755 25.0381V41.5261C79.6755 42.4221 80.0035 42.8701 80.6595 42.8701Z" fill="#6890E7"/>
</g>
<g filter="url(#filter8_d_352_9)">
<path d="M50.7907 49.2781C50.3907 49.2781 50.1907 49.0781 50.1907 48.6781V17.8861C50.1907 17.4861 50.3907 17.2861 50.7907 17.2861H67.2307C67.6307 17.2861 67.8307 17.4861 67.8307 17.8861V23.0701C67.8307 23.4701 67.6307 23.6701 67.2307 23.6701H58.1827V31.6861H66.0307C66.4307 31.6861 66.6307 31.8861 66.6307 32.2861V37.4701C66.6307 37.8701 66.4307 38.0701 66.0307 38.0701H58.1827V48.6781C58.1827 49.0781 57.9827 49.2781 57.5827 49.2781H50.7907Z" fill="#6890E7"/>
</g>
<g filter="url(#filter9_d_352_9)">
<path d="M24.6345 49.2781C24.2345 49.2781 24.0345 49.0781 24.0345 48.6781V17.8861C24.0345 17.4861 24.2345 17.2861 24.6345 17.2861H38.2665C38.6505 17.2861 38.9705 17.4141 39.2265 17.6701L44.0265 22.4701C44.2985 22.7421 44.4345 23.0621 44.4345 23.4301V48.6781C44.4345 49.0781 44.2345 49.2781 43.8345 49.2781H37.0425C36.6425 49.2781 36.4425 49.0781 36.4425 48.6781V23.6701H32.0265V48.6781C32.0265 49.0781 31.8265 49.2781 31.4265 49.2781H24.6345Z" fill="#6890E7"/>
</g>
<g filter="url(#filter10_d_352_9)">
<path d="M10.9001 49.2781C10.5001 49.2781 10.3001 49.0781 10.3001 48.6781V17.8861C10.3001 17.4861 10.5001 17.2861 10.9001 17.2861H17.6921C18.0921 17.2861 18.2921 17.4861 18.2921 17.8861V48.6781C18.2921 49.0781 18.0921 49.2781 17.6921 49.2781H10.9001Z" fill="#6890E7"/>
</g>
<g filter="url(#filter11_d_352_9)">
<path d="M274.793 44.5264V34.0859C274.793 33.7362 274.701 33.4967 274.518 33.3672L274.433 33.3184L268.146 29.7188V25.2783L274.433 22.6865C274.643 22.5745 274.761 22.3764 274.787 22.0928L274.793 21.9668V17.8867C274.793 17.5368 274.64 17.3397 274.334 17.2959L274.194 17.2861V12.2861C275.164 12.2862 276.811 12.5323 278.179 13.9004C279.547 15.2688 279.793 16.916 279.793 17.8867V21.9668C279.793 23.5308 279.148 25.8381 276.786 27.0977L276.568 27.2148L276.339 27.3086L274.978 27.8691L276.796 28.9102C279.399 30.2707 279.793 32.8975 279.793 34.0859V44.5264C279.793 45.1901 279.683 45.7904 279.529 46.3076C279.127 47.749 278.144 49.005 276.717 49.7188L276.706 49.7246L269.18 53.4619L269.181 53.4629C269.18 53.4635 269.176 53.4648 269.17 53.4678C269.162 53.4719 269.151 53.4784 269.136 53.4863C269.106 53.5024 269.065 53.5241 269.014 53.5527L268.918 53.6055L268.821 53.6543C268.082 54.024 267.193 54.2783 266.201 54.2783H260.633C259.662 54.2783 258.016 54.0323 256.648 52.6641C255.279 51.2958 255.033 49.6495 255.033 48.6787V44.166C255.033 43.8596 255.044 43.461 255.096 43.042L255.133 42.7422L255.206 42.4492C255.706 40.4493 257.133 39.3661 258.11 38.8779L258.186 38.8398L258.263 38.8047L260.037 37.9912L257.806 36.6074L257.807 36.6045C256.044 35.521 255.034 33.6613 255.033 31.6387V22.8301C255.033 22.5474 255.036 21.8387 255.232 21.0654H255.231C255.236 21.0444 255.243 21.0238 255.248 21.0029C255.257 20.9704 255.264 20.937 255.274 20.9043H255.276C255.809 19.0199 257.197 18.0356 257.595 17.7598L257.616 17.7441L257.639 17.7295L263.95 13.458L264.064 13.3809L264.181 13.3105C264.514 13.1108 264.937 12.885 265.43 12.7002V12.7012C266.282 12.3726 267.086 12.2861 267.713 12.2861V17.2861C267.505 17.2861 267.329 17.3179 267.185 17.3818C267.057 17.4298 266.913 17.5027 266.753 17.5986L260.442 21.8701L260.302 21.9766C260.179 22.0816 260.105 22.1823 260.081 22.2783C260.049 22.3903 260.033 22.5742 260.033 22.8301V31.6387C260.033 31.9585 260.17 32.1985 260.442 32.3584L266.633 36.1982V40.4707L260.345 43.3506C260.185 43.4305 260.089 43.5343 260.057 43.6621C260.041 43.79 260.033 43.9582 260.033 44.166V48.6787C260.034 49.0784 260.233 49.2782 260.633 49.2783H266.201L266.297 49.2725C266.361 49.2645 266.425 49.2486 266.489 49.2246L266.585 49.1826C266.729 49.1026 266.849 49.0382 266.945 48.9902L274.482 45.2461C274.609 45.1821 274.689 45.0783 274.721 44.9346C274.757 44.8267 274.779 44.7229 274.788 44.624L274.793 44.5264ZM274.194 12.2861V17.2861H267.713V12.2861H274.194Z" fill="black"/>
</g>
<g filter="url(#filter12_d_352_9)">
<path d="M237.091 48.8193C237.129 49.0817 237.279 49.2312 237.541 49.2686L237.682 49.2783H254.409L254.55 49.2686C254.812 49.2311 254.963 49.0816 255 48.8193L255.009 48.6787V43.4707C255.009 43.1207 254.856 42.9236 254.55 42.8799L254.409 42.8701H245.073V36.0781H253.593C253.943 36.0781 254.14 35.9252 254.184 35.6191L254.194 35.4785V31.0859C254.193 30.736 254.04 30.5397 253.734 30.4961L253.593 30.4863H245.073V23.6699H254.409L254.55 23.6611C254.856 23.6174 255.009 23.4203 255.009 23.0703V17.8867C255.009 17.5367 254.856 17.3397 254.55 17.2959L254.409 17.2861V12.2861C255.38 12.2861 257.026 12.5322 258.395 13.9004C259.763 15.2688 260.009 16.916 260.009 17.8867V23.0703C260.009 24.041 259.763 25.6873 258.395 27.0557C258.24 27.2107 258.08 27.35 257.919 27.4775C258.987 28.7612 259.193 30.2024 259.194 31.0859V35.4785C259.194 36.3587 258.989 37.7921 257.931 39.0723C258.088 39.1972 258.243 39.3332 258.395 39.4844C259.763 40.8528 260.009 42.5 260.009 43.4707V48.6787C260.009 49.6495 259.763 51.2958 258.395 52.6641C257.026 54.0323 255.38 54.2783 254.409 54.2783H237.682C236.711 54.2783 235.064 54.0325 233.695 52.6641C232.327 51.2959 232.081 49.6495 232.081 48.6787V17.8867C232.081 16.916 232.327 15.2688 233.695 13.9004C235.064 12.532 236.711 12.2861 237.682 12.2861V17.2861L237.541 17.2959C237.235 17.3395 237.081 17.5366 237.081 17.8867V48.6787L237.091 48.8193ZM254.409 12.2861V17.2861H237.682V12.2861H254.409Z" fill="black"/>
</g>
<g filter="url(#filter13_d_352_9)">
<path d="M209.572 43.251C209.602 43.5731 209.736 43.8462 209.974 44.0703L214.774 48.8701C215.046 49.1421 215.366 49.2783 215.734 49.2783H225.166L225.307 49.2715C225.629 49.2417 225.902 49.1081 226.126 48.8701L230.926 44.0703C231.164 43.8463 231.298 43.5731 231.327 43.251L231.334 43.1104V23.4307C231.334 23.1086 231.23 22.8227 231.022 22.5742L230.926 22.4707L226.126 17.6699C225.87 17.414 225.55 17.2862 225.166 17.2861H215.734C215.366 17.2862 215.046 17.414 214.774 17.6699L209.974 22.4707C209.702 22.7427 209.566 23.0627 209.566 23.4307V43.1104L209.572 43.251ZM217.438 11.2861C217.294 11.2862 217.134 11.4225 216.958 11.6943L215.398 15.4385C215.254 15.8704 215.358 16.0859 215.71 16.0859H217.438C217.837 16.0859 218.117 15.9505 218.278 15.6787L219.43 13.8545L219.886 15.6787C219.982 15.9504 220.11 16.0859 220.27 16.0859H223.606C223.83 16.0859 223.99 15.9506 224.086 15.6787L225.55 11.958C225.694 11.5102 225.589 11.2861 225.237 11.2861H223.318C222.886 11.2862 222.606 11.4224 222.478 11.6943L221.829 13.3984L221.205 11.6943C221.109 11.4226 220.974 11.2863 220.798 11.2861H217.438ZM223.338 41.6895C223.299 42.4765 222.964 42.8699 222.334 42.8701H218.566C217.951 42.8701 217.624 42.4767 217.585 41.6895L217.582 41.5264V25.0381C217.582 24.1263 217.91 23.67 218.566 23.6699H222.334C223.006 23.6701 223.342 24.1264 223.342 25.0381V41.5264L223.338 41.6895ZM236.334 43.1104C236.334 44.7808 235.695 46.385 234.459 47.6035L234.461 47.6055L229.661 52.4062L229.659 52.4043C228.441 53.6398 226.836 54.2782 225.166 54.2783H215.734C213.974 54.2783 212.401 53.5684 211.238 52.4062L206.439 47.6055C205.733 46.9099 205.224 46.0874 204.916 45.1992V44.7188C204.916 44.5908 204.899 44.4704 204.867 44.3584C204.836 44.2495 204.76 44.1558 204.638 44.0771C204.59 43.7589 204.566 43.4358 204.566 43.1104V23.4307C204.566 23.1009 204.59 22.7771 204.638 22.4619C204.775 22.3677 204.852 22.2593 204.867 22.1348C204.899 21.9909 204.916 21.8545 204.916 21.7266V21.3516C205.235 20.4356 205.759 19.6143 206.439 18.9346L210.389 14.9834C210.462 14.4443 210.592 14.0438 210.654 13.8574L210.712 13.6836L210.782 13.5156L212.342 9.77148L212.516 9.35547L212.76 8.97852C212.986 8.62964 213.377 8.08515 213.972 7.5791C214.551 7.08646 215.739 6.28615 217.438 6.28613H218.296L221.445 1.2998L222.699 6.31836C222.924 6.29596 223.132 6.28614 223.318 6.28613H225.237C226.403 6.28613 228.905 6.74353 230.114 9.34863C231.004 11.2647 230.46 13.0197 230.31 13.4883L230.261 13.6406L229.951 14.4248L234.461 18.9346C235.623 20.0969 236.334 21.6711 236.334 23.4307V43.1104Z" fill="black"/>
</g>
<g filter="url(#filter14_d_352_9)">
<path d="M204.916 21.7266V17.8867C204.916 17.4867 204.716 17.2861 204.316 17.2861V12.2861C205.286 12.2861 206.933 12.5323 208.301 13.9004C209.669 15.2688 209.916 16.916 209.916 17.8867V21.7266C209.916 22.0329 209.891 22.3257 209.855 22.6035C209.662 22.8452 209.566 23.121 209.566 23.4307V23.874C209.085 25.246 208.135 26.1418 207.402 26.6309L207.401 26.6299L203.583 29.25L202.163 31.0752V35.4668L203.618 37.3066L207.462 39.9512L207.46 39.9531C208.219 40.4698 209.097 41.3328 209.566 42.6465V43.1104C209.566 43.4408 209.667 43.7233 209.868 43.959C209.881 44.0665 209.893 44.1729 209.901 44.2783H210.182L211.718 45.8145L209.916 48.5352V48.6787C209.916 49.3195 209.807 50.2538 209.34 51.209C209.356 51.3963 209.363 51.5703 209.363 51.7266V55.5186C209.363 57.2714 208.622 58.7636 207.564 59.8223L207.083 60.3018C206.459 60.9255 205.569 61.5408 204.401 61.833C203.888 61.9611 203.353 62.0303 202.804 62.0303H198.964C198.185 62.0303 196.67 61.8846 195.298 60.7324C193.76 59.44 193.363 57.716 193.363 56.5264V56.126H192.895L193.373 55.4023C193.412 54.7162 193.585 53.9245 193.983 53.1562C193.969 52.9871 193.964 52.8295 193.964 52.6865V52.5742L189.818 48.7842L185.589 43.2744C185.572 43.2529 185.556 43.2332 185.542 43.2158L185.433 43.1064L185.22 42.8223C184.465 41.8164 184.285 40.7997 184.234 40.4883C184.159 40.0418 184.148 39.649 184.148 39.3906V27.1504C184.148 26.8921 184.159 26.4992 184.234 26.0527C184.285 25.7414 184.466 24.7246 185.22 23.7188L185.433 23.4336L185.55 23.3154C185.562 23.2996 185.577 23.2821 185.593 23.2617L185.599 23.2529L189.512 18.1904L189.798 17.9199L193.997 13.96L194.125 13.8398L194.262 13.7285C194.468 13.5597 195.216 12.9372 196.255 12.5908L196.358 12.5566L196.462 12.5264C197.296 12.288 198.086 12.2861 198.388 12.2861V17.2861L198.058 17.2979C197.966 17.3058 197.892 17.318 197.836 17.334C197.74 17.366 197.604 17.4546 197.428 17.5986L193.228 21.5586L189.556 26.3105C189.396 26.5185 189.284 26.6548 189.22 26.7188L189.189 26.7812C189.162 26.8592 189.148 26.9823 189.148 27.1504V39.3906C189.148 39.6145 189.172 39.7583 189.22 39.8223C189.268 39.8703 189.38 40.0066 189.556 40.2305L193.516 45.3906L197.428 48.9668C197.7 49.1746 198.02 49.2783 198.388 49.2783H200.188L198.964 51.126V52.6865C198.964 53.0864 199.164 53.2861 199.564 53.2861H201.676V55.2305H198.964C198.564 55.2305 198.364 55.3902 198.363 55.71V56.5264C198.363 56.8623 198.564 57.0303 198.964 57.0303H202.804L202.995 57.0186C203.059 57.0106 203.124 56.9985 203.188 56.9824C203.316 56.9504 203.436 56.8786 203.548 56.7666L204.028 56.2861C204.251 56.0622 204.363 55.8065 204.363 55.5186V51.7266C204.363 51.3266 204.164 51.126 203.764 51.126H202.203L203.428 49.2783H204.316C204.715 49.2783 204.916 49.0784 204.916 48.6787V44.7188C204.916 44.5908 204.899 44.4704 204.867 44.3584C204.835 44.2465 204.756 44.1503 204.628 44.0703L200.163 40.998L197.163 37.2061V29.3584L200.115 25.5664L204.628 22.4707C204.772 22.3748 204.851 22.2625 204.867 22.1348C204.883 22.0629 204.896 21.9926 204.904 21.9248L204.916 21.7266ZM204.316 12.2861V17.2861H198.388V12.2861H204.316Z" fill="black"/>
</g>
<g filter="url(#filter15_d_352_9)">
<path d="M162.345 48.8193C162.389 49.1252 162.585 49.2782 162.935 49.2783H169.751C170.101 49.2783 170.298 49.1253 170.342 48.8193L170.351 48.6787V38.4785H175.703V48.6787L175.713 48.8193C175.757 49.1252 175.953 49.2782 176.303 49.2783H183.095C183.445 49.2783 183.642 49.1253 183.686 48.8193L183.695 48.6787V26.4307C183.695 26.2385 183.65 26.055 183.56 25.8809L183.455 25.71L177.743 17.6465C177.583 17.4065 177.327 17.2861 176.975 17.2861V12.2861C178.545 12.2861 180.522 12.8995 181.822 14.7559L187.524 22.8037C188.241 23.8083 188.695 25.0526 188.695 26.4307V48.6787C188.695 49.6495 188.449 51.2959 187.081 52.6641C185.713 54.0325 184.066 54.2783 183.095 54.2783H176.303C175.495 54.2783 174.221 54.1058 173.027 53.2598C171.833 54.1053 170.559 54.2783 169.751 54.2783H162.935C161.964 54.2782 160.318 54.0322 158.949 52.6641C157.581 51.2959 157.335 49.6495 157.335 48.6787V26.4307C157.335 24.9849 157.87 23.8484 158.266 23.1748L158.37 22.9971L164.177 14.7646L164.204 14.7266L164.232 14.6895C165.481 12.9859 167.339 12.2861 169.031 12.2861V17.2861L168.909 17.292C168.633 17.3182 168.417 17.4364 168.263 17.6465L162.575 25.71L162.47 25.9082C162.38 26.1002 162.335 26.2747 162.335 26.4307V48.6787L162.345 48.8193ZM173.33 28.6445C173.218 28.5641 173.113 28.5009 173.021 28.4521C173.019 28.4532 173.017 28.4541 173.015 28.4551V28.8311C173.016 28.8319 173.018 28.8322 173.02 28.833C173.112 28.7856 173.217 28.724 173.33 28.6445ZM172.708 28.6455C172.82 28.7232 172.923 28.7842 173.015 28.8311V28.4551C172.923 28.5035 172.819 28.5666 172.708 28.6455ZM176.975 12.2861V17.2861H169.031V12.2861H176.975ZM176.771 29.2949C176.713 30.7632 176.453 31.7844 175.991 32.3584C175.479 32.9984 174.487 33.3184 173.015 33.3184L172.747 33.3145C171.437 33.2769 170.534 32.9583 170.039 32.3584C169.591 31.7844 169.339 30.7632 169.283 29.2949L169.272 28.6387C169.272 26.8147 169.527 25.5824 170.039 24.9424C170.567 24.2864 171.559 23.9581 173.015 23.958C174.487 23.958 175.479 24.2864 175.991 24.9424C176.519 25.5824 176.783 26.8148 176.783 28.6387L176.771 29.2949Z" fill="black"/>
</g>
<g filter="url(#filter16_d_352_9)">
<path d="M123.935 48.8193C123.972 49.0817 124.122 49.2312 124.385 49.2686L124.526 49.2783H131.318L131.458 49.2686C131.72 49.231 131.87 49.0814 131.907 48.8193L131.917 48.6787V23.6699H136.333V48.6787C136.333 49.0784 136.533 49.2782 136.933 49.2783H143.725C144.075 49.2783 144.272 49.1253 144.316 48.8193L144.325 48.6787V23.6699H148.717V48.6787C148.717 49.0286 148.871 49.2249 149.177 49.2686L149.318 49.2783H156.133C156.483 49.2783 156.68 49.1253 156.724 48.8193L156.734 48.6787V22.6387C156.734 22.3167 156.629 22.0307 156.421 21.7822L156.325 21.6787L152.318 17.6699C152.062 17.4139 151.741 17.2861 151.357 17.2861V12.2861C152.876 12.2861 154.395 12.8078 155.613 13.9072L155.853 14.1348L159.861 18.1426C161.023 19.3049 161.734 20.8791 161.734 22.6387V48.6787C161.734 49.6495 161.487 51.2958 160.118 52.6641C158.75 54.0322 157.104 54.2783 156.133 54.2783H149.318C148.617 54.2783 147.566 54.1477 146.521 53.5625C145.475 54.1474 144.425 54.2783 143.725 54.2783H136.933C136.23 54.2783 135.174 54.1475 134.124 53.5566C133.075 54.1468 132.02 54.2783 131.318 54.2783H124.526C123.555 54.2783 121.908 54.0325 120.539 52.6641C119.423 51.548 119.055 50.2468 118.956 49.2783H119.503C119.853 49.2783 120.05 49.1253 120.094 48.8193L120.103 48.6787V45.8701C120.103 45.6784 120.079 45.5185 120.031 45.3906C119.999 45.2466 119.951 45.102 119.887 44.958L118.925 42.8975V31.627L119.407 31.1582C119.567 30.9983 119.647 30.8143 119.647 30.6064V24.0303C119.647 23.7745 119.623 23.5905 119.575 23.4785C119.543 23.3665 119.439 23.2303 119.263 23.0703L118.925 22.7344V22.6387C118.925 20.8791 119.636 19.3049 120.798 18.1426L124.771 14.1455L124.829 14.0859L124.89 14.0293C126.074 12.9149 127.615 12.2861 129.278 12.2861V17.2861L129.142 17.292C128.83 17.3199 128.556 17.4461 128.318 17.6699L124.333 21.6787L124.237 21.7822C124.029 22.0308 123.925 22.3166 123.925 22.6387V48.6787L123.935 48.8193ZM145.885 17.2861C145.517 17.2862 145.197 17.414 144.925 17.6699L140.893 21.7266H139.765L135.734 17.6699C135.462 17.4139 135.141 17.2861 134.773 17.2861V12.2861C136.332 12.2861 137.783 12.8389 138.934 13.8262L139.16 14.0293L139.221 14.0859L139.279 14.1455L140.328 15.2012L141.379 14.1455L141.438 14.0859L141.498 14.0293C142.682 12.915 144.222 12.2862 145.885 12.2861V17.2861ZM151.357 12.2861V17.2861H145.885V12.2861H151.357ZM134.773 12.2861V17.2861H129.278V12.2861H134.773Z" fill="black"/>
</g>
<g filter="url(#filter17_d_352_9)">
<path d="M108.583 37.5664L112.447 48.7979L112.5 48.9111C112.617 49.121 112.797 49.2405 113.04 49.2705L113.167 49.2783H119.503L119.644 49.2686C119.906 49.2311 120.056 49.0816 120.094 48.8193L120.103 48.6787V45.8701C120.103 45.6784 120.079 45.5185 120.031 45.3906C119.999 45.2466 119.951 45.102 119.887 44.958L117.175 39.1504L114.535 35.6465L116.767 33.7266L119.407 31.1582C119.547 31.0183 119.626 30.8601 119.644 30.6836L119.647 30.6064V24.0303C119.647 23.7745 119.623 23.5905 119.575 23.4785C119.543 23.3665 119.439 23.2303 119.263 23.0703L113.743 17.5986C113.519 17.4166 113.246 17.3138 112.924 17.291L112.783 17.2861V12.2861C114.035 12.2862 115.422 12.6237 116.653 13.5293L116.896 13.7178L117.088 13.873L117.263 14.0479L122.783 19.5195L122.781 19.5205C123.136 19.8592 123.821 20.5845 124.236 21.6699C124.246 21.6964 124.256 21.7227 124.266 21.749V21.751C124.039 22.0069 123.925 22.3027 123.925 22.6387V33.3926C123.655 33.8785 123.321 34.3162 122.943 34.6943L122.918 34.7188L122.894 34.7422L121.289 36.3018L121.484 36.5605L123.925 41.7881V48.6787L123.935 48.8193C123.979 49.1253 124.176 49.2783 124.526 49.2783H125.072C124.974 50.2468 124.605 51.548 123.488 52.6641C122.12 54.0323 120.474 54.2783 119.503 54.2783H113.167C112.224 54.2783 111.056 54.0562 109.949 53.3184C109.85 53.2518 109.754 53.1819 109.661 53.1113C108.411 54.0872 107.036 54.2783 106.183 54.2783H99.7756C98.8049 54.2783 97.1576 54.0325 95.7892 52.6641C94.4211 51.2959 94.1751 49.6495 94.175 48.6787V17.8867C94.175 16.916 94.4208 15.2688 95.7892 13.9004C97.1576 12.532 98.8049 12.2861 99.7756 12.2861V17.2861L99.6349 17.2959C99.3284 17.3395 99.175 17.5366 99.175 17.8867V48.6787C99.1751 49.0286 99.3285 49.2249 99.6349 49.2686L99.7756 49.2783H106.183C106.533 49.2783 106.73 49.1253 106.774 48.8193L106.783 48.6787V37.5664H108.583ZM110.183 27.7041L109.423 27.0312V28.3975L110.183 27.7041ZM109.423 28.7021C109.425 28.7031 109.428 28.7041 109.43 28.7051C109.466 28.6896 109.504 28.6708 109.545 28.6504L109.423 28.5449V28.7021ZM109.25 28.6201C109.313 28.653 109.371 28.6797 109.423 28.7021V28.5449L109.378 28.5068L109.25 28.6201ZM109.417 28.4727L109.423 28.4766V28.4678L109.417 28.4727ZM109.423 26.7832V27.0312L110.183 27.7041L110.405 27.502C110.041 27.1025 109.673 26.8889 109.428 26.7803C109.426 26.781 109.425 26.7824 109.423 26.7832ZM112.783 12.2861V17.2861H99.7756V12.2861H112.783ZM108.233 27.75C108.271 27.8002 108.312 27.8517 108.358 27.9043C108.655 28.2456 108.961 28.4608 109.205 28.5947L109.339 28.4736L108.339 27.6162C108.3 27.6612 108.266 27.7068 108.233 27.75ZM109.423 26.7832C109.165 26.8981 108.77 27.1273 108.386 27.5625L109.378 28.4375L109.423 28.3975V26.7832ZM110.454 27.5547L109.423 28.4678V28.4766L109.592 28.627C109.827 28.5046 110.13 28.3016 110.428 27.9727C110.497 27.8957 110.557 27.8201 110.611 27.748C110.564 27.686 110.512 27.6204 110.454 27.5547ZM112.855 27.75C112.855 29.27 112.615 30.3101 112.135 30.8701C111.655 31.4141 110.751 31.6865 109.423 31.6865L108.95 31.6738C107.892 31.6143 107.145 31.3461 106.711 30.8701C106.215 30.3101 105.967 29.2699 105.967 27.75C105.967 26.3101 106.185 25.3064 106.621 24.7383L106.711 24.6299C107.207 24.0701 108.111 23.79 109.423 23.79C110.751 23.79 111.655 24.0701 112.135 24.6299C112.615 25.1738 112.855 26.2142 112.855 27.75Z" fill="black"/>
</g>
<g filter="url(#filter18_d_352_9)">
<path d="M71.6662 43.251C71.6959 43.5731 71.8295 43.8462 72.0676 44.0703L76.8674 48.8701C77.1393 49.1421 77.4594 49.2783 77.8273 49.2783H87.2599L87.4006 49.2715C87.7225 49.2417 87.9959 49.1081 88.2199 48.8701L93.0197 44.0703C93.2577 43.8463 93.3914 43.5731 93.4211 43.251L93.4279 43.1104V23.4307C93.4279 23.1086 93.3237 22.8227 93.1154 22.5742L93.0197 22.4707L88.2199 17.6699C87.9959 17.4459 87.7225 17.32 87.4006 17.292L87.2599 17.2861V12.2861C88.7794 12.2862 90.298 12.808 91.5158 13.9072L91.7551 14.1348L96.5549 18.9346C97.7172 20.0969 98.4279 21.6711 98.4279 23.4307V43.1104C98.4279 44.7808 97.7885 46.385 96.5529 47.6035L96.5549 47.6055L91.7551 52.4062L91.7531 52.4043C90.5347 53.6398 88.9302 54.2782 87.2599 54.2783H77.8273C76.068 54.2783 74.4945 53.5684 73.3322 52.4062L68.5324 47.6055V47.6045C67.297 46.386 66.6594 44.7806 66.6594 43.1104V23.6699H67.2307C67.6307 23.6699 67.8303 23.4703 67.8303 23.0703V19.7666C68.0406 19.4711 68.2749 19.1921 68.5324 18.9346L73.3859 14.0811L73.4406 14.0293C74.6246 12.915 76.1646 12.2862 77.8273 12.2861V17.2861C77.4595 17.2862 77.1393 17.414 76.8674 17.6699L72.0676 22.4707C71.7957 22.7427 71.6594 23.0627 71.6594 23.4307V43.1104L71.6662 43.251ZM85.4357 41.5264L85.4318 41.6895C85.3924 42.4765 85.0575 42.8699 84.4279 42.8701H80.6594C80.0445 42.8701 79.7174 42.4767 79.6789 41.6895L79.676 41.5264V25.0381C79.676 24.1263 80.0035 23.67 80.6594 23.6699H84.4279C85.0996 23.6701 85.4357 24.1264 85.4357 25.0381V41.5264ZM87.2599 12.2861V17.2861H77.8273V12.2861H87.2599Z" fill="black"/>
</g>
<g filter="url(#filter19_d_352_9)">
<path d="M50.2004 48.8193C50.238 49.0817 50.388 49.2312 50.6506 49.2686L50.7912 49.2783H57.5832L57.7238 49.2686C57.9859 49.231 58.1355 49.0814 58.173 48.8193L58.1828 48.6787V38.0703H66.0305C66.3803 38.0703 66.5774 37.9173 66.6213 37.6113L66.631 37.4707V32.2861C66.631 31.9361 66.4775 31.739 66.1711 31.6953L66.0305 31.6865H58.1828V23.6699H67.2307C67.6307 23.6699 67.8303 23.4703 67.8303 23.0703V17.8867C67.8303 17.4867 67.6307 17.2861 67.2307 17.2861V12.2861C68.2013 12.2861 69.8477 12.5323 71.216 13.9004C72.5844 15.2688 72.8303 16.916 72.8303 17.8867V21.707L72.0676 22.4707C71.7957 22.7427 71.6594 23.0627 71.6594 23.4307V26.5547C71.5264 26.7244 71.3795 26.8922 71.216 27.0557C70.7583 27.5134 70.2686 27.8436 69.7844 28.083C69.8621 28.1524 69.9396 28.2246 70.0158 28.3008C71.3841 29.6691 71.631 31.3154 71.631 32.2861V37.4707C71.631 38.4415 71.384 40.0878 70.0158 41.4561C68.6475 42.8242 67.0011 43.0703 66.0305 43.0703H63.1828V48.6787C63.1827 49.6495 62.9367 51.2959 61.5685 52.6641C60.2004 54.0322 58.554 54.2782 57.5832 54.2783H50.7912C49.8205 54.2783 48.1733 54.0325 46.8049 52.6641C45.4367 51.2959 45.1907 49.6495 45.1906 48.6787V17.8867C45.1906 16.916 45.4365 15.2688 46.8049 13.9004C48.1733 12.532 49.8205 12.2861 50.7912 12.2861V17.2861L50.6506 17.2959C50.344 17.3395 50.1906 17.5366 50.1906 17.8867V48.6787L50.2004 48.8193ZM67.2307 12.2861V17.2861H50.7912V12.2861H67.2307Z" fill="black"/>
</g>
<g filter="url(#filter20_d_352_9)">
<path d="M24.0441 48.8193C24.0817 49.0817 24.2317 49.2312 24.4943 49.2686L24.6349 49.2783H31.4269L31.5676 49.2686C31.8296 49.231 31.9792 49.0814 32.0168 48.8193L32.0266 48.6787V23.6699H36.4426V48.6787C36.4427 49.0784 36.6425 49.2782 37.0422 49.2783H43.8342C44.184 49.2783 44.3811 49.1253 44.425 48.8193L44.4348 48.6787V23.4307C44.4348 23.1086 44.3306 22.8228 44.1223 22.5742L44.0266 22.4707L39.2267 17.6699C39.0027 17.4459 38.7294 17.32 38.4074 17.292L38.2668 17.2861V12.2861C39.8875 12.2862 41.507 12.8799 42.7619 14.1348L47.5617 18.9346C48.7241 20.0969 49.4348 21.6711 49.4348 23.4307V48.6787C49.4347 49.6495 49.1886 51.2959 47.8205 52.6641C46.4521 54.0325 44.8049 54.2783 43.8342 54.2783H37.0422C36.3392 54.2783 35.2829 54.1475 34.2336 53.5566C33.1848 54.1468 32.1296 54.2783 31.4269 54.2783H24.6349C23.6642 54.2783 22.017 54.0325 20.6486 52.6641C19.2805 51.2959 19.0344 49.6495 19.0344 48.6787V17.8867C19.0344 16.916 19.2802 15.2688 20.6486 13.9004C22.017 12.532 23.6642 12.2861 24.6349 12.2861V17.2861L24.4943 17.2959C24.1878 17.3395 24.0344 17.5366 24.0344 17.8867V48.6787L24.0441 48.8193ZM38.2668 12.2861V17.2861H24.6349V12.2861H38.2668Z" fill="black"/>
</g>
<g filter="url(#filter21_d_352_9)">
<path d="M10.3098 48.8193C10.3474 49.0817 10.4973 49.2312 10.7599 49.2686L10.9006 49.2783H17.6926L17.8332 49.2686C18.0952 49.231 18.2448 49.0814 18.2824 48.8193L18.2922 48.6787V17.8867C18.2922 17.5369 18.1391 17.3398 17.8332 17.2959L17.6926 17.2861V12.2861C18.6633 12.2862 20.3097 12.5323 21.6779 13.9004C23.0463 15.2688 23.2922 16.916 23.2922 17.8867V48.6787C23.2921 49.6495 23.0461 51.2959 21.6779 52.6641C20.3097 54.0322 18.6634 54.2782 17.6926 54.2783H10.9006C9.92985 54.2783 8.28264 54.0325 6.91425 52.6641C5.54608 51.2959 5.30005 49.6495 5.29999 48.6787V17.8867C5.29999 16.916 5.54585 15.2688 6.91425 13.9004C8.28264 12.532 9.92986 12.2861 10.9006 12.2861V17.2861L10.7599 17.2959C10.4534 17.3395 10.3 17.5366 10.3 17.8867V48.6787L10.3098 48.8193ZM17.6926 12.2861V17.2861H10.9006V12.2861H17.6926Z" fill="black"/>
</g>
<defs>
<filter id="filter0_d_352_9" x="254.733" y="15.9861" width="25.36" height="42.5922" filterUnits="userSpaceOnUse" color-interpolation-filters="sRGB">
<feFlood flood-opacity="0" result="BackgroundImageFix"/>
<feColorMatrix in="SourceAlpha" type="matrix" values="0 0 0 0 0 0 0 0 0 0 0 0 0 0 0 0 0 0 127 0" result="hardAlpha"/>
<feOffset dy="4"/>
<feGaussianBlur stdDeviation="2.65"/>
<feComposite in2="hardAlpha" operator="out"/>
<feColorMatrix type="matrix" values="0 0 0 0 0 0 0 0 0 0 0 0 0 0 0 0 0 0 0.25 0"/>
<feBlend mode="normal" in2="BackgroundImageFix" result="effect1_dropShadow_352_9"/>
<feBlend mode="normal" in="SourceGraphic" in2="effect1_dropShadow_352_9" result="shape"/>
</filter>
<filter id="filter1_d_352_9" x="231.781" y="15.9861" width="28.528" height="42.5922" filterUnits="userSpaceOnUse" color-interpolation-filters="sRGB">
<feFlood flood-opacity="0" result="BackgroundImageFix"/>
<feColorMatrix in="SourceAlpha" type="matrix" values="0 0 0 0 0 0 0 0 0 0 0 0 0 0 0 0 0 0 127 0" result="hardAlpha"/>
<feOffset dy="4"/>
<feGaussianBlur stdDeviation="2.65"/>
<feComposite in2="hardAlpha" operator="out"/>
<feColorMatrix type="matrix" values="0 0 0 0 0 0 0 0 0 0 0 0 0 0 0 0 0 0 0.25 0"/>
<feBlend mode="normal" in2="BackgroundImageFix" result="effect1_dropShadow_352_9"/>
<feBlend mode="normal" in="SourceGraphic" in2="effect1_dropShadow_352_9" result="shape"/>
</filter>
<filter id="filter2_d_352_9" x="204.266" y="9.98613" width="32.3679" height="48.5922" filterUnits="userSpaceOnUse" color-interpolation-filters="sRGB">
<feFlood flood-opacity="0" result="BackgroundImageFix"/>
<feColorMatrix in="SourceAlpha" type="matrix" values="0 0 0 0 0 0 0 0 0 0 0 0 0 0 0 0 0 0 127 0" result="hardAlpha"/>
<feOffset dy="4"/>
<feGaussianBlur stdDeviation="2.65"/>
<feComposite in2="hardAlpha" operator="out"/>
<feColorMatrix type="matrix" values="0 0 0 0 0 0 0 0 0 0 0 0 0 0 0 0 0 0 0.25 0"/>
<feBlend mode="normal" in2="BackgroundImageFix" result="effect1_dropShadow_352_9"/>
<feBlend mode="normal" in="SourceGraphic" in2="effect1_dropShadow_352_9" result="shape"/>
</filter>
<filter id="filter3_d_352_9" x="183.848" y="15.9861" width="26.368" height="50.3441" filterUnits="userSpaceOnUse" color-interpolation-filters="sRGB">
<feFlood flood-opacity="0" result="BackgroundImageFix"/>
<feColorMatrix in="SourceAlpha" type="matrix" values="0 0 0 0 0 0 0 0 0 0 0 0 0 0 0 0 0 0 127 0" result="hardAlpha"/>
<feOffset dy="4"/>
<feGaussianBlur stdDeviation="2.65"/>
<feComposite in2="hardAlpha" operator="out"/>
<feColorMatrix type="matrix" values="0 0 0 0 0 0 0 0 0 0 0 0 0 0 0 0 0 0 0.25 0"/>
<feBlend mode="normal" in2="BackgroundImageFix" result="effect1_dropShadow_352_9"/>
<feBlend mode="normal" in="SourceGraphic" in2="effect1_dropShadow_352_9" result="shape"/>
</filter>
<filter id="filter4_d_352_9" x="157.035" y="15.9861" width="31.96" height="42.5922" filterUnits="userSpaceOnUse" color-interpolation-filters="sRGB">
<feFlood flood-opacity="0" result="BackgroundImageFix"/>
<feColorMatrix in="SourceAlpha" type="matrix" values="0 0 0 0 0 0 0 0 0 0 0 0 0 0 0 0 0 0 127 0" result="hardAlpha"/>
<feOffset dy="4"/>
<feGaussianBlur stdDeviation="2.65"/>
<feComposite in2="hardAlpha" operator="out"/>
<feColorMatrix type="matrix" values="0 0 0 0 0 0 0 0 0 0 0 0 0 0 0 0 0 0 0.25 0"/>
<feBlend mode="normal" in2="BackgroundImageFix" result="effect1_dropShadow_352_9"/>
<feBlend mode="normal" in="SourceGraphic" in2="effect1_dropShadow_352_9" result="shape"/>
</filter>
<filter id="filter5_d_352_9" x="118.625" y="15.9861" width="43.408" height="42.5922" filterUnits="userSpaceOnUse" color-interpolation-filters="sRGB">
<feFlood flood-opacity="0" result="BackgroundImageFix"/>
<feColorMatrix in="SourceAlpha" type="matrix" values="0 0 0 0 0 0 0 0 0 0 0 0 0 0 0 0 0 0 127 0" result="hardAlpha"/>
<feOffset dy="4"/>
<feGaussianBlur stdDeviation="2.65"/>
<feComposite in2="hardAlpha" operator="out"/>
<feColorMatrix type="matrix" values="0 0 0 0 0 0 0 0 0 0 0 0 0 0 0 0 0 0 0.25 0"/>
<feBlend mode="normal" in2="BackgroundImageFix" result="effect1_dropShadow_352_9"/>
<feBlend mode="normal" in="SourceGraphic" in2="effect1_dropShadow_352_9" result="shape"/>
</filter>
<filter id="filter6_d_352_9" x="93.8751" y="15.9861" width="31.528" height="42.5922" filterUnits="userSpaceOnUse" color-interpolation-filters="sRGB">
<feFlood flood-opacity="0" result="BackgroundImageFix"/>
<feColorMatrix in="SourceAlpha" type="matrix" values="0 0 0 0 0 0 0 0 0 0 0 0 0 0 0 0 0 0 127 0" result="hardAlpha"/>
<feOffset dy="4"/>
<feGaussianBlur stdDeviation="2.65"/>
<feComposite in2="hardAlpha" operator="out"/>
<feColorMatrix type="matrix" values="0 0 0 0 0 0 0 0 0 0 0 0 0 0 0 0 0 0 0.25 0"/>
<feBlend mode="normal" in2="BackgroundImageFix" result="effect1_dropShadow_352_9"/>
<feBlend mode="normal" in="SourceGraphic" in2="effect1_dropShadow_352_9" result="shape"/>
</filter>
<filter id="filter7_d_352_9" x="66.3595" y="15.9861" width="32.368" height="42.5922" filterUnits="userSpaceOnUse" color-interpolation-filters="sRGB">
<feFlood flood-opacity="0" result="BackgroundImageFix"/>
<feColorMatrix in="SourceAlpha" type="matrix" values="0 0 0 0 0 0 0 0 0 0 0 0 0 0 0 0 0 0 127 0" result="hardAlpha"/>
<feOffset dy="4"/>
<feGaussianBlur stdDeviation="2.65"/>
<feComposite in2="hardAlpha" operator="out"/>
<feColorMatrix type="matrix" values="0 0 0 0 0 0 0 0 0 0 0 0 0 0 0 0 0 0 0.25 0"/>
<feBlend mode="normal" in2="BackgroundImageFix" result="effect1_dropShadow_352_9"/>
<feBlend mode="normal" in="SourceGraphic" in2="effect1_dropShadow_352_9" result="shape"/>
</filter>
<filter id="filter8_d_352_9" x="44.8907" y="15.9861" width="28.24" height="42.5922" filterUnits="userSpaceOnUse" color-interpolation-filters="sRGB">
<feFlood flood-opacity="0" result="BackgroundImageFix"/>
<feColorMatrix in="SourceAlpha" type="matrix" values="0 0 0 0 0 0 0 0 0 0 0 0 0 0 0 0 0 0 127 0" result="hardAlpha"/>
<feOffset dy="4"/>
<feGaussianBlur stdDeviation="2.65"/>
<feComposite in2="hardAlpha" operator="out"/>
<feColorMatrix type="matrix" values="0 0 0 0 0 0 0 0 0 0 0 0 0 0 0 0 0 0 0.25 0"/>
<feBlend mode="normal" in2="BackgroundImageFix" result="effect1_dropShadow_352_9"/>
<feBlend mode="normal" in="SourceGraphic" in2="effect1_dropShadow_352_9" result="shape"/>
</filter>
<filter id="filter9_d_352_9" x="18.7345" y="15.9861" width="31" height="42.5922" filterUnits="userSpaceOnUse" color-interpolation-filters="sRGB">
<feFlood flood-opacity="0" result="BackgroundImageFix"/>
<feColorMatrix in="SourceAlpha" type="matrix" values="0 0 0 0 0 0 0 0 0 0 0 0 0 0 0 0 0 0 127 0" result="hardAlpha"/>
<feOffset dy="4"/>
<feGaussianBlur stdDeviation="2.65"/>
<feComposite in2="hardAlpha" operator="out"/>
<feColorMatrix type="matrix" values="0 0 0 0 0 0 0 0 0 0 0 0 0 0 0 0 0 0 0.25 0"/>
<feBlend mode="normal" in2="BackgroundImageFix" result="effect1_dropShadow_352_9"/>
<feBlend mode="normal" in="SourceGraphic" in2="effect1_dropShadow_352_9" result="shape"/>
</filter>
<filter id="filter10_d_352_9" x="5.00011" y="15.9861" width="18.592" height="42.5922" filterUnits="userSpaceOnUse" color-interpolation-filters="sRGB">
<feFlood flood-opacity="0" result="BackgroundImageFix"/>
<feColorMatrix in="SourceAlpha" type="matrix" values="0 0 0 0 0 0 0 0 0 0 0 0 0 0 0 0 0 0 127 0" result="hardAlpha"/>
<feOffset dy="4"/>
<feGaussianBlur stdDeviation="2.65"/>
<feComposite in2="hardAlpha" operator="out"/>
<feColorMatrix type="matrix" values="0 0 0 0 0 0 0 0 0 0 0 0 0 0 0 0 0 0 0.25 0"/>
<feBlend mode="normal" in2="BackgroundImageFix" result="effect1_dropShadow_352_9"/>
<feBlend mode="normal" in="SourceGraphic" in2="effect1_dropShadow_352_9" result="shape"/>
</filter>
<filter id="filter11_d_352_9" x="249.733" y="10.9861" width="35.3598" height="52.5922" filterUnits="userSpaceOnUse" color-interpolation-filters="sRGB">
<feFlood flood-opacity="0" result="BackgroundImageFix"/>
<feColorMatrix in="SourceAlpha" type="matrix" values="0 0 0 0 0 0 0 0 0 0 0 0 0 0 0 0 0 0 127 0" result="hardAlpha"/>
<feOffset dy="4"/>
<feGaussianBlur stdDeviation="2.65"/>
<feComposite in2="hardAlpha" operator="out"/>
<feColorMatrix type="matrix" values="0 0 0 0 0 0 0 0 0 0 0 0 0 0 0 0 0 0 0.25 0"/>
<feBlend mode="normal" in2="BackgroundImageFix" result="effect1_dropShadow_352_9"/>
<feBlend mode="normal" in="SourceGraphic" in2="effect1_dropShadow_352_9" result="shape"/>
</filter>
<filter id="filter12_d_352_9" x="226.781" y="10.9861" width="38.5277" height="52.5922" filterUnits="userSpaceOnUse" color-interpolation-filters="sRGB">
<feFlood flood-opacity="0" result="BackgroundImageFix"/>
<feColorMatrix in="SourceAlpha" type="matrix" values="0 0 0 0 0 0 0 0 0 0 0 0 0 0 0 0 0 0 127 0" result="hardAlpha"/>
<feOffset dy="4"/>
<feGaussianBlur stdDeviation="2.65"/>
<feComposite in2="hardAlpha" operator="out"/>
<feColorMatrix type="matrix" values="0 0 0 0 0 0 0 0 0 0 0 0 0 0 0 0 0 0 0.25 0"/>
<feBlend mode="normal" in2="BackgroundImageFix" result="effect1_dropShadow_352_9"/>
<feBlend mode="normal" in="SourceGraphic" in2="effect1_dropShadow_352_9" result="shape"/>
</filter>
<filter id="filter13_d_352_9" x="199.266" y="-0.000195503" width="42.3686" height="63.5785" filterUnits="userSpaceOnUse" color-interpolation-filters="sRGB">
<feFlood flood-opacity="0" result="BackgroundImageFix"/>
<feColorMatrix in="SourceAlpha" type="matrix" values="0 0 0 0 0 0 0 0 0 0 0 0 0 0 0 0 0 0 127 0" result="hardAlpha"/>
<feOffset dy="4"/>
<feGaussianBlur stdDeviation="2.65"/>
<feComposite in2="hardAlpha" operator="out"/>
<feColorMatrix type="matrix" values="0 0 0 0 0 0 0 0 0 0 0 0 0 0 0 0 0 0 0.25 0"/>
<feBlend mode="normal" in2="BackgroundImageFix" result="effect1_dropShadow_352_9"/>
<feBlend mode="normal" in="SourceGraphic" in2="effect1_dropShadow_352_9" result="shape"/>
</filter>
<filter id="filter14_d_352_9" x="178.848" y="10.9861" width="38.1703" height="60.3441" filterUnits="userSpaceOnUse" color-interpolation-filters="sRGB">
<feFlood flood-opacity="0" result="BackgroundImageFix"/>
<feColorMatrix in="SourceAlpha" type="matrix" values="0 0 0 0 0 0 0 0 0 0 0 0 0 0 0 0 0 0 127 0" result="hardAlpha"/>
<feOffset dy="4"/>
<feGaussianBlur stdDeviation="2.65"/>
<feComposite in2="hardAlpha" operator="out"/>
<feColorMatrix type="matrix" values="0 0 0 0 0 0 0 0 0 0 0 0 0 0 0 0 0 0 0.25 0"/>
<feBlend mode="normal" in2="BackgroundImageFix" result="effect1_dropShadow_352_9"/>
<feBlend mode="normal" in="SourceGraphic" in2="effect1_dropShadow_352_9" result="shape"/>
</filter>
<filter id="filter15_d_352_9" x="152.035" y="10.9861" width="41.9604" height="52.5922" filterUnits="userSpaceOnUse" color-interpolation-filters="sRGB">
<feFlood flood-opacity="0" result="BackgroundImageFix"/>
<feColorMatrix in="SourceAlpha" type="matrix" values="0 0 0 0 0 0 0 0 0 0 0 0 0 0 0 0 0 0 127 0" result="hardAlpha"/>
<feOffset dy="4"/>
<feGaussianBlur stdDeviation="2.65"/>
<feComposite in2="hardAlpha" operator="out"/>
<feColorMatrix type="matrix" values="0 0 0 0 0 0 0 0 0 0 0 0 0 0 0 0 0 0 0.25 0"/>
<feBlend mode="normal" in2="BackgroundImageFix" result="effect1_dropShadow_352_9"/>
<feBlend mode="normal" in="SourceGraphic" in2="effect1_dropShadow_352_9" result="shape"/>
</filter>
<filter id="filter16_d_352_9" x="113.625" y="10.9861" width="53.4086" height="52.5922" filterUnits="userSpaceOnUse" color-interpolation-filters="sRGB">
<feFlood flood-opacity="0" result="BackgroundImageFix"/>
<feColorMatrix in="SourceAlpha" type="matrix" values="0 0 0 0 0 0 0 0 0 0 0 0 0 0 0 0 0 0 127 0" result="hardAlpha"/>
<feOffset dy="4"/>
<feGaussianBlur stdDeviation="2.65"/>
<feComposite in2="hardAlpha" operator="out"/>
<feColorMatrix type="matrix" values="0 0 0 0 0 0 0 0 0 0 0 0 0 0 0 0 0 0 0.25 0"/>
<feBlend mode="normal" in2="BackgroundImageFix" result="effect1_dropShadow_352_9"/>
<feBlend mode="normal" in="SourceGraphic" in2="effect1_dropShadow_352_9" result="shape"/>
</filter>
<filter id="filter17_d_352_9" x="88.875" y="10.9861" width="41.4975" height="52.5922" filterUnits="userSpaceOnUse" color-interpolation-filters="sRGB">
<feFlood flood-opacity="0" result="BackgroundImageFix"/>
<feColorMatrix in="SourceAlpha" type="matrix" values="0 0 0 0 0 0 0 0 0 0 0 0 0 0 0 0 0 0 127 0" result="hardAlpha"/>
<feOffset dy="4"/>
<feGaussianBlur stdDeviation="2.65"/>
<feComposite in2="hardAlpha" operator="out"/>
<feColorMatrix type="matrix" values="0 0 0 0 0 0 0 0 0 0 0 0 0 0 0 0 0 0 0.25 0"/>
<feBlend mode="normal" in2="BackgroundImageFix" result="effect1_dropShadow_352_9"/>
<feBlend mode="normal" in="SourceGraphic" in2="effect1_dropShadow_352_9" result="shape"/>
</filter>
<filter id="filter18_d_352_9" x="61.3594" y="10.9861" width="42.3686" height="52.5922" filterUnits="userSpaceOnUse" color-interpolation-filters="sRGB">
<feFlood flood-opacity="0" result="BackgroundImageFix"/>
<feColorMatrix in="SourceAlpha" type="matrix" values="0 0 0 0 0 0 0 0 0 0 0 0 0 0 0 0 0 0 127 0" result="hardAlpha"/>
<feOffset dy="4"/>
<feGaussianBlur stdDeviation="2.65"/>
<feComposite in2="hardAlpha" operator="out"/>
<feColorMatrix type="matrix" values="0 0 0 0 0 0 0 0 0 0 0 0 0 0 0 0 0 0 0.25 0"/>
<feBlend mode="normal" in2="BackgroundImageFix" result="effect1_dropShadow_352_9"/>
<feBlend mode="normal" in="SourceGraphic" in2="effect1_dropShadow_352_9" result="shape"/>
</filter>
<filter id="filter19_d_352_9" x="39.8906" y="10.9861" width="38.2396" height="52.5922" filterUnits="userSpaceOnUse" color-interpolation-filters="sRGB">
<feFlood flood-opacity="0" result="BackgroundImageFix"/>
<feColorMatrix in="SourceAlpha" type="matrix" values="0 0 0 0 0 0 0 0 0 0 0 0 0 0 0 0 0 0 127 0" result="hardAlpha"/>
<feOffset dy="4"/>
<feGaussianBlur stdDeviation="2.65"/>
<feComposite in2="hardAlpha" operator="out"/>
<feColorMatrix type="matrix" values="0 0 0 0 0 0 0 0 0 0 0 0 0 0 0 0 0 0 0.25 0"/>
<feBlend mode="normal" in2="BackgroundImageFix" result="effect1_dropShadow_352_9"/>
<feBlend mode="normal" in="SourceGraphic" in2="effect1_dropShadow_352_9" result="shape"/>
</filter>
<filter id="filter20_d_352_9" x="13.7344" y="10.9861" width="41.0004" height="52.5922" filterUnits="userSpaceOnUse" color-interpolation-filters="sRGB">
<feFlood flood-opacity="0" result="BackgroundImageFix"/>
<feColorMatrix in="SourceAlpha" type="matrix" values="0 0 0 0 0 0 0 0 0 0 0 0 0 0 0 0 0 0 127 0" result="hardAlpha"/>
<feOffset dy="4"/>
<feGaussianBlur stdDeviation="2.65"/>
<feComposite in2="hardAlpha" operator="out"/>
<feColorMatrix type="matrix" values="0 0 0 0 0 0 0 0 0 0 0 0 0 0 0 0 0 0 0.25 0"/>
<feBlend mode="normal" in2="BackgroundImageFix" result="effect1_dropShadow_352_9"/>
<feBlend mode="normal" in="SourceGraphic" in2="effect1_dropShadow_352_9" result="shape"/>
</filter>
<filter id="filter21_d_352_9" x="-1.23978e-05" y="10.9861" width="28.5922" height="52.5922" filterUnits="userSpaceOnUse" color-interpolation-filters="sRGB">
<feFlood flood-opacity="0" result="BackgroundImageFix"/>
<feColorMatrix in="SourceAlpha" type="matrix" values="0 0 0 0 0 0 0 0 0 0 0 0 0 0 0 0 0 0 127 0" result="hardAlpha"/>
<feOffset dy="4"/>
<feGaussianBlur stdDeviation="2.65"/>
<feComposite in2="hardAlpha" operator="out"/>
<feColorMatrix type="matrix" values="0 0 0 0 0 0 0 0 0 0 0 0 0 0 0 0 0 0 0.25 0"/>
<feBlend mode="normal" in2="BackgroundImageFix" result="effect1_dropShadow_352_9"/>
<feBlend mode="normal" in="SourceGraphic" in2="effect1_dropShadow_352_9" result="shape"/>
</filter>
</defs>
</svg>
