<svg width="68" height="24" viewBox="0 0 68 24" fill="none" xmlns="http://www.w3.org/2000/svg">
<path d="M56.5016 22.328C56.2349 22.328 56.1016 22.1947 56.1016 21.928V18.456C56.1016 18.3173 56.1069 18.2053 56.1176 18.12C56.1389 18.0347 56.2029 17.9653 56.3096 17.912L60.2616 15.992V13.768L56.3736 11.464C56.1922 11.3573 56.1016 11.1973 56.1016 10.984V4.696C56.1016 4.52533 56.1122 4.40267 56.1336 4.328C56.1549 4.24267 56.2349 4.152 56.3736 4.056L60.5816 1.208C60.6776 1.144 60.7736 1.096 60.8696 1.064C60.9656 1.02133 61.0829 1 61.2216 1H65.9576C66.2242 1 66.3576 1.13333 66.3576 1.4V4.744C66.3576 4.97867 66.2776 5.13867 66.1176 5.224L61.9256 6.984V9.288L66.1176 11.688C66.2776 11.7627 66.3576 11.9333 66.3576 12.2V19.16C66.3576 19.2453 66.3416 19.336 66.3096 19.432C66.2882 19.528 66.2349 19.5973 66.1496 19.64L61.1256 22.136C61.0616 22.168 60.9816 22.2107 60.8856 22.264C60.8002 22.3067 60.7149 22.328 60.6296 22.328H56.5016Z" fill="#DEDBDB"/>
<path d="M39.8375 22.328C39.5708 22.328 39.4375 22.1947 39.4375 21.928V1.4C39.4375 1.13333 39.5708 1 39.8375 1H49.2615C49.5068 1 49.7202 1.08533 49.9015 1.256L53.1015 4.456C53.2722 4.63733 53.3575 4.85067 53.3575 5.096V21.928C53.3575 22.1947 53.2242 22.328 52.9575 22.328H48.0295C47.7628 22.328 47.6295 22.1947 47.6295 21.928V5.928H45.1815V21.928C45.1815 22.1947 45.0482 22.328 44.7815 22.328H39.8375Z" fill="#DEDBDB"/>
<path d="M24.8375 22.328C24.5708 22.328 24.4375 22.1947 24.4375 21.928V1.4C24.4375 1.13333 24.5708 1 24.8375 1H35.9735C36.2402 1 36.3735 1.13333 36.3735 1.4V5.528C36.3735 5.79467 36.2402 5.928 35.9735 5.928H30.1815V9.464H35.6055C35.8722 9.464 36.0055 9.59733 36.0055 9.864V13.464C36.0055 13.7307 35.8722 13.864 35.6055 13.864H30.1815V17.4H35.9735C36.2402 17.4 36.3735 17.5333 36.3735 17.8V21.928C36.3735 22.1947 36.2402 22.328 35.9735 22.328H24.8375Z" fill="#DEDBDB"/>
<path d="M13.1085 22.328C12.8418 22.328 12.7085 22.1947 12.7085 21.928V5.928H10.2125C9.94583 5.928 9.8125 5.79467 9.8125 5.528V1.4C9.8125 1.13333 9.94583 1 10.2125 1H20.9805C21.2472 1 21.3805 1.13333 21.3805 1.4V5.528C21.3805 5.79467 21.2472 5.928 20.9805 5.928H18.4685V21.928C18.4685 22.1947 18.3352 22.328 18.0685 22.328H13.1085Z" fill="#DEDBDB"/>
<path d="M1.4 22.328C1.13333 22.328 1 22.1947 1 21.928V1.4C1 1.13333 1.13333 1 1.4 1H6.344C6.61067 1 6.744 1.13333 6.744 1.4V21.928C6.744 22.1947 6.61067 22.328 6.344 22.328H1.4Z" fill="#DEDBDB"/>
<path d="M66.3574 19.1602V12.2002C66.3574 11.9335 66.2772 11.7631 66.1172 11.6885L61.9258 9.28809V6.98438L66.1172 5.22461C66.2571 5.15001 66.3359 5.01784 66.3535 4.8291L66.3574 4.74414V1.40039C66.3574 1.13372 66.2237 1 65.957 1V0C66.2445 0 66.6445 0.0722613 66.9648 0.392578C67.2852 0.712924 67.3574 1.11291 67.3574 1.40039V4.74414C67.3574 5.22122 67.1722 5.79479 66.5879 6.10645L66.5469 6.12793L66.5049 6.14648L62.9258 7.64844V8.70801L66.6143 10.8203H66.6133C67.2271 11.1493 67.3574 11.7847 67.3574 12.2002V19.1602C67.3574 19.3707 67.3176 19.5686 67.2578 19.748C67.156 20.0842 66.9284 20.3682 66.5967 20.5342L66.5947 20.5361L61.5703 23.0312C61.5243 23.0543 61.459 23.0898 61.3711 23.1387L61.3516 23.1484L61.333 23.1582C61.1254 23.262 60.887 23.3281 60.6289 23.3281H56.501C56.2136 23.3281 55.8143 23.2557 55.4941 22.9355C55.1738 22.6152 55.1016 22.2152 55.1016 21.9277V18.4561C55.1016 18.2977 55.1071 18.1396 55.125 17.9961L55.1328 17.9365L55.1475 17.8779C55.2624 17.4182 55.5924 17.1525 55.8623 17.0176L55.8721 17.0127L59.2617 15.3652V14.3369L55.8633 12.3242V12.3232C55.3735 12.0336 55.1016 11.5445 55.1016 10.9844V4.69629C55.1016 4.52522 55.1095 4.29645 55.1641 4.08594H55.1631C55.1645 4.08045 55.1665 4.07477 55.168 4.06934C55.1694 4.06415 55.1704 4.05887 55.1719 4.05371H55.1729C55.295 3.61576 55.6289 3.35545 55.8037 3.23438L55.8125 3.22754L60.0205 0.379883L60.0264 0.375977C60.1861 0.269488 60.3617 0.178945 60.5527 0.115234V0.116211C60.782 0.0302449 61.0127 0 61.2217 0V1L61.1211 1.00391C61.0252 1.01192 60.9411 1.03248 60.8691 1.06445C60.7732 1.09645 60.677 1.14407 60.5811 1.20801L56.373 4.05566C56.2344 4.15163 56.1552 4.24282 56.1338 4.32812C56.1125 4.40279 56.1016 4.52562 56.1016 4.69629V10.9844C56.1016 11.1974 56.192 11.3572 56.373 11.4639L60.2617 13.7686V15.9922L56.3096 17.9121L56.2373 17.9551C56.1733 18.0011 56.1332 18.0561 56.1172 18.1201C56.1065 18.2054 56.1016 18.3174 56.1016 18.4561V21.9277C56.1016 22.1943 56.2346 22.328 56.501 22.3281H60.6289C60.6717 22.3281 60.715 22.3232 60.7578 22.3125L60.8857 22.2637C60.9815 22.2105 61.0611 22.1677 61.125 22.1357L66.1494 19.6396C66.2346 19.597 66.2883 19.5276 66.3096 19.4316C66.3255 19.3837 66.3377 19.3372 66.3457 19.292L66.3574 19.1602ZM65.957 0V1H61.2217V0H65.957Z" fill="black"/>
<path d="M47.6289 21.9277C47.6289 22.1944 47.7627 22.3281 48.0293 22.3281H52.957C53.1905 22.3281 53.3225 22.2259 53.3516 22.0215L53.3574 21.9277V5.0957C53.3573 4.8811 53.2918 4.69101 53.1611 4.52539L53.1016 4.45605L49.9014 1.25586C49.7426 1.10653 49.5593 1.02251 49.3516 1.00391L49.2617 1V0C49.703 7.52878e-05 50.1082 0.142314 50.4463 0.407227L50.5869 0.52832L50.5977 0.538086L53.8193 3.75977L53.8291 3.77051C54.1713 4.13414 54.3573 4.59158 54.3574 5.0957V21.9277C54.3574 22.2152 54.2852 22.6152 53.9648 22.9355C53.6445 23.2559 53.2445 23.3281 52.957 23.3281H48.0293C47.7419 23.3281 47.3427 23.2556 47.0225 22.9355C46.7021 22.6152 46.6289 22.2152 46.6289 21.9277V6.92773H46.1816V21.9277C46.1816 22.2152 46.1084 22.6152 45.7881 22.9355C45.4678 23.2556 45.0686 23.3281 44.7812 23.3281H39.8369C39.5495 23.328 39.1502 23.2557 38.8301 22.9355C38.5097 22.6152 38.4375 22.2152 38.4375 21.9277V1.40039C38.4375 1.11291 38.5097 0.712924 38.8301 0.392578C39.1502 0.0725088 39.5495 7.62277e-05 39.8369 0V1C39.5705 1.00015 39.4375 1.13388 39.4375 1.40039V21.9277C39.4375 22.1943 39.5705 22.328 39.8369 22.3281H44.7812C45.0147 22.3281 45.1457 22.2259 45.1748 22.0215L45.1816 21.9277V5.92773H47.6289V21.9277ZM49.2617 0V1H39.8369V0H49.2617Z" fill="black"/>
<path d="M24.4434 22.0215C24.4724 22.2258 24.6037 22.328 24.8369 22.3281H35.9736L36.0674 22.3223C36.2714 22.293 36.373 22.161 36.373 21.9277V17.7998C36.373 17.5668 36.2713 17.4355 36.0674 17.4062L35.9736 17.4004V16.4004C36.2611 16.4004 36.6602 16.4727 36.9805 16.793C37.3007 17.1132 37.373 17.5124 37.373 17.7998V21.9277C37.373 22.2152 37.3008 22.6152 36.9805 22.9355C36.6602 23.2557 36.261 23.3281 35.9736 23.3281H24.8369C24.5495 23.328 24.1502 23.2557 23.8301 22.9355C23.5097 22.6152 23.4375 22.2152 23.4375 21.9277V1.40039C23.4375 1.11291 23.5097 0.712924 23.8301 0.392578C24.1502 0.0725088 24.5495 7.62277e-05 24.8369 0V1C24.5705 1.00015 24.4375 1.13388 24.4375 1.40039V21.9277L24.4434 22.0215ZM36.0049 13.4639V9.86426C36.0049 9.63098 35.9033 9.49991 35.6992 9.4707L35.6055 9.46387V8.46387C35.8929 8.46388 36.292 8.53711 36.6123 8.85742C36.9326 9.17775 37.0049 9.57681 37.0049 9.86426V13.4639C37.0049 13.7513 36.9327 14.1513 36.6123 14.4717C36.292 14.7917 35.8928 14.8642 35.6055 14.8643H31.1816V16.4004H35.9736V17.4004H30.1816V13.8643H35.6055L35.6992 13.8574C35.9033 13.8282 36.0049 13.6971 36.0049 13.4639ZM36.373 5.52832V1.40039C36.373 1.16718 36.2713 1.0361 36.0674 1.00684L35.9736 1V0C36.261 4.45871e-05 36.6603 0.0725189 36.9805 0.392578C37.3008 0.712924 37.373 1.11291 37.373 1.40039V5.52832C37.373 5.81577 37.3007 6.21489 36.9805 6.53516C36.6602 6.8554 36.2611 6.92769 35.9736 6.92773H31.1816V8.46387H35.6055V9.46387H30.1816V5.92773H35.9736L36.0674 5.92188C36.2422 5.89682 36.3422 5.79687 36.3672 5.62207L36.373 5.52832ZM35.9736 0V1H24.8369V0H35.9736Z" fill="black"/>
<path d="M12.708 21.9277C12.708 22.1611 12.8104 22.2931 13.0146 22.3223L13.1084 22.3281H18.0684C18.3018 22.3281 18.4328 22.2259 18.4619 22.0215L18.4688 21.9277V5.92773H20.9805L21.0742 5.92188C21.2491 5.89686 21.349 5.79691 21.374 5.62207L21.3799 5.52832V1.40039C21.3799 1.16712 21.2783 1.03605 21.0742 1.00684L20.9805 1V0C21.2678 1.7e-05 21.667 0.0725276 21.9873 0.392578C22.3077 0.712924 22.3799 1.11291 22.3799 1.40039V5.52832C22.3798 5.81578 22.3076 6.21488 21.9873 6.53516C21.667 6.85542 21.2679 6.92772 20.9805 6.92773H19.4688V21.9277C19.4688 22.2152 19.3955 22.6152 19.0752 22.9355C18.7549 23.2556 18.3557 23.3281 18.0684 23.3281H13.1084C12.821 23.3281 12.4219 23.2556 12.1016 22.9355C11.7812 22.6152 11.708 22.2152 11.708 21.9277V6.92773H10.2119C9.92447 6.92766 9.52526 6.85533 9.20508 6.53516C8.88491 6.2149 8.81253 5.81575 8.8125 5.52832V1.40039C8.8125 1.11291 8.88473 0.712924 9.20508 0.392578C9.52523 0.0725088 9.92451 7.62277e-05 10.2119 0V1C9.94555 1.00015 9.8125 1.13388 9.8125 1.40039V5.52832C9.81257 5.7947 9.94562 5.92758 10.2119 5.92773H12.708V21.9277ZM20.9805 0V1H10.2119V0H20.9805Z" fill="black"/>
<path d="M1.00586 22.0215C1.03489 22.2258 1.1662 22.328 1.39941 22.3281H6.34375C6.57721 22.3281 6.70823 22.2259 6.7373 22.0215L6.74414 21.9277V1.40039C6.74414 1.13372 6.61042 1 6.34375 1V0C6.6311 0 7.03031 0.0725827 7.35059 0.392578C7.67093 0.712924 7.74414 1.11291 7.74414 1.40039V21.9277C7.74414 22.2152 7.67093 22.6152 7.35059 22.9355C7.0303 23.2556 6.63112 23.3281 6.34375 23.3281H1.39941C1.11199 23.328 0.712745 23.2557 0.392578 22.9355C0.0722317 22.6152 0 22.2152 0 21.9277V1.40039C0 1.11291 0.0722314 0.712924 0.392578 0.392578C0.712735 0.0725088 1.11201 7.62277e-05 1.39941 0V1C1.13305 1.00015 1 1.13388 1 1.40039V21.9277L1.00586 22.0215ZM6.34375 0V1H1.39941V0H6.34375Z" fill="black"/>
</svg>
