<svg width="142" height="53" viewBox="0 0 142 53" fill="none" xmlns="http://www.w3.org/2000/svg">
<g filter="url(#filter0_d_351_2)">
<path d="M116.971 38.2918C116.571 38.2918 116.371 38.0918 116.371 37.6918V28.3318L109.939 21.9238C109.827 21.7958 109.755 21.6838 109.723 21.5878C109.707 21.4758 109.699 21.3478 109.699 21.2038V6.8998C109.699 6.4998 109.899 6.2998 110.299 6.2998H117.091C117.491 6.2998 117.691 6.4998 117.691 6.8998V21.4198H123.067V6.8998C123.067 6.4998 123.267 6.2998 123.667 6.2998H130.459C130.859 6.2998 131.059 6.4998 131.059 6.8998V21.2038C131.059 21.3478 131.051 21.4758 131.035 21.5878C131.019 21.6838 130.947 21.7958 130.819 21.9238L124.411 28.3318V37.6918C124.411 38.0918 124.211 38.2918 123.811 38.2918H116.971Z" fill="#6890E7"/>
</g>
<g filter="url(#filter1_d_351_2)">
<path d="M84.192 38.2918C83.792 38.2918 83.592 38.0918 83.592 37.6918V6.8998C83.592 6.4998 83.792 6.2998 84.192 6.2998H98.64C99.008 6.2998 99.328 6.4278 99.6 6.68381L104.4 11.4838C104.656 11.7558 104.784 12.0758 104.784 12.4438V17.4838C104.784 17.6438 104.752 17.7718 104.688 17.8678C104.624 17.9638 104.528 18.0758 104.4 18.2038L100.632 21.5638L100.272 22.4518L100.632 23.0998L104.4 26.4598C104.528 26.5878 104.624 26.6998 104.688 26.7958C104.752 26.8758 104.784 27.0038 104.784 27.1798V32.1238C104.784 32.5078 104.656 32.8278 104.4 33.0838L99.6 37.8838C99.328 38.1558 99.008 38.2918 98.64 38.2918H84.192ZM93.744 32.8918C95.072 32.8918 95.9761 32.6278 96.4561 32.0998C96.9521 31.5718 97.2 30.5718 97.2 29.0998C97.2 27.6118 96.9521 26.6038 96.4561 26.0758C95.9761 25.5478 95.072 25.2838 93.744 25.2838C92.432 25.2838 91.528 25.5478 91.032 26.0758C90.552 26.6038 90.312 27.6118 90.312 29.0998C90.312 30.5718 90.552 31.5718 91.032 32.0998C91.528 32.6278 92.432 32.8918 93.744 32.8918ZM93.744 19.2838C95.072 19.2838 95.9761 19.0198 96.4561 18.4918C96.9521 17.9638 97.2 16.9638 97.2 15.4918C97.2 14.0198 96.9521 13.0198 96.4561 12.4918C95.9761 11.9638 95.072 11.6998 93.744 11.6998C92.432 11.6998 91.528 11.9638 91.032 12.4918C90.552 13.0198 90.312 14.0198 90.312 15.4918C90.312 16.9638 90.552 17.9638 91.032 18.4918C91.528 19.0198 92.432 19.2838 93.744 19.2838Z" fill="#6890E7"/>
</g>
<g filter="url(#filter2_d_351_2)">
<path d="M57.0045 38.2918C56.6045 38.2918 56.4045 38.0918 56.4045 37.6918V6.8998C56.4045 6.4998 56.6045 6.2998 57.0045 6.2998H71.4525C71.8205 6.2998 72.1405 6.4278 72.4125 6.68381L77.2126 11.4838C77.4686 11.7558 77.5965 12.0758 77.5965 12.4438V17.4838C77.5965 17.6438 77.5645 17.7718 77.5005 17.8678C77.4365 17.9638 77.3406 18.0758 77.2126 18.2038L73.4445 21.5638L73.0845 22.4518L73.4445 23.0998L77.2126 26.4598C77.3406 26.5878 77.4365 26.6998 77.5005 26.7958C77.5645 26.8758 77.5965 27.0038 77.5965 27.1798V32.1238C77.5965 32.5078 77.4686 32.8278 77.2126 33.0838L72.4125 37.8838C72.1405 38.1558 71.8205 38.2918 71.4525 38.2918H57.0045ZM66.5565 32.8918C67.8845 32.8918 68.7886 32.6278 69.2686 32.0998C69.7646 31.5718 70.0125 30.5718 70.0125 29.0998C70.0125 27.6118 69.7646 26.6038 69.2686 26.0758C68.7886 25.5478 67.8845 25.2838 66.5565 25.2838C65.2445 25.2838 64.3405 25.5478 63.8445 26.0758C63.3645 26.6038 63.1245 27.6118 63.1245 29.0998C63.1245 30.5718 63.3645 31.5718 63.8445 32.0998C64.3405 32.6278 65.2445 32.8918 66.5565 32.8918ZM66.5565 19.2838C67.8845 19.2838 68.7886 19.0198 69.2686 18.4918C69.7646 17.9638 70.0125 16.9638 70.0125 15.4918C70.0125 14.0198 69.7646 13.0198 69.2686 12.4918C68.7886 11.9638 67.8845 11.6998 66.5565 11.6998C65.2445 11.6998 64.3405 11.9638 63.8445 12.4918C63.3645 13.0198 63.1245 14.0198 63.1245 15.4918C63.1245 16.9638 63.3645 17.9638 63.8445 18.4918C64.3405 19.0198 65.2445 19.2838 66.5565 19.2838Z" fill="#6890E7"/>
</g>
<g filter="url(#filter3_d_351_2)">
<path d="M34.9368 38.2918C34.5688 38.2918 34.2488 38.1558 33.9768 37.8838L29.1768 33.0838C28.9048 32.8278 28.7688 32.5078 28.7688 32.1238V12.4438C28.7688 12.0758 28.9048 11.7558 29.1768 11.4838L33.9768 6.68381C34.2488 6.4278 34.5688 6.2998 34.9368 6.2998H44.3688C44.7528 6.2998 45.0728 6.4278 45.3288 6.68381L50.1288 11.4838C50.4008 11.7558 50.5368 12.0758 50.5368 12.4438V32.1238C50.5368 32.5078 50.4008 32.8278 50.1288 33.0838L45.3288 37.8838C45.0728 38.1558 44.7528 38.2918 44.3688 38.2918H34.9368ZM37.7688 31.8838H41.5368C42.2088 31.8838 42.5448 31.4358 42.5448 30.5398V14.0518C42.5448 13.1398 42.2088 12.6838 41.5368 12.6838H37.7688C37.1128 12.6838 36.7848 13.1398 36.7848 14.0518V30.5398C36.7848 31.4358 37.1128 31.8838 37.7688 31.8838Z" fill="#6890E7"/>
</g>
<g filter="url(#filter4_d_351_2)">
<path d="M10.9001 38.2918C10.5001 38.2918 10.3 38.0918 10.3 37.6918V6.8998C10.3 6.4998 10.5001 6.2998 10.9001 6.2998H17.692C18.092 6.2998 18.2921 6.4998 18.2921 6.8998V31.8838H24.3401C24.7401 31.8838 24.94 32.0838 24.94 32.4838V37.6918C24.94 38.0918 24.7401 38.2918 24.3401 38.2918H10.9001Z" fill="#6890E7"/>
</g>
<g filter="url(#filter5_d_351_2)">
<path d="M116.381 37.833C116.419 38.0954 116.569 38.2448 116.831 38.2822L116.972 38.292H123.812L123.952 38.2822C124.215 38.2447 124.365 38.0952 124.403 37.833L124.411 37.6924V28.332L130.82 21.9238C130.948 21.7959 131.019 21.6839 131.035 21.5879C131.043 21.532 131.05 21.4721 131.054 21.4082L131.06 21.2041V6.90039C131.06 6.50039 130.859 6.2998 130.459 6.2998V1.2998C131.43 1.2998 133.077 1.54566 134.446 2.91406C135.814 4.28245 136.06 5.92968 136.06 6.90039V21.2041C136.06 21.5242 136.043 21.8958 135.986 22.2949L135.977 22.3525L135.967 22.4102C135.686 24.0969 134.674 25.1411 134.355 25.46L129.411 30.4033V37.6924C129.411 38.6632 129.165 40.3095 127.797 41.6777C126.429 43.046 124.783 43.292 123.812 43.292H116.972C116.001 43.292 114.354 43.0461 112.986 41.6777C111.617 40.3095 111.371 38.6631 111.371 37.6924V30.4072L106.41 25.4658L106.289 25.3457L106.177 25.2168C105.885 24.8834 105.318 24.1823 104.98 23.1689L104.837 22.7412L104.774 22.2949C104.717 21.8958 104.699 21.5242 104.699 21.2041V17.8457C104.755 17.7524 104.784 17.6327 104.784 17.4844V12.4443C104.784 12.2727 104.755 12.1117 104.699 11.9609V6.90039C104.699 5.92967 104.945 4.28246 106.314 2.91406C107.682 1.54593 109.328 1.29988 110.299 1.2998V6.2998C109.899 6.29996 109.699 6.50055 109.699 6.90039V21.2041C109.699 21.348 109.708 21.4759 109.724 21.5879C109.756 21.6839 109.828 21.7958 109.94 21.9238L116.371 28.332V37.6924L116.381 37.833ZM123.667 6.2998C123.267 6.29991 123.068 6.50049 123.068 6.90039V21.4199H117.692V6.90039C117.692 6.50039 117.491 6.2998 117.091 6.2998V1.2998C117.901 1.2998 119.182 1.47338 120.379 2.32617C121.576 1.47317 122.857 1.29985 123.667 1.2998V6.2998ZM130.459 1.2998V6.2998H123.667V1.2998H130.459ZM117.091 1.2998V6.2998H110.299V1.2998H117.091Z" fill="black"/>
</g>
<g filter="url(#filter6_d_351_2)">
<path d="M104.784 32.124V27.1797C104.784 27.0038 104.752 26.8759 104.688 26.7959C104.624 26.6999 104.528 26.5879 104.4 26.46L100.632 23.0996L100.272 22.4521L100.632 21.5645L104.4 18.2041C104.463 18.1403 104.52 18.0803 104.568 18.0244L104.688 17.8682C104.736 17.7961 104.766 17.7058 104.778 17.5977L104.784 17.4844V12.4443C104.784 12.1223 104.686 11.8364 104.49 11.5879L104.4 11.4844L99.5999 6.68359C99.3279 6.42778 99.0078 6.2998 98.6399 6.2998V1.2998C100.303 1.2998 101.843 1.9287 103.027 3.04297L103.082 3.09473L107.99 8.00195L108.041 8.05762C108.92 8.99098 109.495 10.1457 109.699 11.4072V18.4863C109.589 19.1381 109.346 19.8945 108.848 20.6416C108.529 21.12 108.181 21.4938 107.936 21.7393L107.834 21.8408L107.282 22.332L107.834 22.8232L107.936 22.9248C108.147 23.1359 108.431 23.4441 108.71 23.8301C108.755 23.8903 108.798 23.9503 108.839 24.0107C108.842 24.0148 108.845 24.0184 108.848 24.0225C109.728 25.3261 109.784 26.6529 109.784 27.1797V32.124C109.784 33.7447 109.191 35.3642 107.936 36.6191L103.136 41.4199C101.974 42.5823 100.399 43.292 98.6399 43.292H84.1917C83.2209 43.2919 81.5745 43.0459 80.2063 41.6777C78.8381 40.3095 78.5921 38.6632 78.592 37.6924V6.90039C78.592 5.92967 78.8379 4.28246 80.2063 2.91406C81.5745 1.54593 83.2209 1.29987 84.1917 1.2998V6.2998C83.7919 6.29993 83.592 6.50052 83.592 6.90039V37.6924C83.5922 38.092 83.792 38.2919 84.1917 38.292H98.6399C99.0079 38.292 99.3279 38.1558 99.5999 37.8838L104.4 33.084C104.624 32.8599 104.75 32.5868 104.778 32.2646L104.784 32.124ZM94.2375 29.0879L93.7444 28.623V29.5518L94.2375 29.0879ZM93.7444 29.6338V30.1758C93.7461 30.1766 93.7476 30.1779 93.7493 30.1787C93.854 30.1306 93.9794 30.0645 94.1165 29.9736L93.7444 29.6338ZM93.3743 29.9697C93.5124 30.0608 93.6388 30.1273 93.7444 30.1758V29.6338L93.3743 29.9697ZM94.2903 29.1367L93.7444 29.6338L94.1165 29.9736C94.2903 29.8583 94.4831 29.7044 94.676 29.499L94.2903 29.1367ZM94.7317 29.4395C94.8426 29.3174 94.9317 29.1972 95.0071 29.0879C94.9318 28.9786 94.8426 28.8583 94.7317 28.7363L94.345 29.0879L94.7317 29.4395ZM93.7444 28.623L93.3303 28.2344C93.1602 28.3507 92.9742 28.5032 92.7883 28.7021C92.6636 28.8376 92.5623 28.9682 92.4817 29.0879C92.5617 29.2066 92.663 29.3354 92.7864 29.4697C92.973 29.6701 93.1595 29.8235 93.3303 29.9404L93.7444 29.5518V28.623ZM93.7444 27.999C93.6388 28.0474 93.5124 28.1141 93.3743 28.2051L93.7444 28.541V27.999ZM94.2249 15.4912L93.7444 15.0391V15.9434L94.2249 15.4912ZM94.2776 15.541L93.7444 16.0264V16.5918C93.7461 16.5926 93.7476 16.5939 93.7493 16.5947C93.9868 16.4856 94.3311 16.2822 94.676 15.915L94.2776 15.541ZM93.3586 16.376C93.5028 16.4723 93.6349 16.5415 93.7444 16.5918V16.0264L93.3586 16.376ZM93.7444 15.0391L93.3157 14.6367C93.1479 14.7529 92.9657 14.9045 92.7834 15.1006C92.6573 15.2383 92.5546 15.3702 92.4739 15.4912C92.5552 15.6133 92.6587 15.7467 92.7864 15.8857C92.9676 16.0802 93.1489 16.2301 93.3157 16.3457L93.7444 15.9434V15.0391ZM93.7444 14.3906C93.6348 14.4409 93.5021 14.51 93.3577 14.6064L93.7444 14.957V14.3906ZM98.6399 1.2998V6.2998H84.1917V1.2998H98.6399ZM97.1887 29.6299C97.1345 30.8143 96.8901 31.6375 96.4563 32.0996L96.3606 32.1963C95.8609 32.66 94.9888 32.8916 93.7444 32.8916L93.2708 32.8799C92.2122 32.8221 91.4664 32.5615 91.0325 32.0996C90.5525 31.5716 90.3118 30.5716 90.3118 29.0996C90.3118 27.6118 90.5525 26.6041 91.0325 26.0762C91.5285 25.5483 92.4325 25.2842 93.7444 25.2842L94.2219 25.2959C95.2913 25.3536 96.0363 25.6141 96.4563 26.0762L94.1594 28.2324C94.0054 28.1263 93.865 28.0502 93.7493 27.9971C93.7477 27.9978 93.746 27.9983 93.7444 27.999V28.541L94.2903 29.0381L94.676 28.6768C94.4991 28.4884 94.3216 28.3442 94.1594 28.2324L96.4563 26.0762C96.9521 26.6042 97.2004 27.612 97.2004 29.0996L97.1887 29.6299ZM94.3323 15.4922L94.7317 15.8555C94.847 15.7287 94.939 15.6041 95.0159 15.4912C94.9391 15.3786 94.8466 15.2553 94.7317 15.1289L94.3323 15.4922ZM97.1887 16.0215C97.1345 17.2064 96.8903 18.0301 96.4563 18.4922L96.3606 18.5879C95.8609 19.0518 94.989 19.2841 93.7444 19.2842L93.2708 19.2715C92.2125 19.2137 91.4665 18.9539 91.0325 18.4922C90.6124 18.0301 90.376 17.2064 90.3235 16.0215L90.3118 15.4922C90.3118 14.0202 90.5525 13.0202 91.0325 12.4922C91.5285 11.9643 92.4325 11.7002 93.7444 11.7002L94.2219 11.7119C95.2913 11.7696 96.0363 12.0301 96.4563 12.4922L94.1741 14.6348C94.0142 14.5232 93.8687 14.4435 93.7493 14.3887C93.7477 14.3894 93.746 14.3899 93.7444 14.3906V14.957L94.2776 15.4424L94.676 15.0684C94.5045 14.8858 94.3321 14.7451 94.1741 14.6348L96.4563 12.4922C96.9522 13.0202 97.2004 14.0204 97.2004 15.4922L97.1887 16.0215Z" fill="black"/>
</g>
<g filter="url(#filter7_d_351_2)">
<path d="M77.5969 32.124V27.1797C77.5969 27.0038 77.5642 26.8759 77.5002 26.7959C77.4362 26.6999 77.3401 26.5879 77.2122 26.46L73.4446 23.0996L73.0842 22.4521L73.4446 21.5645L77.2122 18.2041C77.276 18.1403 77.3322 18.0803 77.3801 18.0244L77.5002 17.8682C77.5483 17.7961 77.5781 17.7058 77.5901 17.5977L77.5969 17.4844V12.4443C77.5969 12.1223 77.499 11.8364 77.303 11.5879L77.2122 11.4844L72.4124 6.68359C72.1404 6.42778 71.8203 6.2998 71.4524 6.2998V1.2998C73.1151 1.2998 74.6551 1.9287 75.8391 3.04297L75.8948 3.09473L80.802 8.00195L80.8538 8.05762C81.9679 9.24157 82.5969 10.7817 82.5969 12.4443V17.4844C82.5969 18.2625 82.4458 19.4635 81.6604 20.6416C81.3415 21.12 80.9937 21.4938 80.7483 21.7393L80.6467 21.8408L80.095 22.332L80.6467 22.8232L80.7483 22.9248C80.9594 23.1359 81.2436 23.4441 81.5227 23.8301C81.5674 23.8903 81.6106 23.9503 81.6516 24.0107C81.6543 24.0148 81.6577 24.0184 81.6604 24.0225C82.5407 25.3261 82.5969 26.6529 82.5969 27.1797V32.124C82.5969 33.7447 82.0031 35.3642 80.7483 36.6191L75.9485 41.4199C74.7861 42.5823 73.2119 43.292 71.4524 43.292H57.0042C56.0334 43.2919 54.387 43.0459 53.0188 41.6777C51.6506 40.3095 51.4046 38.6632 51.4045 37.6924V6.90039C51.4045 5.92967 51.6504 4.28246 53.0188 2.91406C54.387 1.54593 56.0334 1.29987 57.0042 1.2998V6.2998C56.6044 6.29993 56.4045 6.50052 56.4045 6.90039V37.6924C56.4047 38.092 56.6045 38.2919 57.0042 38.292H71.4524C71.8204 38.292 72.1404 38.1558 72.4124 37.8838L77.2122 33.084C77.4362 32.8599 77.5621 32.5868 77.5901 32.2646L77.5969 32.124ZM67.05 29.0879L66.5569 28.623V29.5518L67.05 29.0879ZM66.5569 30.1758C66.5586 30.1766 66.5601 30.1779 66.5618 30.1787C66.6665 30.1306 66.7919 30.0645 66.929 29.9736L66.5569 29.6338V30.1758ZM66.1868 29.9697C66.3249 30.0608 66.4513 30.1273 66.5569 30.1758V29.6338L66.1868 29.9697ZM67.1028 29.1367L66.5569 29.6338L66.929 29.9736C67.1028 29.8583 67.2956 29.7044 67.4885 29.499L67.1028 29.1367ZM67.5442 29.4395C67.6551 29.3174 67.7442 29.1972 67.8196 29.0879C67.7443 28.9786 67.6551 28.8583 67.5442 28.7363L67.1575 29.0879L67.5442 29.4395ZM66.5569 28.623L66.1428 28.2344C65.9727 28.3507 65.7867 28.5032 65.6008 28.7021C65.4761 28.8376 65.3748 28.9682 65.2942 29.0879C65.3742 29.2066 65.4755 29.3354 65.5989 29.4697C65.7855 29.6701 65.972 29.8235 66.1428 29.9404L66.5569 29.5518V28.623ZM67.0374 15.4912L66.5569 15.0391V15.9434L67.0374 15.4912ZM67.0901 15.541L66.5569 16.0264V16.5918C66.5586 16.5926 66.5601 16.5939 66.5618 16.5947C66.7993 16.4856 67.1436 16.2822 67.4885 15.915L67.0901 15.541ZM66.1711 16.376C66.3153 16.4723 66.4474 16.5415 66.5569 16.5918V16.0264L66.1711 16.376ZM66.5569 15.0391L66.1282 14.6367C65.9604 14.7529 65.7782 14.9045 65.5959 15.1006C65.4698 15.2383 65.3671 15.3702 65.2864 15.4912C65.3677 15.6133 65.4712 15.7467 65.5989 15.8857C65.7801 16.0802 65.9614 16.2301 66.1282 16.3457L66.5569 15.9434V15.0391ZM71.4524 1.2998V6.2998H57.0042V1.2998H71.4524ZM70.0012 29.6299C69.947 30.8143 69.7026 31.6375 69.2688 32.0996L69.1731 32.1963C68.6734 32.66 67.8013 32.8916 66.5569 32.8916L66.0833 32.8799C65.0247 32.8221 64.2789 32.5615 63.845 32.0996C63.365 31.5716 63.1243 30.5716 63.1243 29.0996C63.1243 27.6118 63.365 26.6041 63.845 26.0762C64.341 25.5483 65.245 25.2842 66.5569 25.2842L67.0344 25.2959C68.1038 25.3536 68.8488 25.6141 69.2688 26.0762L66.9719 28.2324C66.8179 28.1263 66.6775 28.0502 66.5618 27.9971C66.4552 28.0457 66.327 28.1127 66.1868 28.2051L66.5559 28.541L67.1028 29.0381L67.4885 28.6768C67.3116 28.4884 67.1341 28.3442 66.9719 28.2324L69.2688 26.0762C69.7646 26.6042 70.0129 27.612 70.0129 29.0996L70.0012 29.6299ZM67.1448 15.4922L67.5442 15.8555C67.6595 15.7287 67.7515 15.6041 67.8284 15.4912C67.7516 15.3786 67.6591 15.2553 67.5442 15.1289L67.1448 15.4922ZM70.0012 16.0215C69.947 17.2064 69.7028 18.0301 69.2688 18.4922L69.1731 18.5879C68.6734 19.0518 67.8015 19.2841 66.5569 19.2842L66.0833 19.2715C65.025 19.2137 64.279 18.9539 63.845 18.4922C63.4249 18.0301 63.1885 17.2064 63.136 16.0215L63.1243 15.4922C63.1243 14.0202 63.365 13.0202 63.845 12.4922C64.341 11.9643 65.245 11.7002 66.5569 11.7002L67.0344 11.7119C68.1038 11.7696 68.8488 12.0301 69.2688 12.4922L66.9866 14.6348C66.8267 14.5232 66.6812 14.4435 66.5618 14.3887C66.4512 14.4391 66.3167 14.5086 66.1702 14.6064L66.5559 14.957L67.0901 15.4424L67.4885 15.0684C67.317 14.8858 67.1446 14.7451 66.9866 14.6348L69.2688 12.4922C69.7647 13.0202 70.0129 14.0204 70.0129 15.4922L70.0012 16.0215Z" fill="black"/>
</g>
<g filter="url(#filter8_d_351_2)">
<path d="M28.7756 32.2646C28.8053 32.5868 28.9389 32.8599 29.177 33.084L33.9768 37.8838C34.2488 38.1558 34.5688 38.292 34.9368 38.292H44.3694L44.51 38.2852C44.832 38.2554 45.1054 38.1218 45.3293 37.8838L50.1292 33.084C50.3672 32.8599 50.5008 32.5867 50.5305 32.2646L50.5374 32.124V12.4443C50.5374 12.1223 50.4331 11.8364 50.2249 11.5879L50.1292 11.4844L45.3293 6.68359C45.1054 6.45961 44.832 6.33368 44.51 6.30566L44.3694 6.2998V1.2998C45.8888 1.29991 47.4074 1.82164 48.6252 2.9209L48.8645 3.14844L53.6643 7.94824C54.8267 9.11061 55.5374 10.6848 55.5374 12.4443V32.124C55.5373 33.7945 54.898 35.3987 53.6624 36.6172L53.6643 36.6191L48.8645 41.4199L48.8625 41.418C47.6442 42.6534 46.0396 43.2919 44.3694 43.292H34.9368C33.1775 43.292 31.604 42.5821 30.4417 41.4199L25.6418 36.6191V36.6182C25.3808 36.3607 25.1469 36.086 24.9397 35.7969V32.4844C24.9397 32.0844 24.7401 31.8838 24.3401 31.8838H23.7688V12.4443C23.7688 10.6848 24.4795 9.11061 25.6418 7.94824L30.4954 3.09473L30.55 3.04297C31.734 1.92864 33.274 1.29984 34.9368 1.2998V6.2998C34.5689 6.29984 34.2487 6.42772 33.9768 6.68359L29.177 11.4844C28.9051 11.7563 28.7688 12.0764 28.7688 12.4443V32.124L28.7756 32.2646ZM42.5452 30.54L42.5413 30.7031C42.5018 31.4902 42.167 31.8836 41.5374 31.8838H37.7688C37.154 31.8837 36.8268 31.4903 36.7883 30.7031L36.7854 30.54V14.0518C36.7855 13.14 37.1129 12.6836 37.7688 12.6836H41.5374C42.209 12.6838 42.5451 13.1401 42.5452 14.0518V30.54ZM44.3694 1.2998V6.2998H34.9368V1.2998H44.3694Z" fill="black"/>
</g>
<g filter="url(#filter9_d_351_2)">
<path d="M10.3098 37.833C10.3474 38.0954 10.4974 38.2448 10.76 38.2822L10.9006 38.292H24.3401C24.6899 38.292 24.8871 38.139 24.9309 37.833L24.9397 37.6924V32.4844C24.9397 32.0844 24.7401 31.8838 24.3401 31.8838V26.8838C25.3107 26.8838 26.9571 27.1299 28.3254 28.498C28.4886 28.6612 28.6361 28.8286 28.7688 28.998V32.124C28.7688 32.508 28.905 32.828 29.177 33.084L29.9397 33.8467V37.6924C29.9396 38.6632 29.6937 40.3095 28.3254 41.6777C26.9571 43.0459 25.3108 43.292 24.3401 43.292H10.9006C9.92991 43.292 8.28271 43.0461 6.91431 41.6777C5.54614 40.3095 5.30011 38.6631 5.30005 37.6924V6.90039C5.30005 5.92967 5.54591 4.28246 6.91431 2.91406C8.2827 1.54569 9.92992 1.2998 10.9006 1.2998V6.2998L10.76 6.30957C10.4535 6.3532 10.3 6.55023 10.3 6.90039V37.6924L10.3098 37.833ZM18.2922 6.90039C18.2922 6.55057 18.1392 6.35346 17.8333 6.30957L17.6926 6.2998V1.2998C18.6634 1.29988 20.3098 1.54593 21.678 2.91406C23.0464 4.28246 23.2922 5.92967 23.2922 6.90039V26.8838H24.3401V31.8838H18.2922V6.90039ZM17.6926 1.2998V6.2998H10.9006V1.2998H17.6926Z" fill="black"/>
</g>
<defs>
<filter id="filter0_d_351_2" x="104.399" y="4.9998" width="31.9601" height="42.5922" filterUnits="userSpaceOnUse" color-interpolation-filters="sRGB">
<feFlood flood-opacity="0" result="BackgroundImageFix"/>
<feColorMatrix in="SourceAlpha" type="matrix" values="0 0 0 0 0 0 0 0 0 0 0 0 0 0 0 0 0 0 127 0" result="hardAlpha"/>
<feOffset dy="4"/>
<feGaussianBlur stdDeviation="2.65"/>
<feComposite in2="hardAlpha" operator="out"/>
<feColorMatrix type="matrix" values="0 0 0 0 0 0 0 0 0 0 0 0 0 0 0 0 0 0 0.25 0"/>
<feBlend mode="normal" in2="BackgroundImageFix" result="effect1_dropShadow_351_2"/>
<feBlend mode="normal" in="SourceGraphic" in2="effect1_dropShadow_351_2" result="shape"/>
</filter>
<filter id="filter1_d_351_2" x="78.292" y="4.9998" width="31.7919" height="42.5922" filterUnits="userSpaceOnUse" color-interpolation-filters="sRGB">
<feFlood flood-opacity="0" result="BackgroundImageFix"/>
<feColorMatrix in="SourceAlpha" type="matrix" values="0 0 0 0 0 0 0 0 0 0 0 0 0 0 0 0 0 0 127 0" result="hardAlpha"/>
<feOffset dy="4"/>
<feGaussianBlur stdDeviation="2.65"/>
<feComposite in2="hardAlpha" operator="out"/>
<feColorMatrix type="matrix" values="0 0 0 0 0 0 0 0 0 0 0 0 0 0 0 0 0 0 0.25 0"/>
<feBlend mode="normal" in2="BackgroundImageFix" result="effect1_dropShadow_351_2"/>
<feBlend mode="normal" in="SourceGraphic" in2="effect1_dropShadow_351_2" result="shape"/>
</filter>
<filter id="filter2_d_351_2" x="51.1045" y="4.9998" width="31.7919" height="42.5922" filterUnits="userSpaceOnUse" color-interpolation-filters="sRGB">
<feFlood flood-opacity="0" result="BackgroundImageFix"/>
<feColorMatrix in="SourceAlpha" type="matrix" values="0 0 0 0 0 0 0 0 0 0 0 0 0 0 0 0 0 0 127 0" result="hardAlpha"/>
<feOffset dy="4"/>
<feGaussianBlur stdDeviation="2.65"/>
<feComposite in2="hardAlpha" operator="out"/>
<feColorMatrix type="matrix" values="0 0 0 0 0 0 0 0 0 0 0 0 0 0 0 0 0 0 0.25 0"/>
<feBlend mode="normal" in2="BackgroundImageFix" result="effect1_dropShadow_351_2"/>
<feBlend mode="normal" in="SourceGraphic" in2="effect1_dropShadow_351_2" result="shape"/>
</filter>
<filter id="filter3_d_351_2" x="23.4688" y="4.9998" width="32.3681" height="42.5922" filterUnits="userSpaceOnUse" color-interpolation-filters="sRGB">
<feFlood flood-opacity="0" result="BackgroundImageFix"/>
<feColorMatrix in="SourceAlpha" type="matrix" values="0 0 0 0 0 0 0 0 0 0 0 0 0 0 0 0 0 0 127 0" result="hardAlpha"/>
<feOffset dy="4"/>
<feGaussianBlur stdDeviation="2.65"/>
<feComposite in2="hardAlpha" operator="out"/>
<feColorMatrix type="matrix" values="0 0 0 0 0 0 0 0 0 0 0 0 0 0 0 0 0 0 0.25 0"/>
<feBlend mode="normal" in2="BackgroundImageFix" result="effect1_dropShadow_351_2"/>
<feBlend mode="normal" in="SourceGraphic" in2="effect1_dropShadow_351_2" result="shape"/>
</filter>
<filter id="filter4_d_351_2" x="5.00005" y="4.9998" width="25.2399" height="42.5922" filterUnits="userSpaceOnUse" color-interpolation-filters="sRGB">
<feFlood flood-opacity="0" result="BackgroundImageFix"/>
<feColorMatrix in="SourceAlpha" type="matrix" values="0 0 0 0 0 0 0 0 0 0 0 0 0 0 0 0 0 0 127 0" result="hardAlpha"/>
<feOffset dy="4"/>
<feGaussianBlur stdDeviation="2.65"/>
<feComposite in2="hardAlpha" operator="out"/>
<feColorMatrix type="matrix" values="0 0 0 0 0 0 0 0 0 0 0 0 0 0 0 0 0 0 0.25 0"/>
<feBlend mode="normal" in2="BackgroundImageFix" result="effect1_dropShadow_351_2"/>
<feBlend mode="normal" in="SourceGraphic" in2="effect1_dropShadow_351_2" result="shape"/>
</filter>
<filter id="filter5_d_351_2" x="99.3995" y="-0.000195503" width="41.9604" height="52.5922" filterUnits="userSpaceOnUse" color-interpolation-filters="sRGB">
<feFlood flood-opacity="0" result="BackgroundImageFix"/>
<feColorMatrix in="SourceAlpha" type="matrix" values="0 0 0 0 0 0 0 0 0 0 0 0 0 0 0 0 0 0 127 0" result="hardAlpha"/>
<feOffset dy="4"/>
<feGaussianBlur stdDeviation="2.65"/>
<feComposite in2="hardAlpha" operator="out"/>
<feColorMatrix type="matrix" values="0 0 0 0 0 0 0 0 0 0 0 0 0 0 0 0 0 0 0.25 0"/>
<feBlend mode="normal" in2="BackgroundImageFix" result="effect1_dropShadow_351_2"/>
<feBlend mode="normal" in="SourceGraphic" in2="effect1_dropShadow_351_2" result="shape"/>
</filter>
<filter id="filter6_d_351_2" x="73.292" y="-0.000195503" width="41.7924" height="52.5922" filterUnits="userSpaceOnUse" color-interpolation-filters="sRGB">
<feFlood flood-opacity="0" result="BackgroundImageFix"/>
<feColorMatrix in="SourceAlpha" type="matrix" values="0 0 0 0 0 0 0 0 0 0 0 0 0 0 0 0 0 0 127 0" result="hardAlpha"/>
<feOffset dy="4"/>
<feGaussianBlur stdDeviation="2.65"/>
<feComposite in2="hardAlpha" operator="out"/>
<feColorMatrix type="matrix" values="0 0 0 0 0 0 0 0 0 0 0 0 0 0 0 0 0 0 0.25 0"/>
<feBlend mode="normal" in2="BackgroundImageFix" result="effect1_dropShadow_351_2"/>
<feBlend mode="normal" in="SourceGraphic" in2="effect1_dropShadow_351_2" result="shape"/>
</filter>
<filter id="filter7_d_351_2" x="46.1045" y="-0.000195503" width="41.7924" height="52.5922" filterUnits="userSpaceOnUse" color-interpolation-filters="sRGB">
<feFlood flood-opacity="0" result="BackgroundImageFix"/>
<feColorMatrix in="SourceAlpha" type="matrix" values="0 0 0 0 0 0 0 0 0 0 0 0 0 0 0 0 0 0 127 0" result="hardAlpha"/>
<feOffset dy="4"/>
<feGaussianBlur stdDeviation="2.65"/>
<feComposite in2="hardAlpha" operator="out"/>
<feColorMatrix type="matrix" values="0 0 0 0 0 0 0 0 0 0 0 0 0 0 0 0 0 0 0.25 0"/>
<feBlend mode="normal" in2="BackgroundImageFix" result="effect1_dropShadow_351_2"/>
<feBlend mode="normal" in="SourceGraphic" in2="effect1_dropShadow_351_2" result="shape"/>
</filter>
<filter id="filter8_d_351_2" x="18.4688" y="-0.000195503" width="42.3686" height="52.5922" filterUnits="userSpaceOnUse" color-interpolation-filters="sRGB">
<feFlood flood-opacity="0" result="BackgroundImageFix"/>
<feColorMatrix in="SourceAlpha" type="matrix" values="0 0 0 0 0 0 0 0 0 0 0 0 0 0 0 0 0 0 127 0" result="hardAlpha"/>
<feOffset dy="4"/>
<feGaussianBlur stdDeviation="2.65"/>
<feComposite in2="hardAlpha" operator="out"/>
<feColorMatrix type="matrix" values="0 0 0 0 0 0 0 0 0 0 0 0 0 0 0 0 0 0 0.25 0"/>
<feBlend mode="normal" in2="BackgroundImageFix" result="effect1_dropShadow_351_2"/>
<feBlend mode="normal" in="SourceGraphic" in2="effect1_dropShadow_351_2" result="shape"/>
</filter>
<filter id="filter9_d_351_2" x="4.86374e-05" y="-0.000195503" width="35.2396" height="52.5922" filterUnits="userSpaceOnUse" color-interpolation-filters="sRGB">
<feFlood flood-opacity="0" result="BackgroundImageFix"/>
<feColorMatrix in="SourceAlpha" type="matrix" values="0 0 0 0 0 0 0 0 0 0 0 0 0 0 0 0 0 0 127 0" result="hardAlpha"/>
<feOffset dy="4"/>
<feGaussianBlur stdDeviation="2.65"/>
<feComposite in2="hardAlpha" operator="out"/>
<feColorMatrix type="matrix" values="0 0 0 0 0 0 0 0 0 0 0 0 0 0 0 0 0 0 0.25 0"/>
<feBlend mode="normal" in2="BackgroundImageFix" result="effect1_dropShadow_351_2"/>
<feBlend mode="normal" in="SourceGraphic" in2="effect1_dropShadow_351_2" result="shape"/>
</filter>
</defs>
</svg>
