<svg width="106" height="59" viewBox="0 0 106 59" fill="none" xmlns="http://www.w3.org/2000/svg">
<g filter="url(#filter0_d_118_1687)">
<path d="M73.607 39.2918C73.207 39.2918 73.007 39.0918 73.007 38.6918V16.4438C73.007 16.2358 73.087 15.9958 73.247 15.7238L78.935 7.6598C79.111 7.4198 79.367 7.2998 79.703 7.2998H87.647C87.999 7.2998 88.255 7.4198 88.415 7.6598L94.127 15.7238C94.287 15.9478 94.367 16.1878 94.367 16.4438V38.6918C94.367 39.0918 94.167 39.2918 93.767 39.2918H86.975C86.575 39.2918 86.375 39.0918 86.375 38.6918V28.4918H81.023V38.6918C81.023 39.0918 80.823 39.2918 80.423 39.2918H73.607ZM83.687 23.3318C85.159 23.3318 86.151 23.0118 86.663 22.3718C87.191 21.7158 87.455 20.4758 87.455 18.6518C87.455 16.8278 87.191 15.5958 86.663 14.9558C86.151 14.2998 85.159 13.9718 83.687 13.9718C82.231 13.9718 81.239 14.2998 80.711 14.9558C80.199 15.5958 79.943 16.8278 79.943 18.6518C79.943 20.4758 80.199 21.7158 80.711 22.3718C81.239 23.0118 82.231 23.3318 83.687 23.3318Z" fill="#6890E7"/>
<path d="M87.6467 4.2998C88.7287 4.2998 90.0168 4.71654 90.8615 5.92773L90.8635 5.92578L96.5685 13.9805L96.7443 14.2471C97.1337 14.8847 97.3673 15.6306 97.3674 16.4434V38.6914C97.3674 39.3537 97.1991 40.4016 96.3381 41.2627C95.477 42.1238 94.4292 42.292 93.7668 42.292H86.9748C86.3124 42.292 85.2644 42.1236 84.4035 41.2627C84.0802 40.9393 83.854 40.5899 83.6984 40.2441C83.5428 40.5898 83.3176 40.9394 82.9943 41.2627C82.1333 42.1237 81.0855 42.292 80.423 42.292H73.6066C72.9442 42.2919 71.8962 42.1235 71.0353 41.2627C70.1747 40.4017 70.007 39.3538 70.007 38.6914V16.4434L70.0109 16.2676C70.0507 15.3972 70.3784 14.6841 70.6613 14.2031L70.7238 14.0957L70.7951 13.9941L76.4836 5.93066L76.4992 5.9082L76.5158 5.88574C77.3358 4.76759 78.5533 4.2998 79.7033 4.2998H87.6467ZM83.6867 16.9717C83.4158 16.9717 83.2125 16.9883 83.0656 17.0088C82.9971 17.3577 82.9426 17.8904 82.9426 18.6514C82.9426 19.4062 82.9961 19.9407 83.0646 20.2959C83.2144 20.3158 83.4184 20.332 83.6867 20.332C83.9652 20.332 84.1751 20.3143 84.3273 20.2939C84.3981 19.9462 84.4553 19.4136 84.4553 18.6514C84.4552 17.882 84.3981 17.3509 84.3273 17.0098C84.1781 16.9888 83.9684 16.9717 83.6867 16.9717Z" stroke="black" stroke-width="6"/>
</g>
<g filter="url(#filter1_d_118_1687)">
<path d="M55.9643 43.2998C55.5643 43.2998 55.3643 43.0998 55.3643 42.6998V38.8838C55.3643 38.5798 55.4443 38.3398 55.6043 38.1638L59.1563 34.6118C59.3483 34.4358 59.4443 34.1798 59.4443 33.8438V7.8998C59.4443 7.4998 59.6443 7.2998 60.0443 7.2998H66.8363C67.2363 7.2998 67.4363 7.4998 67.4363 7.8998V37.2038C67.4363 37.3478 67.4203 37.4838 67.3883 37.6118C67.3723 37.7238 67.3003 37.8438 67.1723 37.9718L62.2043 42.9398C61.9643 43.1798 61.7243 43.2998 61.4843 43.2998H55.9643Z" fill="#6890E7"/>
<path d="M66.836 4.2998C67.4983 4.2998 68.5463 4.4674 69.4073 5.32812C70.2682 6.18899 70.4365 7.23694 70.4366 7.89941V37.2041C70.4366 37.5213 70.4027 37.849 70.3321 38.1816C70.1529 39.1379 69.6102 39.7765 69.294 40.0928L64.3253 45.0615C63.7582 45.6284 62.8003 46.2998 61.4844 46.2998H55.9639C55.3015 46.2997 54.2535 46.1323 53.3926 45.2715C52.5318 44.4106 52.3644 43.3627 52.3643 42.7002V38.8838C52.3643 38.0478 52.5952 37.0141 53.3848 36.1455L53.4327 36.0928L53.4835 36.043L56.4444 33.0811V7.89941C56.4445 7.23694 56.6118 6.18899 57.4727 5.32812C58.3336 4.46726 59.3816 4.29986 60.044 4.2998H66.836Z" stroke="black" stroke-width="6"/>
</g>
<g filter="url(#filter2_d_118_1687)">
<path d="M35.9367 39.2918C35.5687 39.2918 35.2487 39.1558 34.9767 38.8838L30.1767 34.0838C29.9047 33.8278 29.7687 33.5078 29.7687 33.1238V13.4438C29.7687 13.0758 29.9047 12.7558 30.1767 12.4838L34.9767 7.68381C35.2487 7.4278 35.5687 7.2998 35.9367 7.2998H45.3687C45.7527 7.2998 46.0727 7.4278 46.3287 7.68381L51.1287 12.4838C51.4007 12.7558 51.5367 13.0758 51.5367 13.4438V33.1238C51.5367 33.5078 51.4007 33.8278 51.1287 34.0838L46.3287 38.8838C46.0727 39.1558 45.7527 39.2918 45.3687 39.2918H35.9367ZM38.7687 32.8838H42.5367C43.2087 32.8838 43.5447 32.4358 43.5447 31.5398V15.0518C43.5447 14.1398 43.2087 13.6838 42.5367 13.6838H38.7687C38.1127 13.6838 37.7847 14.1398 37.7847 15.0518V31.5398C37.7847 32.4358 38.1127 32.8838 38.7687 32.8838Z" fill="#6890E7"/>
<path d="M45.3683 4.2998C46.4241 4.2998 47.4575 4.65756 48.2873 5.40723L48.4504 5.5625L53.2502 10.3623C54.0562 11.1683 54.5362 12.2405 54.5363 13.4434V33.124C54.5363 34.2796 54.0991 35.3711 53.2492 36.2041L53.2502 36.2051L48.4504 41.0049L48.4494 41.0039C47.6162 41.8542 46.5241 42.292 45.3683 42.292H35.9367C34.7338 42.292 33.6618 41.8111 32.8557 41.0049L28.0558 36.2051L28.0568 36.2041C27.2066 35.3709 26.7688 34.2796 26.7687 33.124V13.4434C26.7689 12.2407 27.2497 11.1685 28.0558 10.3623L32.8879 5.53027L32.9211 5.49902C33.7402 4.72822 34.792 4.29981 35.9367 4.2998H45.3683Z" stroke="black" stroke-width="6"/>
</g>
<g filter="url(#filter3_d_118_1687)">
<path d="M11.9 39.2918C11.5 39.2918 11.3 39.0918 11.3 38.6918V7.8998C11.3 7.4998 11.5 7.2998 11.9 7.2998H18.692C19.092 7.2998 19.292 7.4998 19.292 7.8998V32.8838H25.34C25.74 32.8838 25.94 33.0838 25.94 33.4838V38.6918C25.94 39.0918 25.74 39.2918 25.34 39.2918H11.9Z" fill="#6890E7"/>
<path d="M18.6916 4.2998C19.3539 4.2998 20.4019 4.46743 21.2629 5.32812C22.1238 6.18899 22.2921 7.23693 22.2922 7.89941V29.8838H25.34C26.0024 29.8838 27.0503 30.0512 27.9113 30.9121C28.7721 31.773 28.9396 32.821 28.9396 33.4834V38.6914C28.9396 39.3537 28.7722 40.4017 27.9113 41.2627C27.0503 42.1238 26.0025 42.292 25.34 42.292H11.8996C11.2371 42.2919 10.1892 42.1235 9.32831 41.2627C8.46762 40.4017 8.29999 39.3538 8.29999 38.6914V7.89941C8.30005 7.23694 8.46745 6.18898 9.32831 5.32812C10.1892 4.46727 11.2371 4.29987 11.8996 4.2998H18.6916Z" stroke="black" stroke-width="6"/>
</g>
<defs>
<filter id="filter0_d_118_1687" x="61.707" y="-0.000195503" width="43.96" height="54.5922" filterUnits="userSpaceOnUse" color-interpolation-filters="sRGB">
<feFlood flood-opacity="0" result="BackgroundImageFix"/>
<feColorMatrix in="SourceAlpha" type="matrix" values="0 0 0 0 0 0 0 0 0 0 0 0 0 0 0 0 0 0 127 0" result="hardAlpha"/>
<feOffset dy="4"/>
<feGaussianBlur stdDeviation="2.65"/>
<feComposite in2="hardAlpha" operator="out"/>
<feColorMatrix type="matrix" values="0 0 0 0 0 0 0 0 0 0 0 0 0 0 0 0 0 0 0.25 0"/>
<feBlend mode="normal" in2="BackgroundImageFix" result="effect1_dropShadow_118_1687"/>
<feBlend mode="normal" in="SourceGraphic" in2="effect1_dropShadow_118_1687" result="shape"/>
</filter>
<filter id="filter1_d_118_1687" x="44.0643" y="-0.000195503" width="34.672" height="58.6" filterUnits="userSpaceOnUse" color-interpolation-filters="sRGB">
<feFlood flood-opacity="0" result="BackgroundImageFix"/>
<feColorMatrix in="SourceAlpha" type="matrix" values="0 0 0 0 0 0 0 0 0 0 0 0 0 0 0 0 0 0 127 0" result="hardAlpha"/>
<feOffset dy="4"/>
<feGaussianBlur stdDeviation="2.65"/>
<feComposite in2="hardAlpha" operator="out"/>
<feColorMatrix type="matrix" values="0 0 0 0 0 0 0 0 0 0 0 0 0 0 0 0 0 0 0.25 0"/>
<feBlend mode="normal" in2="BackgroundImageFix" result="effect1_dropShadow_118_1687"/>
<feBlend mode="normal" in="SourceGraphic" in2="effect1_dropShadow_118_1687" result="shape"/>
</filter>
<filter id="filter2_d_118_1687" x="18.4687" y="-0.000195503" width="44.368" height="54.5922" filterUnits="userSpaceOnUse" color-interpolation-filters="sRGB">
<feFlood flood-opacity="0" result="BackgroundImageFix"/>
<feColorMatrix in="SourceAlpha" type="matrix" values="0 0 0 0 0 0 0 0 0 0 0 0 0 0 0 0 0 0 127 0" result="hardAlpha"/>
<feOffset dy="4"/>
<feGaussianBlur stdDeviation="2.65"/>
<feComposite in2="hardAlpha" operator="out"/>
<feColorMatrix type="matrix" values="0 0 0 0 0 0 0 0 0 0 0 0 0 0 0 0 0 0 0.25 0"/>
<feBlend mode="normal" in2="BackgroundImageFix" result="effect1_dropShadow_118_1687"/>
<feBlend mode="normal" in="SourceGraphic" in2="effect1_dropShadow_118_1687" result="shape"/>
</filter>
<filter id="filter3_d_118_1687" x="-1.23978e-05" y="-0.000195503" width="37.24" height="54.5922" filterUnits="userSpaceOnUse" color-interpolation-filters="sRGB">
<feFlood flood-opacity="0" result="BackgroundImageFix"/>
<feColorMatrix in="SourceAlpha" type="matrix" values="0 0 0 0 0 0 0 0 0 0 0 0 0 0 0 0 0 0 127 0" result="hardAlpha"/>
<feOffset dy="4"/>
<feGaussianBlur stdDeviation="2.65"/>
<feComposite in2="hardAlpha" operator="out"/>
<feColorMatrix type="matrix" values="0 0 0 0 0 0 0 0 0 0 0 0 0 0 0 0 0 0 0.25 0"/>
<feBlend mode="normal" in2="BackgroundImageFix" result="effect1_dropShadow_118_1687"/>
<feBlend mode="normal" in="SourceGraphic" in2="effect1_dropShadow_118_1687" result="shape"/>
</filter>
</defs>
</svg>
