<svg width="240" height="53" viewBox="0 0 240 53" fill="none" xmlns="http://www.w3.org/2000/svg">
<g filter="url(#filter0_d_352_7)">
<path d="M214.977 38.2918C214.577 38.2918 214.377 38.0918 214.377 37.6918V33.1798C214.377 32.9718 214.385 32.8038 214.401 32.6758C214.433 32.5478 214.529 32.4438 214.689 32.3638L220.977 29.4838V25.2118L214.785 21.3718C214.513 21.2118 214.377 20.9718 214.377 20.6518V11.8438C214.377 11.5878 214.393 11.4038 214.425 11.2918C214.457 11.1638 214.577 11.0278 214.785 10.8838L221.097 6.6118C221.257 6.5158 221.401 6.4438 221.529 6.3958C221.673 6.3318 221.849 6.2998 222.057 6.2998H228.537C228.937 6.2998 229.137 6.4998 229.137 6.8998V10.9798C229.137 11.3318 229.017 11.5718 228.777 11.6998L222.489 14.2918V18.7318L228.777 22.3318C229.017 22.4438 229.137 22.6998 229.137 23.0998V33.5398C229.137 33.6678 229.113 33.8038 229.065 33.9478C229.033 34.0918 228.953 34.1958 228.825 34.2598L221.289 38.0038C221.193 38.0518 221.073 38.1158 220.929 38.1958C220.801 38.2598 220.673 38.2918 220.545 38.2918H214.977Z" fill="#6890E7"/>
</g>
<g filter="url(#filter1_d_352_7)">
<path d="M191.79 38.2918C191.39 38.2918 191.19 38.0918 191.19 37.6918V6.8998C191.19 6.4998 191.39 6.2998 191.79 6.2998H205.062C205.446 6.2998 205.766 6.4278 206.022 6.68381L210.822 11.4838C211.094 11.7558 211.23 12.0758 211.23 12.4438V20.7238C211.23 21.1078 211.094 21.4278 210.822 21.6838L206.022 26.4838C205.766 26.7558 205.446 26.8918 205.062 26.8918H199.182V37.6918C199.182 38.0918 198.982 38.2918 198.582 38.2918H191.79ZM200.982 20.3638C202.31 20.3638 203.214 20.0998 203.694 19.5718C204.19 19.0438 204.438 18.0438 204.438 16.5718C204.438 15.0998 204.19 14.0998 203.694 13.5718C203.214 13.0438 202.31 12.7798 200.982 12.7798C199.67 12.7798 198.766 13.0438 198.27 13.5718C197.79 14.0998 197.55 15.0998 197.55 16.5718C197.55 18.0438 197.79 19.0438 198.27 19.5718C198.766 20.0998 199.67 20.3638 200.982 20.3638Z" fill="#6890E7"/>
</g>
<g filter="url(#filter2_d_352_7)">
<path d="M171.202 38.2918C170.818 38.2918 170.498 38.1558 170.242 37.8838L165.442 33.0838C165.17 32.8278 165.034 32.5078 165.034 32.1238V6.8998C165.034 6.4998 165.234 6.2998 165.634 6.2998H172.426C172.826 6.2998 173.026 6.4998 173.026 6.8998V31.4038C173.026 31.7238 173.186 31.8838 173.506 31.8838H177.442V6.8998C177.442 6.4998 177.642 6.2998 178.042 6.2998H184.834C185.234 6.2998 185.434 6.4998 185.434 6.8998V37.6918C185.434 38.0918 185.234 38.2918 184.834 38.2918H171.202Z" fill="#6890E7"/>
</g>
<g filter="url(#filter3_d_352_7)">
<path d="M148.844 26.1002C148.444 26.1002 148.244 25.9002 148.244 25.5002V19.0922C148.244 18.6922 148.444 18.4922 148.844 18.4922H161.084C161.484 18.4922 161.684 18.6922 161.684 19.0922V25.5002C161.684 25.9002 161.484 26.1002 161.084 26.1002H148.844Z" fill="#6890E7"/>
</g>
<g filter="url(#filter4_d_352_7)">
<path d="M126.494 38.2918C126.094 38.2918 125.894 38.0918 125.894 37.6918V6.8998C125.894 6.4998 126.094 6.2998 126.494 6.2998H139.502C139.886 6.2998 140.206 6.4038 140.462 6.6118L145.982 12.0838C146.158 12.2438 146.262 12.3798 146.294 12.4918C146.342 12.6038 146.366 12.7878 146.366 13.0438V19.6198C146.366 19.8278 146.286 20.0118 146.126 20.1718L143.486 22.7398L141.254 24.6598L143.894 28.1638L146.606 33.9718C146.67 34.1158 146.718 34.2598 146.75 34.4038C146.798 34.5318 146.822 34.6918 146.822 34.8838V37.6918C146.822 38.0918 146.622 38.2918 146.222 38.2918H139.886C139.534 38.2918 139.294 38.1318 139.166 37.8118L135.302 26.5798H133.502V37.6918C133.502 38.0918 133.302 38.2918 132.902 38.2918H126.494ZM136.142 20.6998C137.47 20.6998 138.374 20.4278 138.854 19.8838C139.334 19.3238 139.574 18.2838 139.574 16.7638C139.574 15.2278 139.334 14.1878 138.854 13.6438C138.374 13.0838 137.47 12.8038 136.142 12.8038C134.83 12.8038 133.926 13.0838 133.43 13.6438C132.934 14.1878 132.686 15.2278 132.686 16.7638C132.686 18.2838 132.934 19.3238 133.43 19.8838C133.926 20.4278 134.83 20.6998 136.142 20.6998Z" fill="#6890E7"/>
</g>
<g filter="url(#filter5_d_352_7)">
<path d="M102.822 38.2918C102.422 38.2918 102.222 38.0918 102.222 37.6918V6.8998C102.222 6.4998 102.422 6.2998 102.822 6.2998H119.55C119.95 6.2998 120.15 6.4998 120.15 6.8998V12.0838C120.15 12.4838 119.95 12.6838 119.55 12.6838H110.214V19.4998H118.734C119.134 19.4998 119.334 19.6998 119.334 20.0998V24.4918C119.334 24.8918 119.134 25.0918 118.734 25.0918H110.214V31.8838H119.55C119.95 31.8838 120.15 32.0838 120.15 32.4838V37.6918C120.15 38.0918 119.95 38.2918 119.55 38.2918H102.822Z" fill="#6890E7"/>
</g>
<g filter="url(#filter6_d_352_7)">
<path d="M67.8897 38.2918C67.5057 38.2918 67.1857 38.1558 66.9297 37.8838L62.1297 33.0838C61.8577 32.8278 61.7217 32.5078 61.7217 32.1238V6.8998C61.7217 6.4998 61.9217 6.2998 62.3217 6.2998H69.1137C69.5137 6.2998 69.7137 6.4998 69.7137 6.8998V31.8598H75.0897V6.8998C75.0897 6.4998 75.2897 6.2998 75.6897 6.2998H82.4817C82.8817 6.2998 83.0817 6.4998 83.0817 6.8998V31.8598H88.4337V6.8998C88.4337 6.4998 88.6337 6.2998 89.0337 6.2998H95.8497C96.2497 6.2998 96.4497 6.4998 96.4497 6.8998V32.1238C96.4497 32.5078 96.3137 32.8278 96.0417 33.0838L91.2417 37.8838C90.9697 38.1558 90.6497 38.2918 90.2817 38.2918H84.6417C84.2737 38.2918 83.9537 38.1558 83.6817 37.8838L79.6497 33.8518H78.5217L74.4897 37.8838C74.2177 38.1558 73.8977 38.2918 73.5297 38.2918H67.8897Z" fill="#6890E7"/>
</g>
<g filter="url(#filter7_d_352_7)">
<path d="M40.3741 38.2918C40.0061 38.2918 39.6861 38.1558 39.4141 37.8838L34.614 33.0838C34.342 32.8278 34.2061 32.5078 34.2061 32.1238V12.4438C34.2061 12.0758 34.342 11.7558 34.614 11.4838L39.4141 6.68381C39.6861 6.4278 40.0061 6.2998 40.3741 6.2998H49.8061C50.1901 6.2998 50.5101 6.4278 50.7661 6.68381L55.566 11.4838C55.838 11.7558 55.9741 12.0758 55.9741 12.4438V32.1238C55.9741 32.5078 55.838 32.8278 55.566 33.0838L50.7661 37.8838C50.5101 38.1558 50.1901 38.2918 49.8061 38.2918H40.3741ZM43.2061 31.8838H46.9741C47.6461 31.8838 47.9821 31.4358 47.9821 30.5398V14.0518C47.9821 13.1398 47.6461 12.6838 46.9741 12.6838H43.2061C42.5501 12.6838 42.222 13.1398 42.222 14.0518V30.5398C42.222 31.4358 42.5501 31.8838 43.2061 31.8838Z" fill="#6890E7"/>
</g>
<g filter="url(#filter8_d_352_7)">
<path d="M10.8998 38.2918C10.4998 38.2918 10.2998 38.0918 10.2998 37.6918V6.8998C10.2998 6.4998 10.4998 6.2998 10.8998 6.2998H24.1718C24.5558 6.2998 24.8758 6.4278 25.1318 6.68381L29.9318 11.4838C30.2038 11.7558 30.3398 12.0758 30.3398 12.4438V20.7238C30.3398 21.1078 30.2038 21.4278 29.9318 21.6838L25.1318 26.4838C24.8758 26.7558 24.5558 26.8918 24.1718 26.8918H18.2918V37.6918C18.2918 38.0918 18.0918 38.2918 17.6918 38.2918H10.8998ZM20.0918 20.3638C21.4198 20.3638 22.3238 20.0998 22.8038 19.5718C23.2998 19.0438 23.5478 18.0438 23.5478 16.5718C23.5478 15.0998 23.2998 14.0998 22.8038 13.5718C22.3238 13.0438 21.4198 12.7798 20.0918 12.7798C18.7798 12.7798 17.8758 13.0438 17.3798 13.5718C16.8998 14.0998 16.6598 15.0998 16.6598 16.5718C16.6598 18.0438 16.8998 19.0438 17.3798 19.5718C17.8758 20.0998 18.7798 20.3638 20.0918 20.3638Z" fill="#6890E7"/>
</g>
<g filter="url(#filter9_d_352_7)">
<path d="M229.137 33.54V23.0996C229.137 22.6998 229.016 22.444 228.776 22.332L222.489 18.7324V14.292L228.776 11.7002C228.986 11.5882 229.105 11.3901 229.131 11.1064L229.137 10.9805V6.90039C229.137 6.55052 228.984 6.35342 228.678 6.30957L228.537 6.2998V1.2998C229.508 1.29986 231.154 1.54593 232.522 2.91406C233.891 4.28246 234.137 5.92966 234.137 6.90039V10.9805C234.137 12.5445 233.491 14.8518 231.13 16.1113L230.911 16.2285L230.683 16.3223L229.321 16.8828L231.14 17.9238C233.743 19.2843 234.137 21.9111 234.137 23.0996V33.54C234.137 34.2038 234.027 34.8041 233.873 35.3213C233.47 36.7627 232.488 38.0187 231.061 38.7324L231.05 38.7383L223.523 42.4756L223.524 42.4766C223.523 42.4772 223.519 42.4785 223.514 42.4814C223.506 42.4856 223.494 42.4921 223.479 42.5C223.449 42.516 223.409 42.5377 223.357 42.5664L223.262 42.6191L223.165 42.668C222.426 43.0377 221.537 43.292 220.545 43.292H214.977C214.006 43.292 212.359 43.046 210.991 41.6777C209.623 40.3095 209.377 38.6632 209.377 37.6924V33.1797C209.377 32.8733 209.387 32.4746 209.439 32.0557L209.477 31.7559L209.55 31.4629C210.05 29.4629 211.477 28.3798 212.453 27.8916L212.529 27.8535L212.606 27.8184L214.381 27.0049L212.149 25.6211L212.15 25.6182C211.022 24.9248 210.204 23.9143 209.76 22.7451L210.822 21.6836C211.094 21.4276 211.23 21.1076 211.23 20.7236V12.4443C211.23 12.0764 211.094 11.7564 210.822 11.4844L209.543 10.2051C209.553 10.1632 209.564 10.1215 209.575 10.0791H209.574C209.579 10.058 209.586 10.0375 209.592 10.0166C209.6 9.98409 209.608 9.95065 209.617 9.91797H209.619C210.153 8.03358 211.54 7.04927 211.938 6.77344L211.96 6.75781L211.982 6.74316L218.294 2.47168L218.407 2.39453L218.524 2.32422C218.857 2.12451 219.281 1.89868 219.773 1.71387V1.71484C220.626 1.38624 221.429 1.29982 222.057 1.2998V6.2998C221.849 6.29982 221.672 6.33152 221.528 6.39551C221.4 6.44351 221.257 6.51637 221.097 6.6123L214.785 10.8838L214.646 10.9902C214.522 11.0953 214.449 11.1959 214.425 11.292C214.393 11.404 214.377 11.5879 214.377 11.8438V20.6523C214.377 20.9722 214.513 21.2121 214.785 21.3721L220.977 25.2119V29.4844L214.688 32.3643C214.529 32.4442 214.432 32.5479 214.4 32.6758C214.384 32.8037 214.377 32.9718 214.377 33.1797V37.6924C214.377 38.092 214.577 38.2919 214.977 38.292H220.545L220.641 38.2861C220.705 38.2781 220.769 38.2623 220.833 38.2383L220.929 38.1963C221.073 38.1163 221.193 38.0519 221.289 38.0039L228.825 34.2598C228.953 34.1958 229.032 34.0919 229.064 33.9482C229.1 33.8403 229.123 33.7366 229.132 33.6377L229.137 33.54ZM228.537 1.2998V6.2998H222.057V1.2998H228.537Z" fill="black"/>
</g>
<g filter="url(#filter10_d_352_7)">
<path d="M191.2 37.833C191.238 38.0954 191.388 38.2448 191.65 38.2822L191.791 38.292H198.583L198.724 38.2822C198.986 38.2446 199.135 38.0951 199.173 37.833L199.183 37.6924V26.8916H205.062C205.446 26.8916 205.767 26.7562 206.022 26.4844L210.822 21.6836C211.094 21.4276 211.23 21.1076 211.23 20.7236V12.4443C211.23 12.1222 211.126 11.8365 210.918 11.5879L210.822 11.4844L206.022 6.68359C205.767 6.42775 205.446 6.2998 205.062 6.2998V1.2998C206.683 1.2998 208.303 1.89362 209.558 3.14844L214.358 7.94824C214.993 8.58331 215.492 9.34171 215.815 10.1855L214.785 10.8838C214.577 11.0278 214.457 11.164 214.425 11.292C214.393 11.404 214.377 11.5879 214.377 11.8438V20.6523C214.377 20.9722 214.513 21.2121 214.785 21.3721L216.065 22.166C215.804 23.3014 215.23 24.356 214.356 25.2178L214.358 25.2197L209.558 30.0195L209.556 30.0176C208.337 31.2531 206.733 31.8916 205.062 31.8916H204.183V37.6924C204.183 38.6631 203.937 40.3095 202.568 41.6777C201.2 43.0459 199.554 43.2919 198.583 43.292H191.791C190.82 43.292 189.173 43.0461 187.805 41.6777C186.437 40.3095 186.19 38.6631 186.19 37.6924V6.90039C186.19 5.92967 186.436 4.28246 187.805 2.91406C189.173 1.54569 190.82 1.2998 191.791 1.2998V6.2998L191.65 6.30957C191.344 6.3532 191.19 6.55023 191.19 6.90039V37.6924L191.2 37.833ZM201.464 16.5713L200.982 16.1191V17.0234L201.027 17.0654L200.982 17.1064V17.6719C200.984 17.6727 200.986 17.673 200.988 17.6738C201.226 17.5646 201.57 17.3619 201.915 16.9951L201.517 16.6211L201.027 17.0654L200.982 17.0234L201.464 16.5713ZM200.597 17.457C200.741 17.5532 200.873 17.6216 200.982 17.6719V17.1064L200.597 17.457ZM200.982 16.1191L200.554 15.7168C200.386 15.8332 200.203 15.9851 200.021 16.1816C199.895 16.3188 199.793 16.4508 199.713 16.5713C199.794 16.6934 199.898 16.8268 200.025 16.9658C200.206 17.1601 200.387 17.3103 200.554 17.4258L200.982 17.0244V16.1191ZM200.982 15.4707V16.0371L201.516 16.5225L201.915 16.1484C201.57 15.7814 201.226 15.5779 200.988 15.4688C200.986 15.4696 200.984 15.4698 200.982 15.4707ZM200.982 15.4707C200.873 15.5209 200.741 15.5903 200.597 15.6865L200.982 16.0371V15.4707ZM205.062 1.2998V6.2998H191.791V1.2998H205.062ZM201.571 16.5723L201.971 16.9355C202.086 16.8087 202.178 16.6842 202.255 16.5713C202.178 16.4587 202.086 16.3354 201.971 16.209L201.571 16.5723ZM204.427 17.1016C204.373 18.2865 204.128 19.1102 203.694 19.5723L203.6 19.668C203.1 20.132 202.227 20.3643 200.982 20.3643L200.51 20.3516C199.451 20.2938 198.705 20.0342 198.271 19.5723C197.85 19.1102 197.614 18.2865 197.562 17.1016L197.551 16.5723C197.551 15.1004 197.791 14.1003 198.271 13.5723C198.766 13.0443 199.67 12.7803 200.982 12.7803L201.461 12.792C202.53 12.8498 203.274 13.1103 203.694 13.5723C204.19 14.1003 204.438 15.1003 204.438 16.5723L204.427 17.1016Z" fill="black"/>
</g>
<g filter="url(#filter11_d_352_7)">
<path d="M165.041 32.2646C165.071 32.5868 165.204 32.8599 165.442 33.084L170.242 37.8838C170.498 38.1558 170.818 38.292 171.202 38.292H184.834C185.184 38.292 185.381 38.139 185.425 37.833L185.435 37.6924V6.90039C185.435 6.50039 185.234 6.2998 184.834 6.2998V1.2998C185.805 1.2998 187.452 1.54566 188.82 2.91406C190.189 4.28245 190.435 5.92968 190.435 6.90039V37.6924C190.435 38.6631 190.188 40.3095 188.82 41.6777C187.452 43.0461 185.805 43.292 184.834 43.292H171.202C169.532 43.292 167.927 42.6537 166.708 41.418L166.707 41.4199L161.907 36.6191V36.6182C160.672 35.3997 160.034 33.7943 160.034 32.124V26.0996H161.084C161.484 26.0995 161.684 25.8999 161.684 25.5V19.0918C161.684 18.692 161.484 18.4923 161.084 18.4922H160.034V6.90039C160.034 5.92967 160.28 4.28246 161.648 2.91406C163.017 1.54569 164.664 1.2998 165.635 1.2998V6.2998L165.494 6.30957C165.188 6.3532 165.034 6.55023 165.034 6.90039V32.124L165.041 32.2646ZM178.042 6.2998C177.642 6.29991 177.442 6.50049 177.442 6.90039V31.8838H173.506C173.186 31.8836 173.026 31.7239 173.026 31.4043V6.90039C173.026 6.55057 172.873 6.35346 172.567 6.30957L172.427 6.2998V1.2998C173.129 1.29986 174.185 1.43062 175.233 2.02051C176.283 1.42992 177.339 1.29984 178.042 1.2998V6.2998ZM184.834 1.2998V6.2998H178.042V1.2998H184.834ZM172.427 1.2998V6.2998H165.635V1.2998H172.427Z" fill="black"/>
</g>
<g filter="url(#filter12_d_352_7)">
<path d="M148.253 25.6406C148.29 25.9032 148.441 26.0533 148.703 26.0908L148.844 26.0996H161.084L161.225 26.0908C161.487 26.0533 161.636 25.903 161.674 25.6406L161.684 25.5V19.0918C161.684 18.742 161.531 18.5448 161.225 18.501L161.084 18.4922V13.4922C162.047 13.4922 163.673 13.7349 165.034 15.0732V29.5176C163.673 30.8564 162.047 31.0996 161.084 31.0996H148.844C147.873 31.0996 146.227 30.8537 144.858 29.4854C144.466 29.0934 144.168 28.6779 143.939 28.2627L143.894 28.1641L143.865 28.127C143.358 27.1387 143.244 26.1622 143.244 25.5V22.9473L143.485 22.7402L146.126 20.1719C146.286 20.012 146.365 19.828 146.365 19.6201V14.042C147.302 13.5968 148.215 13.4922 148.844 13.4922V18.4922L148.703 18.501C148.397 18.5447 148.244 18.7419 148.244 19.0918V25.5L148.253 25.6406ZM161.084 13.4922V18.4922H148.844V13.4922H161.084Z" fill="black"/>
</g>
<g filter="url(#filter13_d_352_7)">
<path d="M135.302 26.5801L139.166 37.8115L139.219 37.9248C139.336 38.1347 139.516 38.2542 139.759 38.2842L139.886 38.292H146.222L146.362 38.2822C146.625 38.2447 146.775 38.0953 146.812 37.833L146.821 37.6924V34.8838C146.821 34.6921 146.798 34.5322 146.75 34.4043C146.718 34.2603 146.669 34.1157 146.605 33.9717L143.894 28.1641L141.254 24.6602L143.485 22.7402L146.126 20.1719L148.244 22.3486V25.0859L148.008 25.3154L148.202 25.5742L148.271 25.7246C148.289 25.7916 148.317 25.8484 148.353 25.8975L148.424 26.0488L151.136 31.8564L151.156 31.8984L151.175 31.9414C151.328 32.2855 151.457 32.6512 151.56 33.0361C151.773 33.7519 151.821 34.4019 151.821 34.8838V37.6924C151.821 38.6632 151.575 40.3095 150.207 41.6777C148.839 43.046 147.192 43.292 146.222 43.292H139.886C138.942 43.292 137.775 43.0699 136.668 42.332C136.568 42.2654 136.473 42.1956 136.38 42.125C135.13 43.1008 133.755 43.292 132.901 43.292H126.494C125.523 43.292 123.876 43.0461 122.508 41.6777C121.14 40.3095 120.894 38.6631 120.894 37.6924V6.90039C120.894 5.92967 121.139 4.28246 122.508 2.91406C123.876 1.54569 125.523 1.2998 126.494 1.2998V6.2998L126.354 6.30957C126.047 6.3532 125.894 6.55023 125.894 6.90039V37.6924C125.894 38.0423 126.047 38.2386 126.354 38.2822L126.494 38.292H132.901C133.251 38.292 133.448 38.139 133.492 37.833L133.502 37.6924V26.5801H135.302ZM146.365 19.6201V13.0439C146.365 12.7882 146.342 12.6042 146.294 12.4922C146.262 12.3802 146.157 12.244 145.981 12.084L140.462 6.6123C140.238 6.43028 139.965 6.32742 139.643 6.30469L139.502 6.2998V1.2998C140.753 1.29986 142.14 1.63736 143.371 2.54297L143.614 2.73145L143.807 2.88672L143.981 3.06152L149.502 8.5332L149.5 8.53418C149.855 8.87286 150.539 9.59816 150.954 10.6836C150.964 10.71 150.975 10.7364 150.984 10.7627C150.996 10.7956 151.008 10.8288 151.02 10.8623C151.363 11.8421 151.365 12.7291 151.365 13.0439V18.4922H148.844C148.444 18.4922 148.244 18.6919 148.244 19.0918V22.3486L146.126 20.1719C146.266 20.032 146.345 19.8738 146.362 19.6973L146.365 19.6201ZM136.901 16.7178L136.142 16.0449V17.4111L136.901 16.7178ZM136.142 17.7158C136.144 17.7168 136.146 17.7178 136.148 17.7188C136.184 17.7033 136.222 17.6844 136.264 17.6641L136.142 17.5586V17.7158ZM135.969 17.6338C136.031 17.6667 136.09 17.6934 136.142 17.7158V17.5586L136.097 17.5205L135.969 17.6338ZM136.136 17.4863L136.142 17.4902V17.4814L136.136 17.4863ZM136.142 15.7969V16.0449L136.901 16.7178L137.124 16.5156C136.76 16.1162 136.391 15.9026 136.146 15.7939C136.145 15.7947 136.143 15.7961 136.142 15.7969ZM139.502 1.2998V6.2998H126.494V1.2998H139.502ZM134.951 16.7637C134.989 16.8139 135.031 16.8654 135.076 16.918C135.373 17.2593 135.68 17.4745 135.924 17.6084L136.058 17.4873L135.058 16.6299C135.019 16.6749 134.984 16.7204 134.951 16.7637ZM136.142 15.7969C135.883 15.9117 135.488 16.141 135.104 16.5762L136.097 17.4512L136.142 17.4111V15.7969ZM137.173 16.5684L136.142 17.4814V17.4902L136.311 17.6406C136.546 17.5183 136.848 17.3153 137.146 16.9863C137.215 16.9094 137.275 16.8338 137.329 16.7617C137.282 16.6997 137.231 16.6341 137.173 16.5684ZM139.573 16.7637C139.573 18.2836 139.333 19.3238 138.854 19.8838C138.374 20.4278 137.47 20.7002 136.142 20.7002L135.669 20.6875C134.61 20.628 133.864 20.3598 133.43 19.8838C132.934 19.3238 132.686 18.2836 132.686 16.7637C132.686 15.3238 132.904 14.32 133.34 13.752L133.43 13.6436C133.926 13.0837 134.83 12.8037 136.142 12.8037C137.469 12.8037 138.373 13.0838 138.854 13.6436C139.333 14.1875 139.573 15.2278 139.573 16.7637Z" fill="black"/>
</g>
<g filter="url(#filter14_d_352_7)">
<path d="M102.231 37.833C102.269 38.0954 102.419 38.2448 102.682 38.2822L102.822 38.292H119.55L119.69 38.2822C119.953 38.2447 120.103 38.0953 120.141 37.833L120.149 37.6924V32.4844C120.149 32.1344 119.997 31.9373 119.69 31.8936L119.55 31.8838H110.214V25.0918H118.733C119.083 25.0918 119.28 24.9389 119.324 24.6328L119.334 24.4922V20.0996C119.334 19.7497 119.18 19.5534 118.874 19.5098L118.733 19.5H110.214V12.6836H119.55L119.69 12.6748C119.997 12.6311 120.149 12.434 120.149 12.084V6.90039C120.149 6.5504 119.997 6.35333 119.69 6.30957L119.55 6.2998V1.2998C120.52 1.29981 122.167 1.54592 123.535 2.91406C124.904 4.28246 125.149 5.92967 125.149 6.90039V12.084C125.149 13.0547 124.904 14.7009 123.535 16.0693C123.38 16.2244 123.22 16.3637 123.06 16.4912C124.128 17.7749 124.334 19.2161 124.334 20.0996V24.4922C124.334 25.3724 124.129 26.8058 123.071 28.0859C123.228 28.2109 123.384 28.3468 123.535 28.498C124.904 29.8664 125.149 31.5137 125.149 32.4844V37.6924C125.149 38.6632 124.903 40.3095 123.535 41.6777C122.167 43.046 120.52 43.292 119.55 43.292H102.822C101.852 43.292 100.204 43.0461 98.8359 41.6777C97.4678 40.3095 97.2217 38.6631 97.2217 37.6924V6.90039C97.2217 5.92967 97.4675 4.28246 98.8359 2.91406C100.204 1.54569 101.852 1.2998 102.822 1.2998V6.2998L102.682 6.30957C102.375 6.3532 102.222 6.55023 102.222 6.90039V37.6924L102.231 37.833ZM119.55 1.2998V6.2998H102.822V1.2998H119.55Z" fill="black"/>
</g>
<g filter="url(#filter15_d_352_7)">
<path d="M61.7285 32.2646C61.7582 32.5868 61.8918 32.8599 62.1299 33.084L66.9297 37.8838C67.1857 38.1558 67.5057 38.292 67.8896 38.292H73.5303L73.666 38.2852C73.9329 38.2596 74.1728 38.158 74.3857 37.9795L74.4902 37.8838L78.5215 33.8516H79.6494L83.6816 37.8838C83.9536 38.1557 84.2737 38.2919 84.6416 38.292H90.2822L90.418 38.2852C90.6848 38.2596 90.9248 38.158 91.1377 37.9795L91.2422 37.8838L96.042 33.084C96.28 32.8599 96.4137 32.5867 96.4434 32.2646L96.4502 32.124V6.90039C96.4502 6.50039 96.2496 6.2998 95.8496 6.2998V1.2998C96.8202 1.2998 98.4666 1.546 99.835 2.91406C101.203 4.28246 101.45 5.92967 101.45 6.90039V32.124C101.45 33.7945 100.811 35.3987 99.5752 36.6172L99.5771 36.6191L94.7773 41.4199C93.6151 42.5821 92.0415 43.2919 90.2822 43.292H84.6416C82.8823 43.2919 81.3088 42.5821 80.1465 41.4199L79.0859 40.3594L78.0254 41.4199C76.8631 42.5821 75.2895 43.2919 73.5303 43.292H67.8896C66.2191 43.292 64.614 42.6537 63.3955 41.418L63.3945 41.4199L58.5947 36.6191V36.6182C57.3593 35.3997 56.7217 33.7943 56.7217 32.124V6.90039C56.7217 5.92967 56.9675 4.28246 58.3359 2.91406C59.7043 1.54569 61.3516 1.2998 62.3223 1.2998V6.2998L62.1816 6.30957C61.8751 6.3532 61.7217 6.55023 61.7217 6.90039V32.124L61.7285 32.2646ZM75.6895 6.2998C75.2897 6.29992 75.0898 6.50051 75.0898 6.90039V31.8604H69.7139V6.90039C69.7139 6.55057 69.5608 6.35346 69.2549 6.30957L69.1143 6.2998V1.2998C69.9247 1.29987 71.2043 1.47356 72.4014 2.32617C73.5987 1.47317 74.8789 1.29985 75.6895 1.2998V6.2998ZM89.0342 6.2998L88.8936 6.30957C88.5871 6.35322 88.4336 6.55026 88.4336 6.90039V31.8604H83.082V6.90039C83.082 6.50039 82.8814 6.2998 82.4814 6.2998V1.2998C83.2891 1.2998 84.5639 1.47189 85.7578 2.31738C86.9517 1.4719 88.2265 1.2998 89.0342 1.2998V6.2998ZM95.8496 1.2998V6.2998H89.0342V1.2998H95.8496ZM82.4814 1.2998V6.2998H75.6895V1.2998H82.4814ZM69.1143 1.2998V6.2998H62.3223V1.2998H69.1143Z" fill="black"/>
</g>
<g filter="url(#filter16_d_352_7)">
<path d="M34.2129 32.2646C34.2426 32.5868 34.3762 32.8599 34.6143 33.084L39.4141 37.8838C39.686 38.1558 40.0061 38.292 40.374 38.292H49.8066L49.9473 38.2852C50.2692 38.2554 50.5426 38.1218 50.7666 37.8838L55.5664 33.084C55.8044 32.8599 55.9381 32.5867 55.9678 32.2646L55.9746 32.124V12.4443C55.9746 12.1223 55.8704 11.8364 55.6621 11.5879L55.5664 11.4844L50.7666 6.68359C50.5426 6.45961 50.2692 6.33368 49.9473 6.30566L49.8066 6.2998V1.2998C51.3261 1.29991 52.8446 1.82164 54.0625 2.9209L54.3018 3.14844L59.1016 7.94824C60.2639 9.11061 60.9746 10.6848 60.9746 12.4443V32.124C60.9746 33.7945 60.3352 35.3987 59.0996 36.6172L59.1016 36.6191L54.3018 41.4199L54.2998 41.418C53.0814 42.6534 51.4769 43.2919 49.8066 43.292H40.374C38.6147 43.292 37.0412 42.5821 35.8789 41.4199L31.0791 36.6191V36.6182C29.8437 35.3997 29.2061 33.7943 29.2061 32.124V22.4092L29.9316 21.6836C30.2036 21.4276 30.3398 21.1076 30.3398 20.7236V12.4443C30.3398 12.0764 30.2036 11.7564 29.9316 11.4844L29.3867 10.9385C29.6666 9.79034 30.2603 8.76702 31.0791 7.94824L35.9326 3.09473L35.9873 3.04297C37.1713 1.92864 38.7113 1.29984 40.374 1.2998V6.2998C40.0061 6.29984 39.686 6.42772 39.4141 6.68359L34.6143 11.4844C34.3424 11.7563 34.2061 12.0764 34.2061 12.4443V32.124L34.2129 32.2646ZM47.9824 30.54L47.9785 30.7031C47.9391 31.4902 47.6042 31.8836 46.9746 31.8838H43.2061C42.5912 31.8837 42.2641 31.4903 42.2256 30.7031L42.2227 30.54V14.0518C42.2227 13.14 42.5502 12.6836 43.2061 12.6836H46.9746C47.6463 12.6838 47.9824 13.1401 47.9824 14.0518V30.54ZM49.8066 1.2998V6.2998H40.374V1.2998H49.8066Z" fill="black"/>
</g>
<g filter="url(#filter17_d_352_7)">
<path d="M10.3096 37.833C10.3472 38.0954 10.4972 38.2448 10.7598 38.2822L10.9004 38.292H17.6924L17.833 38.2822C18.0951 38.2446 18.2446 38.0951 18.2822 37.833L18.292 37.6924V26.8916H24.1719C24.5558 26.8916 24.8759 26.7562 25.1318 26.4844L29.9316 21.6836C30.2036 21.4276 30.3398 21.1076 30.3398 20.7236V12.4443C30.3398 12.1222 30.2358 11.8365 30.0273 11.5879L29.9316 11.4844L25.1318 6.68359C24.8759 6.42775 24.5558 6.2998 24.1719 6.2998V1.2998C25.7926 1.2998 27.412 1.89362 28.667 3.14844L33.4678 7.94824C34.2865 8.76695 34.8783 9.79047 35.1582 10.9385L34.6143 11.4844C34.3424 11.7563 34.2061 12.0764 34.2061 12.4443V24.3477C33.9901 24.6553 33.7421 24.9453 33.4658 25.2178L33.4678 25.2197L28.667 30.0195L28.665 30.0176C27.4465 31.2531 25.8423 31.8916 24.1719 31.8916H23.292V37.6924C23.2919 38.6631 23.0459 40.3095 21.6777 41.6777C20.3096 43.0459 18.6632 43.2919 17.6924 43.292H10.9004C9.92967 43.292 8.28246 43.0461 6.91406 41.6777C5.5459 40.3095 5.29987 38.6631 5.2998 37.6924V6.90039C5.2998 5.92967 5.54566 4.28246 6.91406 2.91406C8.28245 1.54569 9.92968 1.2998 10.9004 1.2998V6.2998L10.7598 6.30957C10.4532 6.3532 10.2998 6.55023 10.2998 6.90039V37.6924L10.3096 37.833ZM20.5732 16.5713L20.0918 16.1191V17.0234L20.1367 17.0654L20.0918 17.1064V17.6719C20.0937 17.6727 20.0958 17.673 20.0977 17.6738C20.3352 17.5646 20.6799 17.3619 21.0244 16.9951L20.626 16.6211L20.1367 17.0654L20.0918 17.0234L20.5732 16.5713ZM19.7061 17.457C19.85 17.5532 19.9824 17.6216 20.0918 17.6719V17.1064L19.7061 17.457ZM20.0918 16.1191L19.6631 15.7168C19.4951 15.8332 19.3124 15.9851 19.1299 16.1816C19.0044 16.3188 18.9027 16.4508 18.8223 16.5713C18.9036 16.6934 19.0071 16.8268 19.1348 16.9658C19.3158 17.1601 19.4965 17.3103 19.6631 17.4258L20.0918 17.0244V16.1191ZM20.0918 15.4707V16.0371L20.625 16.5225L21.0244 16.1484C20.6796 15.7814 20.3352 15.5779 20.0977 15.4688C20.0958 15.4696 20.0937 15.4698 20.0918 15.4707ZM20.0918 15.4707C19.9823 15.5209 19.8502 15.5903 19.7061 15.6865L20.0918 16.0371V15.4707ZM24.1719 1.2998V6.2998H10.9004V1.2998H24.1719ZM20.6807 16.5723L21.0801 16.9355C21.1954 16.8087 21.2874 16.6842 21.3643 16.5713C21.2875 16.4587 21.1949 16.3354 21.0801 16.209L20.6807 16.5723ZM23.5361 17.1016C23.4819 18.2865 23.2377 19.1102 22.8037 19.5723L22.709 19.668C22.2093 20.132 21.3368 20.3643 20.0918 20.3643L19.6191 20.3516C18.5604 20.2938 17.8139 20.0342 17.3799 19.5723C16.9598 19.1102 16.7234 18.2865 16.6709 17.1016L16.6602 16.5723C16.6602 15.1004 16.9 14.1003 17.3799 13.5723C17.8759 13.0443 18.7799 12.7803 20.0918 12.7803L20.5703 12.792C21.6394 12.8498 22.3837 13.1103 22.8037 13.5723C23.2997 14.1003 23.5479 15.1003 23.5479 16.5723L23.5361 17.1016Z" fill="black"/>
</g>
<defs>
<filter id="filter0_d_352_7" x="209.077" y="4.9998" width="25.3598" height="42.5922" filterUnits="userSpaceOnUse" color-interpolation-filters="sRGB">
<feFlood flood-opacity="0" result="BackgroundImageFix"/>
<feColorMatrix in="SourceAlpha" type="matrix" values="0 0 0 0 0 0 0 0 0 0 0 0 0 0 0 0 0 0 127 0" result="hardAlpha"/>
<feOffset dy="4"/>
<feGaussianBlur stdDeviation="2.65"/>
<feComposite in2="hardAlpha" operator="out"/>
<feColorMatrix type="matrix" values="0 0 0 0 0 0 0 0 0 0 0 0 0 0 0 0 0 0 0.25 0"/>
<feBlend mode="normal" in2="BackgroundImageFix" result="effect1_dropShadow_352_7"/>
<feBlend mode="normal" in="SourceGraphic" in2="effect1_dropShadow_352_7" result="shape"/>
</filter>
<filter id="filter1_d_352_7" x="185.89" y="4.9998" width="30.64" height="42.5922" filterUnits="userSpaceOnUse" color-interpolation-filters="sRGB">
<feFlood flood-opacity="0" result="BackgroundImageFix"/>
<feColorMatrix in="SourceAlpha" type="matrix" values="0 0 0 0 0 0 0 0 0 0 0 0 0 0 0 0 0 0 127 0" result="hardAlpha"/>
<feOffset dy="4"/>
<feGaussianBlur stdDeviation="2.65"/>
<feComposite in2="hardAlpha" operator="out"/>
<feColorMatrix type="matrix" values="0 0 0 0 0 0 0 0 0 0 0 0 0 0 0 0 0 0 0.25 0"/>
<feBlend mode="normal" in2="BackgroundImageFix" result="effect1_dropShadow_352_7"/>
<feBlend mode="normal" in="SourceGraphic" in2="effect1_dropShadow_352_7" result="shape"/>
</filter>
<filter id="filter2_d_352_7" x="159.734" y="4.9998" width="30.9999" height="42.5922" filterUnits="userSpaceOnUse" color-interpolation-filters="sRGB">
<feFlood flood-opacity="0" result="BackgroundImageFix"/>
<feColorMatrix in="SourceAlpha" type="matrix" values="0 0 0 0 0 0 0 0 0 0 0 0 0 0 0 0 0 0 127 0" result="hardAlpha"/>
<feOffset dy="4"/>
<feGaussianBlur stdDeviation="2.65"/>
<feComposite in2="hardAlpha" operator="out"/>
<feColorMatrix type="matrix" values="0 0 0 0 0 0 0 0 0 0 0 0 0 0 0 0 0 0 0.25 0"/>
<feBlend mode="normal" in2="BackgroundImageFix" result="effect1_dropShadow_352_7"/>
<feBlend mode="normal" in="SourceGraphic" in2="effect1_dropShadow_352_7" result="shape"/>
</filter>
<filter id="filter3_d_352_7" x="142.944" y="17.1922" width="24.0399" height="18.2084" filterUnits="userSpaceOnUse" color-interpolation-filters="sRGB">
<feFlood flood-opacity="0" result="BackgroundImageFix"/>
<feColorMatrix in="SourceAlpha" type="matrix" values="0 0 0 0 0 0 0 0 0 0 0 0 0 0 0 0 0 0 127 0" result="hardAlpha"/>
<feOffset dy="4"/>
<feGaussianBlur stdDeviation="2.65"/>
<feComposite in2="hardAlpha" operator="out"/>
<feColorMatrix type="matrix" values="0 0 0 0 0 0 0 0 0 0 0 0 0 0 0 0 0 0 0.25 0"/>
<feBlend mode="normal" in2="BackgroundImageFix" result="effect1_dropShadow_352_7"/>
<feBlend mode="normal" in="SourceGraphic" in2="effect1_dropShadow_352_7" result="shape"/>
</filter>
<filter id="filter4_d_352_7" x="120.594" y="4.9998" width="31.5282" height="42.5922" filterUnits="userSpaceOnUse" color-interpolation-filters="sRGB">
<feFlood flood-opacity="0" result="BackgroundImageFix"/>
<feColorMatrix in="SourceAlpha" type="matrix" values="0 0 0 0 0 0 0 0 0 0 0 0 0 0 0 0 0 0 127 0" result="hardAlpha"/>
<feOffset dy="4"/>
<feGaussianBlur stdDeviation="2.65"/>
<feComposite in2="hardAlpha" operator="out"/>
<feColorMatrix type="matrix" values="0 0 0 0 0 0 0 0 0 0 0 0 0 0 0 0 0 0 0.25 0"/>
<feBlend mode="normal" in2="BackgroundImageFix" result="effect1_dropShadow_352_7"/>
<feBlend mode="normal" in="SourceGraphic" in2="effect1_dropShadow_352_7" result="shape"/>
</filter>
<filter id="filter5_d_352_7" x="96.9217" y="4.9998" width="28.5282" height="42.5922" filterUnits="userSpaceOnUse" color-interpolation-filters="sRGB">
<feFlood flood-opacity="0" result="BackgroundImageFix"/>
<feColorMatrix in="SourceAlpha" type="matrix" values="0 0 0 0 0 0 0 0 0 0 0 0 0 0 0 0 0 0 127 0" result="hardAlpha"/>
<feOffset dy="4"/>
<feGaussianBlur stdDeviation="2.65"/>
<feComposite in2="hardAlpha" operator="out"/>
<feColorMatrix type="matrix" values="0 0 0 0 0 0 0 0 0 0 0 0 0 0 0 0 0 0 0.25 0"/>
<feBlend mode="normal" in2="BackgroundImageFix" result="effect1_dropShadow_352_7"/>
<feBlend mode="normal" in="SourceGraphic" in2="effect1_dropShadow_352_7" result="shape"/>
</filter>
<filter id="filter6_d_352_7" x="56.4217" y="4.9998" width="45.328" height="42.5922" filterUnits="userSpaceOnUse" color-interpolation-filters="sRGB">
<feFlood flood-opacity="0" result="BackgroundImageFix"/>
<feColorMatrix in="SourceAlpha" type="matrix" values="0 0 0 0 0 0 0 0 0 0 0 0 0 0 0 0 0 0 127 0" result="hardAlpha"/>
<feOffset dy="4"/>
<feGaussianBlur stdDeviation="2.65"/>
<feComposite in2="hardAlpha" operator="out"/>
<feColorMatrix type="matrix" values="0 0 0 0 0 0 0 0 0 0 0 0 0 0 0 0 0 0 0.25 0"/>
<feBlend mode="normal" in2="BackgroundImageFix" result="effect1_dropShadow_352_7"/>
<feBlend mode="normal" in="SourceGraphic" in2="effect1_dropShadow_352_7" result="shape"/>
</filter>
<filter id="filter7_d_352_7" x="28.9061" y="4.9998" width="32.3681" height="42.5922" filterUnits="userSpaceOnUse" color-interpolation-filters="sRGB">
<feFlood flood-opacity="0" result="BackgroundImageFix"/>
<feColorMatrix in="SourceAlpha" type="matrix" values="0 0 0 0 0 0 0 0 0 0 0 0 0 0 0 0 0 0 127 0" result="hardAlpha"/>
<feOffset dy="4"/>
<feGaussianBlur stdDeviation="2.65"/>
<feComposite in2="hardAlpha" operator="out"/>
<feColorMatrix type="matrix" values="0 0 0 0 0 0 0 0 0 0 0 0 0 0 0 0 0 0 0.25 0"/>
<feBlend mode="normal" in2="BackgroundImageFix" result="effect1_dropShadow_352_7"/>
<feBlend mode="normal" in="SourceGraphic" in2="effect1_dropShadow_352_7" result="shape"/>
</filter>
<filter id="filter8_d_352_7" x="4.9998" y="4.9998" width="30.64" height="42.5922" filterUnits="userSpaceOnUse" color-interpolation-filters="sRGB">
<feFlood flood-opacity="0" result="BackgroundImageFix"/>
<feColorMatrix in="SourceAlpha" type="matrix" values="0 0 0 0 0 0 0 0 0 0 0 0 0 0 0 0 0 0 127 0" result="hardAlpha"/>
<feOffset dy="4"/>
<feGaussianBlur stdDeviation="2.65"/>
<feComposite in2="hardAlpha" operator="out"/>
<feColorMatrix type="matrix" values="0 0 0 0 0 0 0 0 0 0 0 0 0 0 0 0 0 0 0.25 0"/>
<feBlend mode="normal" in2="BackgroundImageFix" result="effect1_dropShadow_352_7"/>
<feBlend mode="normal" in="SourceGraphic" in2="effect1_dropShadow_352_7" result="shape"/>
</filter>
<filter id="filter9_d_352_7" x="204.077" y="-0.000195503" width="35.3598" height="52.5922" filterUnits="userSpaceOnUse" color-interpolation-filters="sRGB">
<feFlood flood-opacity="0" result="BackgroundImageFix"/>
<feColorMatrix in="SourceAlpha" type="matrix" values="0 0 0 0 0 0 0 0 0 0 0 0 0 0 0 0 0 0 127 0" result="hardAlpha"/>
<feOffset dy="4"/>
<feGaussianBlur stdDeviation="2.65"/>
<feComposite in2="hardAlpha" operator="out"/>
<feColorMatrix type="matrix" values="0 0 0 0 0 0 0 0 0 0 0 0 0 0 0 0 0 0 0.25 0"/>
<feBlend mode="normal" in2="BackgroundImageFix" result="effect1_dropShadow_352_7"/>
<feBlend mode="normal" in="SourceGraphic" in2="effect1_dropShadow_352_7" result="shape"/>
</filter>
<filter id="filter10_d_352_7" x="180.89" y="-0.000195503" width="40.475" height="52.5922" filterUnits="userSpaceOnUse" color-interpolation-filters="sRGB">
<feFlood flood-opacity="0" result="BackgroundImageFix"/>
<feColorMatrix in="SourceAlpha" type="matrix" values="0 0 0 0 0 0 0 0 0 0 0 0 0 0 0 0 0 0 127 0" result="hardAlpha"/>
<feOffset dy="4"/>
<feGaussianBlur stdDeviation="2.65"/>
<feComposite in2="hardAlpha" operator="out"/>
<feColorMatrix type="matrix" values="0 0 0 0 0 0 0 0 0 0 0 0 0 0 0 0 0 0 0.25 0"/>
<feBlend mode="normal" in2="BackgroundImageFix" result="effect1_dropShadow_352_7"/>
<feBlend mode="normal" in="SourceGraphic" in2="effect1_dropShadow_352_7" result="shape"/>
</filter>
<filter id="filter11_d_352_7" x="154.734" y="-0.000195503" width="41.0004" height="52.5922" filterUnits="userSpaceOnUse" color-interpolation-filters="sRGB">
<feFlood flood-opacity="0" result="BackgroundImageFix"/>
<feColorMatrix in="SourceAlpha" type="matrix" values="0 0 0 0 0 0 0 0 0 0 0 0 0 0 0 0 0 0 127 0" result="hardAlpha"/>
<feOffset dy="4"/>
<feGaussianBlur stdDeviation="2.65"/>
<feComposite in2="hardAlpha" operator="out"/>
<feColorMatrix type="matrix" values="0 0 0 0 0 0 0 0 0 0 0 0 0 0 0 0 0 0 0.25 0"/>
<feBlend mode="normal" in2="BackgroundImageFix" result="effect1_dropShadow_352_7"/>
<feBlend mode="normal" in="SourceGraphic" in2="effect1_dropShadow_352_7" result="shape"/>
</filter>
<filter id="filter12_d_352_7" x="137.944" y="12.1922" width="32.39" height="28.2074" filterUnits="userSpaceOnUse" color-interpolation-filters="sRGB">
<feFlood flood-opacity="0" result="BackgroundImageFix"/>
<feColorMatrix in="SourceAlpha" type="matrix" values="0 0 0 0 0 0 0 0 0 0 0 0 0 0 0 0 0 0 127 0" result="hardAlpha"/>
<feOffset dy="4"/>
<feGaussianBlur stdDeviation="2.65"/>
<feComposite in2="hardAlpha" operator="out"/>
<feColorMatrix type="matrix" values="0 0 0 0 0 0 0 0 0 0 0 0 0 0 0 0 0 0 0.25 0"/>
<feBlend mode="normal" in2="BackgroundImageFix" result="effect1_dropShadow_352_7"/>
<feBlend mode="normal" in="SourceGraphic" in2="effect1_dropShadow_352_7" result="shape"/>
</filter>
<filter id="filter13_d_352_7" x="115.594" y="-0.000195503" width="41.5277" height="52.5922" filterUnits="userSpaceOnUse" color-interpolation-filters="sRGB">
<feFlood flood-opacity="0" result="BackgroundImageFix"/>
<feColorMatrix in="SourceAlpha" type="matrix" values="0 0 0 0 0 0 0 0 0 0 0 0 0 0 0 0 0 0 127 0" result="hardAlpha"/>
<feOffset dy="4"/>
<feGaussianBlur stdDeviation="2.65"/>
<feComposite in2="hardAlpha" operator="out"/>
<feColorMatrix type="matrix" values="0 0 0 0 0 0 0 0 0 0 0 0 0 0 0 0 0 0 0.25 0"/>
<feBlend mode="normal" in2="BackgroundImageFix" result="effect1_dropShadow_352_7"/>
<feBlend mode="normal" in="SourceGraphic" in2="effect1_dropShadow_352_7" result="shape"/>
</filter>
<filter id="filter14_d_352_7" x="91.9217" y="-0.000195503" width="38.5277" height="52.5922" filterUnits="userSpaceOnUse" color-interpolation-filters="sRGB">
<feFlood flood-opacity="0" result="BackgroundImageFix"/>
<feColorMatrix in="SourceAlpha" type="matrix" values="0 0 0 0 0 0 0 0 0 0 0 0 0 0 0 0 0 0 127 0" result="hardAlpha"/>
<feOffset dy="4"/>
<feGaussianBlur stdDeviation="2.65"/>
<feComposite in2="hardAlpha" operator="out"/>
<feColorMatrix type="matrix" values="0 0 0 0 0 0 0 0 0 0 0 0 0 0 0 0 0 0 0.25 0"/>
<feBlend mode="normal" in2="BackgroundImageFix" result="effect1_dropShadow_352_7"/>
<feBlend mode="normal" in="SourceGraphic" in2="effect1_dropShadow_352_7" result="shape"/>
</filter>
<filter id="filter15_d_352_7" x="51.4217" y="-0.000195503" width="55.3285" height="52.5922" filterUnits="userSpaceOnUse" color-interpolation-filters="sRGB">
<feFlood flood-opacity="0" result="BackgroundImageFix"/>
<feColorMatrix in="SourceAlpha" type="matrix" values="0 0 0 0 0 0 0 0 0 0 0 0 0 0 0 0 0 0 127 0" result="hardAlpha"/>
<feOffset dy="4"/>
<feGaussianBlur stdDeviation="2.65"/>
<feComposite in2="hardAlpha" operator="out"/>
<feColorMatrix type="matrix" values="0 0 0 0 0 0 0 0 0 0 0 0 0 0 0 0 0 0 0.25 0"/>
<feBlend mode="normal" in2="BackgroundImageFix" result="effect1_dropShadow_352_7"/>
<feBlend mode="normal" in="SourceGraphic" in2="effect1_dropShadow_352_7" result="shape"/>
</filter>
<filter id="filter16_d_352_7" x="23.9061" y="-0.000195503" width="42.3686" height="52.5922" filterUnits="userSpaceOnUse" color-interpolation-filters="sRGB">
<feFlood flood-opacity="0" result="BackgroundImageFix"/>
<feColorMatrix in="SourceAlpha" type="matrix" values="0 0 0 0 0 0 0 0 0 0 0 0 0 0 0 0 0 0 127 0" result="hardAlpha"/>
<feOffset dy="4"/>
<feGaussianBlur stdDeviation="2.65"/>
<feComposite in2="hardAlpha" operator="out"/>
<feColorMatrix type="matrix" values="0 0 0 0 0 0 0 0 0 0 0 0 0 0 0 0 0 0 0.25 0"/>
<feBlend mode="normal" in2="BackgroundImageFix" result="effect1_dropShadow_352_7"/>
<feBlend mode="normal" in="SourceGraphic" in2="effect1_dropShadow_352_7" result="shape"/>
</filter>
<filter id="filter17_d_352_7" x="-0.000195503" y="-0.000195503" width="40.4584" height="52.5922" filterUnits="userSpaceOnUse" color-interpolation-filters="sRGB">
<feFlood flood-opacity="0" result="BackgroundImageFix"/>
<feColorMatrix in="SourceAlpha" type="matrix" values="0 0 0 0 0 0 0 0 0 0 0 0 0 0 0 0 0 0 127 0" result="hardAlpha"/>
<feOffset dy="4"/>
<feGaussianBlur stdDeviation="2.65"/>
<feComposite in2="hardAlpha" operator="out"/>
<feColorMatrix type="matrix" values="0 0 0 0 0 0 0 0 0 0 0 0 0 0 0 0 0 0 0.25 0"/>
<feBlend mode="normal" in2="BackgroundImageFix" result="effect1_dropShadow_352_7"/>
<feBlend mode="normal" in="SourceGraphic" in2="effect1_dropShadow_352_7" result="shape"/>
</filter>
</defs>
</svg>
