<svg width="118" height="54" viewBox="0 0 118 54" fill="none" xmlns="http://www.w3.org/2000/svg">
<path d="M108.513 52.3119C108.246 52.3119 108.113 52.1733 108.113 51.8959V46.8719C108.113 46.5946 108.246 46.4559 108.513 46.4559H113.553C113.819 46.4559 113.953 46.5946 113.953 46.8719V51.8959C113.953 52.1733 113.819 52.3119 113.553 52.3119H108.513ZM108.513 41.1919C108.246 41.1919 108.113 41.0533 108.113 40.7759V35.7519C108.113 35.4746 108.246 35.3359 108.513 35.3359H113.553C113.819 35.3359 113.953 35.4746 113.953 35.7519V40.7759C113.953 41.0533 113.819 41.1919 113.553 41.1919H108.513Z" fill="#DEDBDB"/>
<path d="M91.6637 52.328C91.397 52.328 91.2637 52.1947 91.2637 51.928V37.096C91.2637 36.9467 91.317 36.7867 91.4237 36.616L95.2157 31.24C95.333 31.08 95.5037 31 95.7277 31H101.152C101.386 31 101.557 31.08 101.664 31.24L105.472 36.616C105.578 36.7653 105.632 36.9253 105.632 37.096V51.928C105.632 52.1947 105.498 52.328 105.232 52.328H100.288C100.021 52.328 99.8877 52.1947 99.8877 51.928V45.384H97.0077V51.928C97.0077 52.1947 96.8743 52.328 96.6077 52.328H91.6637ZM98.4477 41.288C99.269 41.288 99.8397 41.096 100.16 40.712C100.49 40.3173 100.656 39.6293 100.656 38.648C100.656 37.6667 100.49 36.984 100.16 36.6C99.8397 36.216 99.269 36.024 98.4477 36.024C97.637 36.024 97.0663 36.216 96.7357 36.6C96.405 36.984 96.2397 37.6667 96.2397 38.648C96.2397 39.6293 96.405 40.3173 96.7357 40.712C97.0663 41.096 97.637 41.288 98.4477 41.288Z" fill="#DEDBDB"/>
<path d="M74.3824 52.328C74.1158 52.328 73.9824 52.1947 73.9824 51.928V31.4C73.9824 31.1333 74.1158 31 74.3824 31H84.2704C84.5158 31 84.7291 31.0853 84.9104 31.256L88.1104 34.456C88.2811 34.6373 88.3664 34.8507 88.3664 35.096V48.216C88.3664 48.472 88.2811 48.6853 88.1104 48.856L84.9104 52.056C84.7291 52.2373 84.5158 52.328 84.2704 52.328H74.3824ZM79.7264 47.4H81.9664C82.4144 47.4 82.6384 47.096 82.6384 46.488V36.824C82.6384 36.2267 82.4144 35.928 81.9664 35.928H79.7264V47.4Z" fill="#DEDBDB"/>
<path d="M65.65 52.328C65.3833 52.328 65.25 52.1947 65.25 51.928V31.4C65.25 31.1333 65.3833 31 65.65 31H70.594C70.8607 31 70.994 31.1333 70.994 31.4V51.928C70.994 52.1947 70.8607 52.328 70.594 52.328H65.65Z" fill="#DEDBDB"/>
<path d="M53.921 52.328C53.6543 52.328 53.521 52.1947 53.521 51.928V35.928H51.025C50.7583 35.928 50.625 35.7947 50.625 35.528V31.4C50.625 31.1333 50.7583 31 51.025 31H61.793C62.0597 31 62.193 31.1333 62.193 31.4V35.528C62.193 35.7947 62.0597 35.928 61.793 35.928H59.281V51.928C59.281 52.1947 59.1477 52.328 58.881 52.328H53.921Z" fill="#DEDBDB"/>
<path d="M34.5563 52.328C34.2896 52.328 34.1562 52.1947 34.1562 51.928V31.4C34.1562 31.1333 34.2896 31 34.5563 31H43.5643C43.8309 31 44.0443 31.0693 44.2043 31.208L47.8843 34.856C48.0016 34.9627 48.0762 35.0533 48.1082 35.128C48.1403 35.2027 48.1563 35.3253 48.1563 35.496V39.88C48.1563 40.0187 48.0869 40.152 47.9483 40.28L46.0603 42.152L44.9243 43.128L46.4443 45.208L48.3162 49.064C48.3589 49.16 48.3909 49.256 48.4123 49.352C48.4336 49.4373 48.4443 49.544 48.4443 49.672V51.928C48.4443 52.1947 48.3109 52.328 48.0443 52.328H43.5643C43.3296 52.328 43.1696 52.2213 43.0843 52.008L40.6362 45.096H39.7243V51.928C39.7243 52.1947 39.5909 52.328 39.3243 52.328H34.5563ZM41.1483 40.312C41.8949 40.312 42.4229 40.1467 42.7323 39.816C43.0416 39.4747 43.1963 38.888 43.1963 38.056C43.1963 37.2133 43.0416 36.6267 42.7323 36.296C42.4229 35.9547 41.8949 35.784 41.1483 35.784C40.4123 35.784 39.8896 35.9547 39.5802 36.296C39.2709 36.6267 39.1163 37.2133 39.1163 38.056C39.1163 38.888 39.2709 39.4747 39.5802 39.816C39.8896 40.1467 40.4123 40.312 41.1483 40.312Z" fill="#DEDBDB"/>
<path d="M17.1949 52.328C16.9283 52.328 16.7949 52.1947 16.7949 51.928V37.096C16.7949 36.9467 16.8483 36.7867 16.9549 36.616L20.7469 31.24C20.8643 31.08 21.0349 31 21.2589 31H26.6829C26.9176 31 27.0883 31.08 27.1949 31.24L31.0029 36.616C31.1096 36.7653 31.1629 36.9253 31.1629 37.096V51.928C31.1629 52.1947 31.0296 52.328 30.7629 52.328H25.8189C25.5523 52.328 25.4189 52.1947 25.4189 51.928V45.384H22.5389V51.928C22.5389 52.1947 22.4056 52.328 22.1389 52.328H17.1949ZM23.9789 41.288C24.8003 41.288 25.3709 41.096 25.6909 40.712C26.0216 40.3173 26.1869 39.6293 26.1869 38.648C26.1869 37.6667 26.0216 36.984 25.6909 36.6C25.3709 36.216 24.8003 36.024 23.9789 36.024C23.1683 36.024 22.5976 36.216 22.2669 36.6C21.9363 36.984 21.7709 37.6667 21.7709 38.648C21.7709 39.6293 21.9363 40.3173 22.2669 40.712C22.5976 41.096 23.1683 41.288 23.9789 41.288Z" fill="#DEDBDB"/>
<path d="M1.4 52.328C1.13333 52.328 1 52.1947 1 51.928V31.4C1 31.1333 1.13333 31 1.4 31H10.568C10.824 31 11.0373 31.0853 11.208 31.256L14.408 34.456C14.5893 34.6373 14.68 34.8507 14.68 35.096V41.336C14.68 41.592 14.5893 41.8053 14.408 41.976L11.208 45.176C11.0373 45.3573 10.824 45.448 10.568 45.448H6.744V51.928C6.744 52.1947 6.61067 52.328 6.344 52.328H1.4ZM7.688 40.408C8.43467 40.408 8.96267 40.248 9.272 39.928C9.58133 39.5973 9.736 39.0267 9.736 38.216C9.736 37.4053 9.58133 36.8347 9.272 36.504C8.96267 36.1733 8.43467 36.008 7.688 36.008C6.952 36.008 6.42933 36.1733 6.12 36.504C5.81067 36.8347 5.656 37.4053 5.656 38.216C5.656 39.0267 5.81067 39.5973 6.12 39.928C6.42933 40.248 6.952 40.408 7.688 40.408Z" fill="#DEDBDB"/>
<path d="M102.757 22.328C102.491 22.328 102.357 22.1947 102.357 21.928V7.096C102.357 6.94667 102.411 6.78667 102.517 6.616L106.309 1.24C106.427 1.08 106.597 1 106.821 1H112.245C112.48 1 112.651 1.08 112.757 1.24L116.565 6.616C116.672 6.76533 116.725 6.92533 116.725 7.096V21.928C116.725 22.1947 116.592 22.328 116.325 22.328H111.381C111.115 22.328 110.981 22.1947 110.981 21.928V15.384H108.101V21.928C108.101 22.1947 107.968 22.328 107.701 22.328H102.757ZM109.541 11.288C110.363 11.288 110.933 11.096 111.253 10.712C111.584 10.3173 111.749 9.62933 111.749 8.648C111.749 7.66667 111.584 6.984 111.253 6.6C110.933 6.216 110.363 6.024 109.541 6.024C108.731 6.024 108.16 6.216 107.829 6.6C107.499 6.984 107.333 7.66667 107.333 8.648C107.333 9.62933 107.499 10.3173 107.829 10.712C108.16 11.096 108.731 11.288 109.541 11.288Z" fill="#DEDBDB"/>
<path d="M77.65 22.328C77.3833 22.328 77.25 22.1947 77.25 21.928V4.728C77.25 4.48267 77.3353 4.26933 77.506 4.088L80.338 1.256C80.5193 1.08533 80.7327 1 80.978 1H84.594C84.85 1 85.0633 1.08533 85.234 1.256L87.938 3.96H88.674L91.378 1.256C91.5487 1.08533 91.762 1 92.018 1H95.618C95.874 1 96.0873 1.08533 96.258 1.256L99.09 4.088C99.2713 4.26933 99.362 4.48267 99.362 4.728V21.928C99.362 22.1947 99.2287 22.328 98.962 22.328H94.018C93.7513 22.328 93.618 22.1947 93.618 21.928V6.328H91.17V21.928C91.17 22.1947 91.0367 22.328 90.77 22.328H85.842C85.5753 22.328 85.442 22.1947 85.442 21.928V6.328H82.994V21.928C82.994 22.1947 82.8607 22.328 82.594 22.328H77.65Z" fill="#DEDBDB"/>
<path d="M68.8375 22.328C68.5708 22.328 68.4375 22.1947 68.4375 21.928V1.4C68.4375 1.13333 68.5708 1 68.8375 1H73.7815C74.0482 1 74.1815 1.13333 74.1815 1.4V21.928C74.1815 22.1947 74.0482 22.328 73.7815 22.328H68.8375Z" fill="#DEDBDB"/>
<path d="M51.448 22.328C51.1813 22.328 51.048 22.1947 51.048 21.928V14.584C51.048 14.488 51.0533 14.4027 51.064 14.328C51.0853 14.2533 51.1333 14.1787 51.208 14.104L53.288 12.024V11.464L51.16 9.336C51.0853 9.24 51.0373 9.16 51.016 9.096C51.0053 9.02133 51 8.936 51 8.84V1.4C51 1.13333 51.1333 1 51.4 1H56.344C56.6107 1 56.744 1.13333 56.744 1.4V9.24H59.624V1.4C59.624 1.13333 59.7573 1 60.024 1H64.968C65.2347 1 65.368 1.13333 65.368 1.4V8.84C65.368 8.936 65.3627 9.02133 65.352 9.096C65.3413 9.17067 65.2933 9.24533 65.208 9.32L63.08 11.464V12.024L65.16 14.104C65.2453 14.1787 65.2933 14.2533 65.304 14.328C65.3147 14.4027 65.32 14.488 65.32 14.584V21.928C65.32 22.1947 65.1867 22.328 64.92 22.328H59.96C59.6933 22.328 59.56 22.1947 59.56 21.928V14.168H56.808V21.928C56.808 22.1947 56.6747 22.328 56.408 22.328H51.448Z" fill="#DEDBDB"/>
<path d="M37.4398 22.328C37.1944 22.328 36.9811 22.2373 36.7998 22.056L33.5998 18.856C33.4291 18.6853 33.3438 18.472 33.3438 18.216V5.096C33.3438 4.85067 33.4291 4.63733 33.5998 4.456L36.7998 1.256C36.9811 1.08533 37.1944 1 37.4398 1H43.8237C44.0797 1 44.2931 1.08533 44.4637 1.256L47.6638 4.456C47.8451 4.63733 47.9357 4.85067 47.9357 5.096V18.216C47.9357 18.472 47.8451 18.6853 47.6638 18.856L44.4637 22.056C44.2931 22.2373 44.0797 22.328 43.8237 22.328H37.4398ZM39.7598 17.4H41.5198C41.9678 17.4 42.1918 17.096 42.1918 16.488V6.824C42.1918 6.22667 41.9678 5.928 41.5198 5.928H39.7598C39.3118 5.928 39.0877 6.22667 39.0877 6.824V16.488C39.0877 17.096 39.3118 17.4 39.7598 17.4Z" fill="#DEDBDB"/>
<path d="M17.275 22.328C17.0083 22.328 16.875 22.1947 16.875 21.928V1.4C16.875 1.13333 17.0083 1 17.275 1H26.283C26.5497 1 26.763 1.06933 26.923 1.208L30.603 4.856C30.7203 4.96267 30.795 5.05333 30.827 5.128C30.859 5.20267 30.875 5.32533 30.875 5.496V9.88C30.875 10.0187 30.8057 10.152 30.667 10.28L28.779 12.152L27.643 13.128L29.163 15.208L31.035 19.064C31.0777 19.16 31.1097 19.256 31.131 19.352C31.1523 19.4373 31.163 19.544 31.163 19.672V21.928C31.163 22.1947 31.0297 22.328 30.763 22.328H26.283C26.0483 22.328 25.8883 22.2213 25.803 22.008L23.355 15.096H22.443V21.928C22.443 22.1947 22.3097 22.328 22.043 22.328H17.275ZM23.867 10.312C24.6137 10.312 25.1417 10.1467 25.451 9.816C25.7603 9.47467 25.915 8.888 25.915 8.056C25.915 7.21333 25.7603 6.62667 25.451 6.296C25.1417 5.95467 24.6137 5.784 23.867 5.784C23.131 5.784 22.6083 5.95467 22.299 6.296C21.9897 6.62667 21.835 7.21333 21.835 8.056C21.835 8.888 21.9897 9.47467 22.299 9.816C22.6083 10.1467 23.131 10.312 23.867 10.312Z" fill="#DEDBDB"/>
<path d="M1.4 22.328C1.13333 22.328 1 22.1947 1 21.928V1.4C1 1.13333 1.13333 1 1.4 1H10.568C10.824 1 11.0373 1.08533 11.208 1.256L14.408 4.456C14.5893 4.63733 14.68 4.85067 14.68 5.096V11.336C14.68 11.592 14.5893 11.8053 14.408 11.976L11.208 15.176C11.0373 15.3573 10.824 15.448 10.568 15.448H6.744V21.928C6.744 22.1947 6.61067 22.328 6.344 22.328H1.4ZM7.688 10.408C8.43467 10.408 8.96267 10.248 9.272 9.928C9.58133 9.59733 9.736 9.02667 9.736 8.216C9.736 7.40533 9.58133 6.83467 9.272 6.504C8.96267 6.17333 8.43467 6.008 7.688 6.008C6.952 6.008 6.42933 6.17333 6.12 6.504C5.81067 6.83467 5.656 7.40533 5.656 8.216C5.656 9.02667 5.81067 9.59733 6.12 9.928C6.42933 10.248 6.952 10.408 7.688 10.408Z" fill="#DEDBDB"/>
<path d="M108.119 51.9932C108.144 52.1754 108.244 52.2796 108.419 52.3057L108.513 52.3125H113.553L113.646 52.3057C113.822 52.2797 113.921 52.1755 113.946 51.9932L113.953 51.8965V46.8721C113.953 46.5948 113.819 46.4561 113.553 46.4561V45.4561C113.85 45.4561 114.255 45.5359 114.573 45.8672C114.885 46.1913 114.953 46.5889 114.953 46.8721V51.8965C114.953 52.1797 114.885 52.5774 114.573 52.9014C114.255 53.2325 113.85 53.3125 113.553 53.3125H108.513C108.215 53.3125 107.811 53.2326 107.492 52.9014C107.181 52.5774 107.113 52.1797 107.113 51.8965V46.8721C107.113 46.5889 107.181 46.1913 107.492 45.8672C107.811 45.5358 108.215 45.4561 108.513 45.4561V46.4561C108.246 46.4561 108.113 46.5948 108.113 46.8721V51.8965L108.119 51.9932ZM113.553 45.4561V46.4561H108.513V45.4561H113.553ZM108.119 40.874C108.144 41.0557 108.244 41.1595 108.419 41.1855L108.513 41.1924H113.553L113.646 41.1855C113.821 41.1596 113.921 41.0558 113.946 40.874L113.953 40.7764V35.752C113.953 35.4747 113.819 35.3359 113.553 35.3359V34.3359C113.85 34.3359 114.255 34.4158 114.573 34.7471C114.885 35.0711 114.953 35.4688 114.953 35.752V40.7764C114.953 41.0596 114.885 41.4572 114.573 41.7812C114.255 42.1125 113.85 42.1924 113.553 42.1924H108.513C108.215 42.1924 107.811 42.1125 107.492 41.7812C107.181 41.4572 107.113 41.0596 107.113 40.7764V35.752C107.113 35.4688 107.181 35.0711 107.492 34.7471C107.811 34.4158 108.215 34.336 108.513 34.3359V35.3359C108.246 35.336 108.113 35.4748 108.113 35.752V40.7764L108.119 40.874ZM113.553 34.3359V35.3359H108.513V34.3359H113.553Z" fill="black"/>
<path d="M99.8936 52.0215C99.9185 52.1969 100.019 52.2974 100.194 52.3223L100.288 52.3281H105.231C105.465 52.3281 105.596 52.2259 105.625 52.0215L105.632 51.9277V37.0957C105.632 36.968 105.602 36.8462 105.542 36.7305L105.472 36.6162L101.664 31.2402C101.557 31.0802 101.386 31 101.151 31V30C101.629 30 102.144 30.1782 102.479 30.6621L106.288 36.0381H106.287C106.504 36.3428 106.632 36.7021 106.632 37.0957V51.9277C106.632 52.2152 106.559 52.6152 106.238 52.9355C105.918 53.2556 105.519 53.3281 105.231 53.3281H100.288C100.001 53.3281 99.6006 53.2559 99.2803 52.9355C98.9599 52.6152 98.8877 52.2152 98.8877 51.9277V46.3838H98.0078V51.9277C98.0078 52.2152 97.9346 52.6152 97.6143 52.9355C97.294 53.2556 96.8948 53.3281 96.6074 53.3281H91.6641C91.3766 53.3281 90.9766 53.2559 90.6562 52.9355C90.3359 52.6152 90.2637 52.2152 90.2637 51.9277V37.0957C90.2638 36.7046 90.4028 36.3618 90.5752 36.0859L90.5908 36.0625L90.6064 36.04L94.3984 30.6641L94.4033 30.6562L94.4092 30.6484C94.7412 30.1959 95.2323 30 95.7275 30V31C95.5036 31 95.3331 31.0803 95.2158 31.2402L91.4238 36.6162C91.3173 36.7867 91.2638 36.9465 91.2637 37.0957V51.9277C91.2637 52.1613 91.3658 52.2932 91.5703 52.3223L91.6641 52.3281H96.6074C96.8409 52.3281 96.9719 52.2259 97.001 52.0215L97.0078 51.9277V45.3838H99.8877V51.9277L99.8936 52.0215ZM99.6553 38.6484C99.6553 37.7128 99.484 37.3489 99.4014 37.2529L99.3965 37.2461L99.3916 37.2402C99.3554 37.1968 99.1588 37.0244 98.4473 37.0244C97.756 37.0245 97.5447 37.193 97.4932 37.2529C97.4105 37.3493 97.2393 37.7137 97.2393 38.6484C97.2393 39.5581 97.4018 39.9408 97.4961 40.0615C97.5512 40.1234 97.7651 40.288 98.4473 40.2881V41.2881C97.6368 41.288 97.066 41.0959 96.7354 40.7119C96.4461 40.3665 96.2832 39.7965 96.2471 39.002L96.2393 38.6484C96.2393 37.7897 96.3659 37.1591 96.6191 36.7578L96.7354 36.6006C97.066 36.2166 97.6368 36.0245 98.4473 36.0244L98.7441 36.0332C99.4078 36.0752 99.8792 36.2646 100.159 36.6006C100.49 36.9846 100.655 37.6671 100.655 38.6484L100.647 39.002C100.611 39.7967 100.449 40.3665 100.159 40.7119C99.8392 41.0959 99.2685 41.2881 98.4473 41.2881V40.2881C99.1583 40.2881 99.3552 40.1159 99.3916 40.0723L99.3936 40.0703C99.4867 39.9591 99.6552 39.5793 99.6553 38.6484ZM101.151 30V31H95.7275V30H101.151Z" fill="black"/>
<path d="M88.3662 48.2158V35.0957C88.3661 34.8505 88.2809 34.6373 88.1104 34.4561L84.9102 31.2559C84.7517 31.1068 84.5687 31.0226 84.3613 31.0039L84.2705 31V30C84.7118 30 85.117 30.1423 85.4551 30.4072L85.5957 30.5283L85.6064 30.5381L88.8389 33.7705C89.1811 34.1341 89.3661 34.5916 89.3662 35.0957V48.2158C89.3662 48.7192 89.1878 49.193 88.8174 49.5635L85.6172 52.7637C85.2579 53.1228 84.7939 53.3281 84.2705 53.3281H74.3828C74.0953 53.3281 73.6953 53.2559 73.375 52.9355C73.0547 52.6152 72.9824 52.2152 72.9824 51.9277V31.4004C72.9824 31.1129 73.0547 30.7129 73.375 30.3926C73.6953 30.0723 74.0954 30 74.3828 30V31L74.2891 31.0068C74.0846 31.0359 73.9824 31.1669 73.9824 31.4004V51.9277C73.9824 52.1613 74.0846 52.2932 74.2891 52.3223L74.3828 52.3281H84.2705L84.3613 52.3242C84.5688 52.3043 84.7516 52.2142 84.9102 52.0557L88.1104 48.8564C88.281 48.6858 88.3662 48.4718 88.3662 48.2158ZM80.7266 46.4004H81.6387V36.9277H80.7266V46.4004ZM84.2705 30V31H74.3828V30H84.2705ZM82.6387 46.4883L82.6279 46.7021C82.5789 47.1673 82.3585 47.4002 81.9668 47.4004H79.7266V35.9277H81.9668C82.4145 35.9279 82.6387 36.2271 82.6387 36.8242V46.4883Z" fill="black"/>
<path d="M65.2559 52.0215C65.2849 52.2258 65.4162 52.328 65.6494 52.3281H70.5938C70.8272 52.3281 70.9582 52.2259 70.9873 52.0215L70.9941 51.9277V31.4004C70.9941 31.1337 70.8604 31 70.5938 31V30C70.8811 30 71.2803 30.0726 71.6006 30.3926C71.9209 30.7129 71.9941 31.1129 71.9941 31.4004V51.9277C71.9941 52.2152 71.9209 52.6152 71.6006 52.9355C71.2803 53.2556 70.8811 53.3281 70.5938 53.3281H65.6494C65.362 53.328 64.9627 53.2557 64.6426 52.9355C64.3222 52.6152 64.25 52.2152 64.25 51.9277V31.4004C64.25 31.1129 64.3222 30.7129 64.6426 30.3926C64.9627 30.0725 65.362 30.0001 65.6494 30V31C65.383 31.0002 65.25 31.1339 65.25 31.4004V51.9277L65.2559 52.0215ZM70.5938 30V31H65.6494V30H70.5938Z" fill="black"/>
<path d="M53.5205 51.9277C53.5205 52.1611 53.6229 52.2931 53.8271 52.3223L53.9209 52.3281H58.8809C59.1143 52.3281 59.2453 52.2259 59.2744 52.0215L59.2812 51.9277V35.9277H61.793L61.8867 35.9219C62.0616 35.8969 62.1615 35.7969 62.1865 35.6221L62.1924 35.5283V31.4004C62.1924 31.1671 62.0908 31.036 61.8867 31.0068L61.793 31V30C62.0803 30 62.4795 30.0725 62.7998 30.3926C63.1202 30.7129 63.1924 31.1129 63.1924 31.4004V35.5283C63.1923 35.8158 63.1201 36.2149 62.7998 36.5352C62.4795 36.8554 62.0804 36.9277 61.793 36.9277H60.2812V51.9277C60.2812 52.2152 60.208 52.6152 59.8877 52.9355C59.5674 53.2556 59.1682 53.3281 58.8809 53.3281H53.9209C53.6335 53.3281 53.2344 53.2556 52.9141 52.9355C52.5937 52.6152 52.5205 52.2152 52.5205 51.9277V36.9277H51.0244C50.737 36.9277 50.3378 36.8553 50.0176 36.5352C49.6974 36.2149 49.625 35.8157 49.625 35.5283V31.4004C49.625 31.1129 49.6972 30.7129 50.0176 30.3926C50.3377 30.0725 50.737 30.0001 51.0244 30V31C50.758 31.0002 50.625 31.1339 50.625 31.4004V35.5283C50.6251 35.7947 50.7581 35.9276 51.0244 35.9277H53.5205V51.9277ZM61.793 30V31H51.0244V30H61.793Z" fill="black"/>
<path d="M34.1621 52.0215C34.1911 52.2258 34.3225 52.328 34.5557 52.3281H39.3242L39.418 52.3223C39.6221 52.2931 39.7236 52.1611 39.7236 51.9277V45.0957H40.6357L43.084 52.0078C43.1586 52.1944 43.2906 52.2999 43.4795 52.3232L43.5645 52.3281H48.0439C48.2774 52.3281 48.4084 52.2259 48.4375 52.0215L48.4443 51.9277V49.6719C48.4443 49.5442 48.4334 49.4378 48.4121 49.3525C48.4014 49.3045 48.3881 49.256 48.3721 49.208L48.3164 49.0645L46.4443 45.208L44.9238 43.1279L46.0605 42.1523L47.9482 40.2803C48.0522 40.1843 48.1175 40.0853 48.1436 39.9834L48.1562 39.8799V35.4961C48.1562 35.3254 48.1404 35.2026 48.1084 35.1279C48.0764 35.0533 48.0011 34.9631 47.8838 34.8564L44.2041 31.208C44.0841 31.104 43.934 31.0387 43.7539 31.0127L43.5645 31V30C43.9518 30.0001 44.3576 30.0907 44.7109 30.3369L44.8594 30.4521L44.8848 30.4746L44.9082 30.498L48.5879 34.1455H48.5869C48.7077 34.2581 48.8661 34.4218 48.9785 34.6328L49.0273 34.7344L49.0664 34.8379C49.1472 35.0811 49.1562 35.3302 49.1562 35.4961V39.8799C49.1562 40.3709 48.909 40.7425 48.6514 40.9893L46.7646 42.8623L46.7393 42.8877L46.7119 42.9102L46.2764 43.2842L47.252 44.6182L47.3047 44.6904L47.3438 44.7715L49.2158 48.627L49.2295 48.6582C49.2973 48.8108 49.352 48.9697 49.3887 49.1348H49.3867C49.4298 49.3183 49.4443 49.5033 49.4443 49.6719V51.9277C49.4443 52.2152 49.3711 52.6152 49.0508 52.9355C48.7305 53.2556 48.3313 53.3281 48.0439 53.3281H43.5645C43.2937 53.3281 42.9911 53.2648 42.7139 53.0801C42.435 52.8942 42.2582 52.637 42.1553 52.3799L42.1484 52.3613L42.1416 52.3418L40.7236 48.3379V51.9277C40.7236 52.2152 40.6514 52.6152 40.3311 52.9355C40.0108 53.2556 39.6116 53.3281 39.3242 53.3281H34.5557C34.2682 53.328 33.869 53.2557 33.5488 52.9355C33.2285 52.6152 33.1562 52.2152 33.1562 51.9277V31.4004C33.1562 31.1129 33.2285 30.7129 33.5488 30.3926C33.869 30.0725 34.2683 30.0001 34.5557 30V31C34.2893 31.0002 34.1562 31.1339 34.1562 31.4004V51.9277L34.1621 52.0215ZM42.1963 38.0557C42.1962 37.2736 42.04 37.0204 42.002 36.9795L41.9961 36.9736L41.9912 36.9678C41.9617 36.9352 41.7829 36.7842 41.1484 36.7842C40.5299 36.7842 40.3531 36.9327 40.3213 36.9678L40.3154 36.9736L40.3105 36.9795C40.2727 37.02 40.1163 37.2728 40.1162 38.0557C40.1162 38.7944 40.2599 39.0685 40.3164 39.1377C40.3596 39.1784 40.5519 39.3125 41.1484 39.3125V40.3125L40.8818 40.3047C40.37 40.2737 39.978 40.1495 39.7061 39.9326L39.5801 39.8164C39.3094 39.5177 39.1569 39.0309 39.123 38.3564L39.1162 38.0557C39.1163 37.2132 39.2708 36.6265 39.5801 36.2959C39.8894 35.9546 40.4125 35.7842 41.1484 35.7842L41.418 35.792C42.0234 35.8293 42.4618 35.9972 42.7324 36.2959C43.0417 36.6265 43.1962 37.2133 43.1963 38.0557L43.1885 38.3564C43.1547 39.0309 43.0031 39.5177 42.7324 39.8164L42.6055 39.9326C42.287 40.1856 41.8014 40.3125 41.1484 40.3125V39.3125C41.7565 39.3125 41.9521 39.1774 41.9951 39.1377C42.0514 39.0691 42.1963 38.7957 42.1963 38.0557ZM43.5645 30V31H34.5557V30H43.5645Z" fill="black"/>
<path d="M25.4248 52.0215C25.4497 52.1969 25.5501 52.2974 25.7256 52.3223L25.8193 52.3281H30.7627C30.9962 52.3281 31.1272 52.2259 31.1562 52.0215L31.1631 51.9277V37.0957C31.163 36.968 31.133 36.8462 31.0732 36.7305L31.0029 36.6162L27.1953 31.2402C27.0886 31.0802 26.9173 31 26.6826 31V30C27.1598 30 27.6757 30.1782 28.0107 30.6621L31.8193 36.0381H31.8184C32.0352 36.3428 32.163 36.7021 32.1631 37.0957V51.9277C32.1631 52.2152 32.0899 52.6152 31.7695 52.9355C31.4492 53.2556 31.0501 53.3281 30.7627 53.3281H25.8193C25.5319 53.3281 25.1319 53.2559 24.8115 52.9355C24.4912 52.6152 24.4189 52.2152 24.4189 51.9277V46.3838H23.5391V51.9277C23.5391 52.2152 23.4659 52.6152 23.1455 52.9355C22.8252 53.2556 22.426 53.3281 22.1387 53.3281H17.1953C16.9078 53.3281 16.5078 53.2559 16.1875 52.9355C15.8672 52.6152 15.7949 52.2152 15.7949 51.9277V37.0957C15.795 36.7046 15.934 36.3618 16.1064 36.0859L16.1221 36.0625L16.1377 36.04L19.9297 30.6641L19.9346 30.6562L19.9404 30.6484C20.2724 30.1959 20.7636 30 21.2588 30V31C21.0348 31 20.8644 31.0803 20.7471 31.2402L16.9551 36.6162C16.8485 36.7867 16.795 36.9465 16.7949 37.0957V51.9277C16.7949 52.1613 16.8971 52.2932 17.1016 52.3223L17.1953 52.3281H22.1387C22.3721 52.3281 22.5032 52.2259 22.5322 52.0215L22.5391 51.9277V45.3838H25.4189V51.9277L25.4248 52.0215ZM25.1865 38.6484C25.1865 37.7128 25.0152 37.3489 24.9326 37.2529L24.9277 37.2461L24.9229 37.2402C24.8866 37.1968 24.69 37.0244 23.9785 37.0244C23.2872 37.0245 23.076 37.193 23.0244 37.2529C22.9417 37.3493 22.7705 37.7137 22.7705 38.6484C22.7705 39.5581 22.933 39.9408 23.0273 40.0615C23.0825 40.1234 23.2963 40.288 23.9785 40.2881V41.2881C23.168 41.288 22.5972 41.0959 22.2666 40.7119C21.9773 40.3665 21.8144 39.7965 21.7783 39.002L21.7705 38.6484C21.7705 37.7897 21.8972 37.1591 22.1504 36.7578L22.2666 36.6006C22.5972 36.2166 23.168 36.0245 23.9785 36.0244L24.2754 36.0332C24.9391 36.0752 25.4105 36.2646 25.6904 36.6006C26.0211 36.9846 26.1865 37.6671 26.1865 38.6484L26.1787 39.002C26.1426 39.7967 25.9798 40.3665 25.6904 40.7119C25.3704 41.0959 24.7998 41.2881 23.9785 41.2881V40.2881C24.6895 40.2881 24.8864 40.1159 24.9229 40.0723L24.9248 40.0703C25.018 39.9591 25.1865 39.5793 25.1865 38.6484ZM26.6826 30V31H21.2588V30H26.6826Z" fill="black"/>
<path d="M1.00586 52.0215C1.03489 52.2258 1.1662 52.328 1.39941 52.3281H6.34375C6.57721 52.3281 6.70823 52.2259 6.7373 52.0215L6.74414 51.9277V45.4482H10.5674L10.6621 45.4443C10.8767 45.4245 11.0587 45.3344 11.208 45.1758L14.4082 41.9766C14.5895 41.8059 14.6797 41.5919 14.6797 41.3359V35.0957C14.6796 34.8812 14.6105 34.691 14.4717 34.5254L14.4082 34.4561L11.208 31.2559C11.0374 31.0852 10.8234 31 10.5674 31V30C11.0078 30 11.4258 30.1366 11.7715 30.4189L11.915 30.5488L15.1152 33.749C15.4745 34.1083 15.6796 34.5723 15.6797 35.0957V41.3359C15.6797 41.849 15.4873 42.3188 15.1133 42.6816L15.1152 42.6836L11.915 45.8828L11.9141 45.8818C11.5512 46.256 11.0806 46.4482 10.5674 46.4482H7.74414V51.9277C7.74414 52.2152 7.67093 52.6152 7.35059 52.9355C7.0303 53.2556 6.63112 53.3281 6.34375 53.3281H1.39941C1.11199 53.328 0.712745 53.2557 0.392578 52.9355C0.0722317 52.6152 0 52.2152 0 51.9277V31.4004C0 31.1129 0.0722314 30.7129 0.392578 30.3926C0.712735 30.0725 1.11201 30.0001 1.39941 30V31C1.13305 31.0002 1 31.1339 1 31.4004V51.9277L1.00586 52.0215ZM8.73633 38.2158C8.73629 37.479 8.58494 37.2338 8.54199 37.1875C8.51388 37.1574 8.32978 37.0078 7.6875 37.0078C7.06209 37.0079 6.88117 37.1549 6.85059 37.1875C6.80804 37.233 6.65629 37.4773 6.65625 38.2158C6.65625 38.9268 6.7972 39.1797 6.8457 39.2383C6.89022 39.2779 7.08839 39.4082 7.6875 39.4082V40.4082L7.42188 40.4004C6.82454 40.3654 6.39078 40.2077 6.12012 39.9277C5.84949 39.6384 5.69691 39.1656 5.66309 38.5088L5.65625 38.2158C5.65628 37.5069 5.77411 36.9814 6.01074 36.6396L6.12012 36.5039C6.42943 36.1735 6.95187 36.0079 7.6875 36.0078C8.43394 36.0078 8.96211 36.1734 9.27148 36.5039C9.58078 36.8345 9.73629 37.4053 9.73633 38.2158L9.72852 38.5088C9.69469 39.1657 9.54215 39.6384 9.27148 39.9277C8.96215 40.2477 8.43417 40.4082 7.6875 40.4082V39.4082C8.30216 39.4082 8.50306 39.2752 8.5459 39.2373C8.5948 39.1777 8.73633 38.9247 8.73633 38.2158ZM10.5674 30V31H1.39941V30H10.5674Z" fill="black"/>
<path d="M110.987 22.0215C111.012 22.1969 111.113 22.2974 111.288 22.3223L111.382 22.3281H116.325C116.559 22.3281 116.69 22.2259 116.719 22.0215L116.726 21.9277V7.0957C116.726 6.96801 116.696 6.84621 116.636 6.73047L116.565 6.61621L112.758 1.24023C112.651 1.08023 112.48 1 112.245 1V0C112.722 0 113.238 0.178218 113.573 0.662109L117.382 6.03809H117.381C117.598 6.3428 117.725 6.70207 117.726 7.0957V21.9277C117.726 22.2152 117.652 22.6152 117.332 22.9355C117.012 23.2556 116.613 23.3281 116.325 23.3281H111.382C111.094 23.3281 110.694 23.2559 110.374 22.9355C110.054 22.6152 109.981 22.2152 109.981 21.9277V16.3838H109.102V21.9277C109.102 22.2152 109.028 22.6152 108.708 22.9355C108.388 23.2556 107.989 23.3281 107.701 23.3281H102.758C102.47 23.3281 102.07 23.2559 101.75 22.9355C101.43 22.6152 101.357 22.2152 101.357 21.9277V7.0957C101.358 6.70464 101.497 6.36181 101.669 6.08594L101.685 6.0625L101.7 6.04004L105.492 0.664062L105.497 0.65625L105.503 0.648438C105.835 0.19586 106.326 2.06148e-05 106.821 0V1C106.597 1.00002 106.427 1.08027 106.31 1.24023L102.518 6.61621C102.411 6.78672 102.358 6.94649 102.357 7.0957V21.9277C102.357 22.1613 102.46 22.2932 102.664 22.3223L102.758 22.3281H107.701C107.935 22.3281 108.066 22.2259 108.095 22.0215L108.102 21.9277V15.3838H110.981V21.9277L110.987 22.0215ZM110.749 8.64844C110.749 7.71282 110.578 7.34887 110.495 7.25293L110.49 7.24609L110.485 7.24023C110.449 7.19677 110.253 7.02441 109.541 7.02441C108.85 7.02447 108.638 7.19303 108.587 7.25293C108.504 7.34929 108.333 7.7137 108.333 8.64844C108.333 9.55806 108.496 9.94076 108.59 10.0615C108.645 10.1234 108.859 10.288 109.541 10.2881V11.2881C108.731 11.288 108.16 11.0959 107.829 10.7119C107.54 10.3665 107.377 9.79648 107.341 9.00195L107.333 8.64844C107.333 7.78968 107.46 7.15914 107.713 6.75781L107.829 6.60059C108.16 6.21664 108.731 6.02447 109.541 6.02441L109.838 6.0332C110.502 6.07524 110.973 6.26463 111.253 6.60059C111.584 6.9846 111.749 7.66715 111.749 8.64844L111.741 9.00195C111.705 9.79666 111.542 10.3665 111.253 10.7119C110.933 11.0959 110.362 11.2881 109.541 11.2881V10.2881C110.252 10.2881 110.449 10.1159 110.485 10.0723L110.487 10.0703C110.58 9.95911 110.749 9.57929 110.749 8.64844ZM112.245 0V1H106.821V0H112.245Z" fill="black"/>
<path d="M93.624 22.0215C93.6531 22.2258 93.7843 22.328 94.0176 22.3281H98.9619L99.0557 22.3223C99.2308 22.2973 99.3306 22.1967 99.3555 22.0215L99.3623 21.9277V4.72852C99.3623 4.48318 99.2712 4.26922 99.0898 4.08789L96.2578 1.25586C96.1085 1.10663 95.9265 1.02257 95.7119 1.00391L95.6182 1V0C96.1213 6.98391e-05 96.5945 0.178548 96.9648 0.548828L99.7969 3.38086C100.156 3.74027 100.362 4.20488 100.362 4.72852V21.9277C100.362 22.2152 100.289 22.6152 99.9688 22.9355C99.6485 23.2556 99.2493 23.3281 98.9619 23.3281H94.0176C93.7302 23.3281 93.331 23.2557 93.0107 22.9355C92.6904 22.6152 92.6182 22.2152 92.6182 21.9277V7.32812H92.1699V21.9277C92.1699 22.2152 92.0977 22.6152 91.7773 22.9355C91.457 23.2559 91.057 23.3281 90.7695 23.3281H85.8418C85.5544 23.3281 85.1552 23.2556 84.835 22.9355C84.5146 22.6152 84.4414 22.2152 84.4414 21.9277V7.32812H83.9941V21.9277C83.9941 22.2152 83.9209 22.6152 83.6006 22.9355C83.2803 23.2556 82.8811 23.3281 82.5938 23.3281H77.6494C77.362 23.328 76.9627 23.2557 76.6426 22.9355C76.3222 22.6152 76.25 22.2152 76.25 21.9277V4.72852C76.25 4.22423 76.435 3.76608 76.7773 3.40234L79.6416 0.538086L79.6523 0.52832C80.016 0.186057 80.4734 8.05295e-05 80.9775 0V1C80.7324 1.00008 80.5191 1.08536 80.3379 1.25586L77.5059 4.08789C77.3352 4.26922 77.25 4.48318 77.25 4.72852V21.9277C77.25 22.1943 77.383 22.328 77.6494 22.3281H82.5938C82.8272 22.3281 82.9582 22.2259 82.9873 22.0215L82.9941 21.9277V6.32812H85.4414V21.9277C85.4414 22.1944 85.5752 22.3281 85.8418 22.3281H90.7695C91.003 22.3281 91.135 22.2259 91.1641 22.0215L91.1699 21.9277V6.32812H93.6182V21.9277L93.624 22.0215ZM92.0176 1C91.7618 1.00006 91.5485 1.08537 91.3779 1.25586L88.6738 3.95996H87.9375L85.2334 1.25586C85.0628 1.08544 84.8496 1 84.5938 1V0C85.0343 0 85.4522 0.136486 85.7979 0.418945L85.9414 0.548828L88.3057 2.91309L90.6709 0.548828L90.8145 0.418945C91.16 0.136738 91.5773 5.99268e-05 92.0176 0V1ZM95.6182 0V1H92.0176V0H95.6182ZM84.5938 0V1H80.9775V0H84.5938Z" fill="black"/>
<path d="M68.4434 22.0215C68.4724 22.2258 68.6037 22.328 68.8369 22.3281H73.7812C74.0147 22.3281 74.1457 22.2259 74.1748 22.0215L74.1816 21.9277V1.40039C74.1816 1.13372 74.0479 1 73.7812 1V0C74.0686 0 74.4678 0.0725827 74.7881 0.392578C75.1084 0.712924 75.1816 1.11291 75.1816 1.40039V21.9277C75.1816 22.2152 75.1084 22.6152 74.7881 22.9355C74.4678 23.2556 74.0686 23.3281 73.7812 23.3281H68.8369C68.5495 23.328 68.1502 23.2557 67.8301 22.9355C67.5097 22.6152 67.4375 22.2152 67.4375 21.9277V1.40039C67.4375 1.11291 67.5097 0.712924 67.8301 0.392578C68.1502 0.0725088 68.5495 7.62277e-05 68.8369 0V1C68.5705 1.00015 68.4375 1.13388 68.4375 1.40039V21.9277L68.4434 22.0215ZM73.7812 0V1H68.8369V0H73.7812Z" fill="black"/>
<path d="M59.5596 21.9277C59.5596 22.1611 59.6619 22.2931 59.8662 22.3223L59.96 22.3281H64.9199L65.0137 22.3223C65.1888 22.2972 65.2886 22.1967 65.3135 22.0215L65.3203 21.9277V14.584C65.3203 14.488 65.3144 14.4028 65.3037 14.3281C65.2931 14.2536 65.2453 14.1791 65.1602 14.1045L63.0801 12.0244V11.4639L65.208 9.32031C65.2933 9.24565 65.3409 9.17037 65.3516 9.0957C65.3569 9.0586 65.3616 9.01893 65.3643 8.97656L65.3682 8.83984V1.40039C65.3682 1.13372 65.2344 1 64.9678 1V0C65.2551 0 65.6543 0.0725729 65.9746 0.392578C66.295 0.712924 66.3682 1.11291 66.3682 1.40039V8.83984C66.3682 8.971 66.3606 9.10526 66.3418 9.2373C66.2894 9.60437 66.0856 9.86119 65.916 10.0225L65.918 10.0244L64.2119 11.7422L65.8672 13.3975H65.8662C66.0131 13.5364 66.1855 13.748 66.2637 14.041L66.2939 14.1865L66.3135 14.3857C66.3176 14.4521 66.3203 14.5184 66.3203 14.584V21.9277C66.3203 22.2152 66.2471 22.6152 65.9268 22.9355C65.6065 23.2556 65.2073 23.3281 64.9199 23.3281H59.96C59.6726 23.3281 59.2734 23.2556 58.9531 22.9355C58.6328 22.6152 58.5596 22.2152 58.5596 21.9277V15.168H57.8076V21.9277C57.8076 22.2152 57.7354 22.6152 57.415 22.9355C57.0948 23.2557 56.6956 23.3281 56.4082 23.3281H51.4482C51.1608 23.3281 50.7608 23.2559 50.4404 22.9355C50.1201 22.6152 50.0479 22.2152 50.0479 21.9277V14.584C50.0479 14.4528 50.0554 14.3186 50.0742 14.1865L50.084 14.1191L50.1025 14.0537C50.1843 13.7674 50.3476 13.5509 50.501 13.3975L52.1543 11.7441L50.4092 9.99902L50.3701 9.9502C50.2724 9.82452 50.1425 9.63748 50.0674 9.41211L50.0391 9.32715L50.0264 9.2373C50.0075 9.10524 50 8.97102 50 8.83984V1.40039C50 1.11291 50.0722 0.712924 50.3926 0.392578C50.7127 0.0725088 51.112 7.62277e-05 51.3994 0V1C51.133 1.00015 51 1.13388 51 1.40039V8.83984L51.0039 8.97656C51.0066 9.01889 51.0103 9.05863 51.0156 9.0957C51.037 9.1597 51.0855 9.23994 51.1602 9.33594L53.2881 11.4639V12.0244L51.208 14.1045C51.1334 14.1791 51.0848 14.2535 51.0635 14.3281C51.0528 14.4027 51.0479 14.4881 51.0479 14.584V21.9277C51.0479 22.1612 51.15 22.2932 51.3545 22.3223L51.4482 22.3281H56.4082L56.502 22.3223C56.7059 22.293 56.8076 22.161 56.8076 21.9277V14.168H59.5596V21.9277ZM56.7441 1.40039C56.7441 1.13372 56.6104 1 56.3438 1V0C56.6311 0 57.0303 0.0725827 57.3506 0.392578C57.6709 0.712924 57.7441 1.11291 57.7441 1.40039V8.24023H58.624V1.40039C58.624 1.11291 58.6963 0.712924 59.0166 0.392578C59.3368 0.07251 59.736 7.23377e-05 60.0234 0V1C59.7571 1.00014 59.624 1.13387 59.624 1.40039V9.24023H56.7441V1.40039ZM64.9678 0V1H60.0234V0H64.9678ZM56.3438 0V1H51.3994V0H56.3438Z" fill="black"/>
<path d="M33.3477 18.3105C33.3664 18.525 33.4504 18.7072 33.5996 18.8564L36.7998 22.0557C36.9811 22.237 37.1942 22.3281 37.4395 22.3281H43.8232C44.0792 22.3281 44.2932 22.237 44.4639 22.0557L47.6641 18.8564C47.8453 18.6858 47.9355 18.4718 47.9355 18.2158V5.0957C47.9355 4.88119 47.8663 4.69096 47.7275 4.52539L47.6641 4.45605L44.4639 1.25586C44.2932 1.0852 44.0792 1 43.8232 1V0C44.2637 0 44.6817 0.136572 45.0273 0.418945L45.1709 0.548828L48.3711 3.74902C48.7303 4.10831 48.9354 4.57233 48.9355 5.0957V18.2158C48.9355 18.7289 48.7431 19.1987 48.3691 19.5615L48.3711 19.5635L45.1709 22.7637L45.1689 22.7617C44.8061 23.1356 44.3363 23.3281 43.8232 23.3281H37.4395C36.9161 23.3281 36.4521 23.1228 36.0928 22.7637L32.8926 19.5635C32.5221 19.193 32.3438 18.7192 32.3438 18.2158V5.0957C32.3439 4.59159 32.5289 4.13414 32.8711 3.77051L36.1035 0.538086L36.1143 0.52832C36.478 0.186019 36.9352 4.03275e-05 37.4395 0V1C37.1943 1.00004 36.981 1.08538 36.7998 1.25586L33.5996 4.45605C33.429 4.63729 33.3438 4.85055 33.3438 5.0957V18.2158L33.3477 18.3105ZM40.0879 16.4004H41.1914V6.92773H40.0879V16.4004ZM43.8232 0V1H37.4395V0H43.8232ZM42.1914 16.4883L42.1807 16.7021C42.1316 17.1674 41.9114 17.4004 41.5195 17.4004H39.7598L39.6787 17.3965C39.3372 17.3658 39.1432 17.1344 39.0977 16.7021L39.0879 16.4883V6.82422C39.0879 6.30137 39.2593 6.00758 39.6025 5.94238L39.7598 5.92773H41.5195C41.9675 5.92773 42.1914 6.22688 42.1914 6.82422V16.4883Z" fill="black"/>
<path d="M16.8809 22.0215C16.9099 22.2258 17.0412 22.328 17.2744 22.3281H22.043L22.1367 22.3223C22.3409 22.2931 22.4424 22.1611 22.4424 21.9277V15.0957H23.3545L25.8027 22.0078C25.8774 22.1944 26.0093 22.2999 26.1982 22.3232L26.2832 22.3281H30.7627C30.9962 22.3281 31.1272 22.2259 31.1562 22.0215L31.1631 21.9277V19.6719C31.1631 19.5442 31.1521 19.4378 31.1309 19.3525C31.1202 19.3045 31.1068 19.256 31.0908 19.208L31.0352 19.0645L29.1631 15.208L27.6426 13.1279L28.7793 12.1523L30.667 10.2803C30.7709 10.1843 30.8363 10.0853 30.8623 9.9834L30.875 9.87988V5.49609C30.875 5.32544 30.8591 5.20259 30.8271 5.12793C30.7951 5.05328 30.7198 4.96308 30.6025 4.85645L26.9229 1.20801C26.8028 1.10399 26.6527 1.03866 26.4727 1.0127L26.2832 1V0C26.6705 5.23661e-05 27.0764 0.0907351 27.4297 0.336914L27.5781 0.452148L27.6035 0.474609L27.627 0.498047L31.3066 4.14551H31.3057C31.4265 4.25809 31.5848 4.42183 31.6973 4.63281L31.7461 4.73438L31.7852 4.83789C31.866 5.08109 31.875 5.33018 31.875 5.49609V9.87988C31.875 10.3709 31.6278 10.7425 31.3701 10.9893L29.4834 12.8623L29.458 12.8877L29.4307 12.9102L28.9951 13.2842L29.9707 14.6182L30.0234 14.6904L30.0625 14.7715L31.9346 18.627L31.9482 18.6582C32.0161 18.8108 32.0707 18.9697 32.1074 19.1348H32.1055C32.1485 19.3183 32.1631 19.5033 32.1631 19.6719V21.9277C32.1631 22.2152 32.0899 22.6152 31.7695 22.9355C31.4492 23.2556 31.0501 23.3281 30.7627 23.3281H26.2832C26.0124 23.3281 25.7099 23.2648 25.4326 23.0801C25.1538 22.8942 24.9769 22.637 24.874 22.3799L24.8672 22.3613L24.8604 22.3418L23.4424 18.3379V21.9277C23.4424 22.2152 23.3702 22.6152 23.0498 22.9355C22.7295 23.2556 22.3304 23.3281 22.043 23.3281H17.2744C16.987 23.328 16.5877 23.2557 16.2676 22.9355C15.9472 22.6152 15.875 22.2152 15.875 21.9277V1.40039C15.875 1.11291 15.9472 0.712924 16.2676 0.392578C16.5877 0.0725088 16.987 7.62277e-05 17.2744 0V1C17.008 1.00015 16.875 1.13388 16.875 1.40039V21.9277L16.8809 22.0215ZM24.915 8.05566C24.915 7.27361 24.7588 7.02042 24.7207 6.97949L24.7148 6.97363L24.71 6.96777C24.6804 6.93516 24.5016 6.78423 23.8672 6.78418C23.2486 6.78418 23.0719 6.93266 23.04 6.96777L23.0342 6.97363L23.0293 6.97949C22.9914 7.02 22.835 7.27277 22.835 8.05566C22.835 8.7944 22.9787 9.06854 23.0352 9.1377C23.0783 9.17836 23.2707 9.3125 23.8672 9.3125V10.3125L23.6006 10.3047C23.0888 10.2737 22.6968 10.1495 22.4248 9.93262L22.2988 9.81641C22.0281 9.51771 21.8756 9.03088 21.8418 8.35645L21.835 8.05566C21.835 7.21324 21.9896 6.6265 22.2988 6.2959C22.6082 5.95464 23.1313 5.78418 23.8672 5.78418L24.1367 5.79199C24.7422 5.82934 25.1805 5.99725 25.4512 6.2959C25.7604 6.62651 25.915 7.21327 25.915 8.05566L25.9072 8.35645C25.8734 9.03086 25.7219 9.51772 25.4512 9.81641L25.3242 9.93262C25.0058 10.1856 24.5201 10.3125 23.8672 10.3125V9.3125C24.4753 9.31245 24.6709 9.17737 24.7139 9.1377C24.7702 9.06912 24.915 8.79566 24.915 8.05566ZM26.2832 0V1H17.2744V0H26.2832Z" fill="black"/>
<path d="M1.00586 22.0215C1.03489 22.2258 1.1662 22.328 1.39941 22.3281H6.34375C6.57721 22.3281 6.70823 22.2259 6.7373 22.0215L6.74414 21.9277V15.4482H10.5674L10.6621 15.4443C10.8767 15.4245 11.0587 15.3344 11.208 15.1758L14.4082 11.9766C14.5895 11.8059 14.6797 11.5919 14.6797 11.3359V5.0957C14.6796 4.88116 14.6105 4.69097 14.4717 4.52539L14.4082 4.45605L11.208 1.25586C11.0374 1.08523 10.8234 1 10.5674 1V0C11.0078 0 11.4258 0.136608 11.7715 0.418945L11.915 0.548828L15.1152 3.74902C15.4745 4.10832 15.6796 4.5723 15.6797 5.0957V11.3359C15.6797 11.849 15.4873 12.3188 15.1133 12.6816L15.1152 12.6836L11.915 15.8828L11.9141 15.8818C11.5512 16.256 11.0806 16.4482 10.5674 16.4482H7.74414V21.9277C7.74414 22.2152 7.67093 22.6152 7.35059 22.9355C7.0303 23.2556 6.63112 23.3281 6.34375 23.3281H1.39941C1.11199 23.328 0.712745 23.2557 0.392578 22.9355C0.0722317 22.6152 0 22.2152 0 21.9277V1.40039C0 1.11291 0.0722314 0.712924 0.392578 0.392578C0.712735 0.0725088 1.11201 7.62277e-05 1.39941 0V1C1.13305 1.00015 1 1.13388 1 1.40039V21.9277L1.00586 22.0215ZM8.73633 8.21582C8.73629 7.47895 8.58494 7.23378 8.54199 7.1875C8.51388 7.15745 8.32978 7.00781 7.6875 7.00781C7.06209 7.00787 6.88117 7.15491 6.85059 7.1875C6.80804 7.23298 6.65629 7.47727 6.65625 8.21582C6.65625 8.92677 6.7972 9.17967 6.8457 9.23828C6.89022 9.27787 7.08839 9.40815 7.6875 9.4082V10.4082L7.42188 10.4004C6.82454 10.3654 6.39078 10.2077 6.12012 9.92773C5.84949 9.63838 5.69691 9.1656 5.66309 8.50879L5.65625 8.21582C5.65628 7.50689 5.77411 6.98144 6.01074 6.63965L6.12012 6.50391C6.42943 6.17345 6.95187 6.00787 7.6875 6.00781C8.43394 6.00781 8.96211 6.17344 9.27148 6.50391C9.58078 6.83453 9.73629 7.40531 9.73633 8.21582L9.72852 8.50879C9.69469 9.16565 9.54215 9.63839 9.27148 9.92773C8.96215 10.2477 8.43417 10.4082 7.6875 10.4082V9.4082C8.30216 9.4082 8.50306 9.27517 8.5459 9.2373C8.5948 9.17772 8.73633 8.92469 8.73633 8.21582ZM10.5674 0V1H1.39941V0H10.5674Z" fill="black"/>
</svg>
