<svg width="108" height="29" viewBox="0 0 108 29" fill="none" xmlns="http://www.w3.org/2000/svg">
<path d="M96.2209 27.3368C95.9755 27.3368 95.7622 27.2461 95.5809 27.0648L92.3809 23.8648C92.2102 23.6941 92.1249 23.4808 92.1249 23.2248V10.1048C92.1249 9.85946 92.2102 9.64612 92.3809 9.46479L95.5809 6.26479C95.7622 6.09412 95.9755 6.00879 96.2209 6.00879H102.605C102.861 6.00879 103.074 6.09412 103.245 6.26479L106.445 9.46479C106.626 9.64612 106.717 9.85946 106.717 10.1048V23.2248C106.717 23.4808 106.626 23.6941 106.445 23.8648L103.245 27.0648C103.074 27.2461 102.861 27.3368 102.605 27.3368H96.2209ZM98.5409 22.4088H100.301C100.749 22.4088 100.973 22.1048 100.973 21.4968V11.8328C100.973 11.2355 100.749 10.9368 100.301 10.9368H98.5409C98.0929 10.9368 97.8689 11.2355 97.8689 11.8328V21.4968C97.8689 22.1048 98.0929 22.4088 98.5409 22.4088Z" fill="#DEDBDB"/>
<path d="M83.3686 27.3368C83.102 27.3368 82.9686 27.2035 82.9686 26.9368V6.40879C82.9686 6.14212 83.102 6.00879 83.3686 6.00879H88.3126C88.5793 6.00879 88.7126 6.14212 88.7126 6.40879V26.9368C88.7126 27.2035 88.5793 27.3368 88.3126 27.3368H83.3686Z" fill="#DEDBDB"/>
<path d="M66.8686 27.3368C66.602 27.3368 66.4686 27.2035 66.4686 26.9368V6.40879C66.4686 6.14212 66.602 6.00879 66.8686 6.00879H75.8766C76.1433 6.00879 76.3566 6.07812 76.5166 6.21679L80.1966 9.86479C80.314 9.97146 80.3886 10.0621 80.4206 10.1368C80.4526 10.2115 80.4686 10.3341 80.4686 10.5048V14.8888C80.4686 15.0275 80.3993 15.1608 80.2606 15.2888L78.3726 17.1608L77.2366 18.1368L78.7566 20.2168L80.6286 24.0728C80.6713 24.1688 80.7033 24.2648 80.7246 24.3608C80.746 24.4461 80.7566 24.5528 80.7566 24.6808V26.9368C80.7566 27.2035 80.6233 27.3368 80.3566 27.3368H75.8766C75.642 27.3368 75.482 27.2301 75.3966 27.0168L72.9486 20.1048H72.0366V26.9368C72.0366 27.2035 71.9033 27.3368 71.6366 27.3368H66.8686ZM73.4606 15.3208C74.2073 15.3208 74.7353 15.1555 75.0446 14.8248C75.354 14.4835 75.5086 13.8968 75.5086 13.0648C75.5086 12.2221 75.354 11.6355 75.0446 11.3048C74.7353 10.9635 74.2073 10.7928 73.4606 10.7928C72.7246 10.7928 72.202 10.9635 71.8926 11.3048C71.5833 11.6355 71.4286 12.2221 71.4286 13.0648C71.4286 13.8968 71.5833 14.4835 71.8926 14.8248C72.202 15.1555 72.7246 15.3208 73.4606 15.3208Z" fill="#DEDBDB"/>
<path d="M48.9136 27.3365C48.6469 27.3365 48.5136 27.2032 48.5136 26.9365V12.1045C48.5136 11.9552 48.5669 11.7952 48.6736 11.6245L52.4656 6.24849C52.5829 6.08849 52.7536 6.00849 52.9776 6.00849H58.4016C58.6363 6.00849 58.8069 6.08849 58.9136 6.24849L62.7216 11.6245C62.8283 11.7738 62.8816 11.9338 62.8816 12.1045V26.9365C62.8816 27.2032 62.7483 27.3365 62.4816 27.3365H57.5376C57.2709 27.3365 57.1376 27.2032 57.1376 26.9365V20.3925H54.2576V26.9365C54.2576 27.2032 54.1243 27.3365 53.8576 27.3365H48.9136ZM55.6976 16.2965C56.5189 16.2965 57.0896 16.1045 57.4096 15.7205C57.7403 15.3258 57.9056 14.6378 57.9056 13.6565C57.9056 12.6752 57.7403 11.9925 57.4096 11.6085C57.0896 11.2245 56.5189 11.0325 55.6976 11.0325C54.8869 11.0325 54.3163 11.2245 53.9856 11.6085C53.6549 11.9925 53.4896 12.6752 53.4896 13.6565C53.4896 14.6378 53.6549 15.3258 53.9856 15.7205C54.3163 16.1045 54.8869 16.2965 55.6976 16.2965ZM54.0816 5.22449C53.8896 5.30982 53.7509 5.26182 53.6656 5.08049L53.1216 3.91249C53.0469 3.72048 53.1056 3.56049 53.2976 3.43249L56.9776 1.04848C57.1696 0.941818 57.3136 1.01115 57.4096 1.25648L58.2896 3.11249C58.3749 3.28315 58.3163 3.42182 58.1136 3.52849L54.0816 5.22449Z" fill="#DEDBDB"/>
<path d="M35.2521 27.3368C35.0068 27.3368 34.7935 27.2461 34.6121 27.0648L31.4121 23.8648C31.2415 23.6941 31.1561 23.4808 31.1561 23.2248V6.40879C31.1561 6.14212 31.2895 6.00879 31.5561 6.00879H36.5001C36.7668 6.00879 36.9001 6.14212 36.9001 6.40879V21.9768C36.9001 22.2648 37.0388 22.4088 37.3161 22.4088H39.3481V6.40879C39.3481 6.14212 39.4815 6.00879 39.7481 6.00879H44.6761C44.9428 6.00879 45.0761 6.14212 45.0761 6.40879V26.9368C45.0761 27.2035 44.9428 27.3368 44.6761 27.3368H35.2521Z" fill="#DEDBDB"/>
<path d="M18.5014 27.3368C18.2347 27.3368 18.1014 27.2035 18.1014 26.9368V23.4648C18.1014 23.3261 18.1067 23.2141 18.1174 23.1288C18.1387 23.0435 18.2027 22.9741 18.3094 22.9208L22.2614 21.0008V18.7768L18.3734 16.4728C18.192 16.3661 18.1014 16.2061 18.1014 15.9928V9.70479C18.1014 9.53412 18.112 9.41146 18.1334 9.33679C18.1547 9.25146 18.2347 9.16079 18.3734 9.06479L22.5814 6.21679C22.6774 6.15279 22.7734 6.10479 22.8694 6.07279C22.9654 6.03012 23.0827 6.00879 23.2214 6.00879H27.9574C28.224 6.00879 28.3574 6.14212 28.3574 6.40879V9.75279C28.3574 9.98746 28.2774 10.1475 28.1174 10.2328L23.9254 11.9928V14.2968L28.1174 16.6968C28.2774 16.7715 28.3574 16.9421 28.3574 17.2088V24.1688C28.3574 24.2541 28.3414 24.3448 28.3094 24.4408C28.288 24.5368 28.2347 24.6061 28.1494 24.6488L23.1254 27.1448C23.0614 27.1768 22.9814 27.2195 22.8854 27.2728C22.8 27.3155 22.7147 27.3368 22.6294 27.3368H18.5014Z" fill="#DEDBDB"/>
<path d="M5.09588 27.3368C4.85055 27.3368 4.63721 27.2461 4.45588 27.0648L1.25588 23.8648C1.08521 23.6941 0.999878 23.4808 0.999878 23.2248V6.40879C0.999878 6.14212 1.13321 6.00879 1.39988 6.00879H6.34388C6.61054 6.00879 6.74388 6.14212 6.74388 6.40879V21.9768C6.74388 22.2648 6.88254 22.4088 7.15988 22.4088H9.19188V6.40879C9.19188 6.14212 9.32521 6.00879 9.59188 6.00879H14.5199C14.7865 6.00879 14.9199 6.14212 14.9199 6.40879V26.9368C14.9199 27.2035 14.7865 27.3368 14.5199 27.3368H5.09588Z" fill="#DEDBDB"/>
<path d="M92.1289 23.3193C92.1476 23.5338 92.2316 23.716 92.3809 23.8652L95.5811 27.0645C95.7623 27.2457 95.9754 27.3369 96.2207 27.3369H102.604C102.86 27.3369 103.074 27.2458 103.245 27.0645L106.445 23.8652C106.627 23.6946 106.717 23.4806 106.717 23.2246V10.1045C106.717 9.88998 106.648 9.69975 106.509 9.53418L106.445 9.46484L103.245 6.26465C103.074 6.09399 102.86 6.00879 102.604 6.00879V5.00879C103.045 5.00879 103.463 5.14536 103.809 5.42773L103.952 5.55762L107.152 8.75781C107.512 9.1171 107.717 9.58112 107.717 10.1045V23.2246C107.717 23.7377 107.524 24.2075 107.15 24.5703L107.152 24.5723L103.952 27.7725L103.95 27.7705C103.587 28.1444 103.118 28.3369 102.604 28.3369H96.2207C95.6973 28.3369 95.2333 28.1316 94.874 27.7725L91.6738 24.5723C91.3034 24.2018 91.125 23.728 91.125 23.2246V10.1045C91.1251 9.60038 91.3101 9.14293 91.6523 8.7793L94.8848 5.54688L94.8955 5.53711C95.2592 5.19481 95.7165 5.00883 96.2207 5.00879V6.00879C95.9755 6.00883 95.7623 6.09416 95.5811 6.26465L92.3809 9.46484C92.2103 9.64607 92.1251 9.85934 92.125 10.1045V23.2246L92.1289 23.3193ZM98.8691 21.4092H99.9727V11.9365H98.8691V21.4092ZM102.604 5.00879V6.00879H96.2207V5.00879H102.604ZM100.973 21.4971L100.962 21.7109C100.913 22.1762 100.693 22.4092 100.301 22.4092H98.541L98.46 22.4053C98.1185 22.3746 97.9245 22.1432 97.8789 21.7109L97.8691 21.4971V11.833C97.8691 11.3102 98.0405 11.0164 98.3838 10.9512L98.541 10.9365H100.301C100.749 10.9365 100.973 11.2357 100.973 11.833V21.4971Z" fill="black"/>
<path d="M82.9746 27.0303C83.0036 27.2346 83.135 27.3368 83.3682 27.3369H88.3125C88.546 27.3369 88.677 27.2347 88.7061 27.0303L88.7129 26.9365V6.40918C88.7129 6.14251 88.5792 6.00879 88.3125 6.00879V5.00879C88.5999 5.00879 88.9991 5.08137 89.3193 5.40137C89.6397 5.72171 89.7129 6.1217 89.7129 6.40918V26.9365C89.7129 27.224 89.6397 27.624 89.3193 27.9443C88.999 28.2644 88.5999 28.3369 88.3125 28.3369H83.3682C83.0807 28.3368 82.6815 28.2645 82.3613 27.9443C82.041 27.624 81.9688 27.224 81.9688 26.9365V6.40918C81.9688 6.1217 82.041 5.72171 82.3613 5.40137C82.6815 5.0813 83.0808 5.00887 83.3682 5.00879V6.00879C83.1018 6.00894 82.9688 6.14266 82.9688 6.40918V26.9365L82.9746 27.0303ZM88.3125 5.00879V6.00879H83.3682V5.00879H88.3125Z" fill="black"/>
<path d="M66.4746 27.0303C66.5036 27.2346 66.635 27.3368 66.8682 27.3369H71.6367L71.7305 27.3311C71.9346 27.3019 72.0361 27.1698 72.0361 26.9365V20.1045H72.9482L75.3965 27.0166C75.4711 27.2032 75.6031 27.3087 75.792 27.332L75.877 27.3369H80.3564C80.5899 27.3369 80.7209 27.2347 80.75 27.0303L80.7568 26.9365V24.6807C80.7568 24.553 80.7459 24.4465 80.7246 24.3613C80.7139 24.3133 80.7006 24.2648 80.6846 24.2168L80.6289 24.0732L78.7568 20.2168L77.2363 18.1367L78.373 17.1611L80.2607 15.2891C80.3647 15.1931 80.43 15.0941 80.4561 14.9922L80.4688 14.8887V10.5049C80.4687 10.3342 80.4529 10.2114 80.4209 10.1367C80.3889 10.0621 80.3136 9.97187 80.1963 9.86523L76.5166 6.2168C76.3966 6.11278 76.2465 6.04745 76.0664 6.02148L75.877 6.00879V5.00879C76.2643 5.00884 76.6701 5.09952 77.0234 5.3457L77.1719 5.46094L77.1973 5.4834L77.2207 5.50684L80.9004 9.1543H80.8994C81.0202 9.26688 81.1786 9.43062 81.291 9.6416L81.3398 9.74316L81.3789 9.84668C81.4597 10.0899 81.4687 10.339 81.4688 10.5049V14.8887C81.4688 15.3797 81.2215 15.7513 80.9639 15.998L79.0771 17.8711L79.0518 17.8965L79.0244 17.9189L78.5889 18.293L79.5645 19.627L79.6172 19.6992L79.6562 19.7803L81.5283 23.6357L81.542 23.667C81.6098 23.8196 81.6645 23.9784 81.7012 24.1436H81.6992C81.7423 24.327 81.7568 24.5121 81.7568 24.6807V26.9365C81.7568 27.224 81.6836 27.624 81.3633 27.9443C81.043 28.2644 80.6438 28.3369 80.3564 28.3369H75.877C75.6062 28.3369 75.3036 28.2736 75.0264 28.0889C74.7475 27.903 74.5707 27.6458 74.4678 27.3887L74.4609 27.3701L74.4541 27.3506L73.0361 23.3467V26.9365C73.0361 27.224 72.9639 27.624 72.6436 27.9443C72.3233 28.2644 71.9241 28.3369 71.6367 28.3369H66.8682C66.5807 28.3368 66.1815 28.2645 65.8613 27.9443C65.541 27.624 65.4688 27.224 65.4688 26.9365V6.40918C65.4688 6.1217 65.541 5.72171 65.8613 5.40137C66.1815 5.0813 66.5808 5.00887 66.8682 5.00879V6.00879C66.6018 6.00894 66.4688 6.14266 66.4688 6.40918V26.9365L66.4746 27.0303ZM74.5088 13.0645C74.5087 12.2824 74.3525 12.0292 74.3145 11.9883L74.3086 11.9824L74.3037 11.9766C74.2742 11.9439 74.0954 11.793 73.4609 11.793C72.8424 11.793 72.6656 11.9414 72.6338 11.9766L72.6279 11.9824L72.623 11.9883C72.5852 12.0288 72.4288 12.2816 72.4287 13.0645C72.4287 13.8032 72.5724 14.0773 72.6289 14.1465C72.6721 14.1871 72.8644 14.3213 73.4609 14.3213V15.3213L73.1943 15.3135C72.6825 15.2825 72.2905 15.1583 72.0186 14.9414L71.8926 14.8252C71.6219 14.5265 71.4694 14.0397 71.4355 13.3652L71.4287 13.0645C71.4288 12.222 71.5833 11.6353 71.8926 11.3047C72.2019 10.9634 72.725 10.793 73.4609 10.793L73.7305 10.8008C74.3359 10.8381 74.7743 11.006 75.0449 11.3047C75.3542 11.6353 75.5087 12.2221 75.5088 13.0645L75.501 13.3652C75.4672 14.0396 75.3156 14.5265 75.0449 14.8252L74.918 14.9414C74.5995 15.1943 74.1139 15.3212 73.4609 15.3213V14.3213C74.069 14.3212 74.2646 14.1862 74.3076 14.1465C74.3639 14.0779 74.5088 13.8044 74.5088 13.0645ZM75.877 5.00879V6.00879H66.8682V5.00879H75.877Z" fill="black"/>
<path d="M57.1436 27.0302C57.1685 27.2057 57.2689 27.3061 57.4443 27.331L57.5381 27.3369H62.4814C62.7149 27.3369 62.8459 27.2346 62.875 27.0302L62.8818 26.9365V12.1045C62.8818 11.9768 62.8518 11.855 62.792 11.7392L62.7217 11.625L58.9141 6.24899C58.8074 6.08899 58.636 6.00876 58.4014 6.00876V5.00876C58.8786 5.00876 59.3945 5.18698 59.7295 5.67087L63.5381 11.0468H63.5371C63.7539 11.3516 63.8817 11.7108 63.8818 12.1045V26.9365C63.8818 27.224 63.8086 27.624 63.4883 27.9443C63.168 28.2643 62.7688 28.3369 62.4814 28.3369H57.5381C57.2506 28.3369 56.8506 28.2646 56.5303 27.9443C56.2099 27.624 56.1377 27.224 56.1377 26.9365V21.3925H55.2578V26.9365C55.2578 27.224 55.1846 27.624 54.8643 27.9443C54.544 28.2643 54.1448 28.3369 53.8574 28.3369H48.9141C48.6266 28.3369 48.2266 28.2646 47.9062 27.9443C47.5859 27.624 47.5137 27.224 47.5137 26.9365V12.1045C47.5138 11.7134 47.6528 11.3706 47.8252 11.0947L47.8408 11.0713L47.8564 11.0488L51.6484 5.67282L51.6533 5.66501L51.6592 5.6572C51.8951 5.33564 52.2118 5.14569 52.5527 5.06149L52.2148 4.33493L52.2012 4.30563L52.1895 4.27536C52.0832 4.00214 52.0411 3.6587 52.1709 3.30466C52.2952 2.96567 52.5322 2.74123 52.7432 2.60056L52.7539 2.59372L56.4336 0.209931L56.4619 0.191377L56.4922 0.174775C56.7569 0.0277652 57.1972 -0.104153 57.6631 0.120088C58.0322 0.297806 58.2171 0.611234 58.3115 0.828095H58.3135L59.1934 2.68454H59.1914C59.3218 2.95509 59.3991 3.33558 59.2305 3.73435C59.0747 4.10248 58.7831 4.30669 58.5791 4.41403L58.541 4.43356L58.501 4.45114L57.1748 5.00876H58.4014V6.00876H52.9775C52.7536 6.00878 52.5831 6.08903 52.4658 6.24899L48.6738 11.625C48.5673 11.7955 48.5138 11.9552 48.5137 12.1045V26.9365C48.5137 27.17 48.6158 27.302 48.8203 27.331L48.9141 27.3369H53.8574C54.0909 27.3369 54.2219 27.2346 54.251 27.0302L54.2578 26.9365V20.3925H57.1377V26.9365L57.1436 27.0302ZM56.9053 13.6572C56.9053 12.7216 56.734 12.3576 56.6514 12.2617L56.6465 12.2549L56.6416 12.249C56.6054 12.2055 56.4088 12.0332 55.6973 12.0332C55.006 12.0332 54.7947 12.2018 54.7432 12.2617C54.6605 12.358 54.4893 12.7225 54.4893 13.6572C54.4893 14.5668 54.6518 14.9495 54.7461 15.0703C54.8012 15.1322 55.0151 15.2968 55.6973 15.2968V16.2968C54.8868 16.2968 54.316 16.1046 53.9854 15.7207C53.6961 15.3753 53.5332 14.8052 53.4971 14.0107L53.4893 13.6572C53.4893 12.7984 53.6159 12.1679 53.8691 11.7666L53.9854 11.6093C54.316 11.2254 54.8868 11.0332 55.6973 11.0332L55.9941 11.042C56.6578 11.084 57.1292 11.2734 57.4092 11.6093C57.7398 11.9934 57.9053 12.6759 57.9053 13.6572L57.8975 14.0107C57.8613 14.8054 57.6986 15.3753 57.4092 15.7207C57.0892 16.1046 56.5185 16.2968 55.6973 16.2968V15.2968C56.4083 15.2968 56.6052 15.1246 56.6416 15.081L56.6436 15.0791C56.7367 14.9679 56.9052 14.5881 56.9053 13.6572ZM57.4092 1.25681C57.3132 1.01165 57.1695 0.942163 56.9775 1.0488L53.2979 3.43259C53.1059 3.56059 53.0474 3.72106 53.1221 3.91306L53.666 5.08103C53.7514 5.26214 53.8901 5.30987 54.082 5.22458L58.1133 3.52927C58.3158 3.4227 58.375 3.28371 58.29 3.11325L57.4092 1.25681Z" fill="black"/>
<path d="M31.1602 23.3193C31.1789 23.5338 31.2629 23.716 31.4121 23.8652L34.6123 27.0645C34.7936 27.2457 35.0067 27.3369 35.252 27.3369H44.6758C44.9093 27.3369 45.0413 27.2347 45.0703 27.0303L45.0762 26.9365V6.40918C45.0762 6.14251 44.9424 6.00879 44.6758 6.00879V5.00879C44.9632 5.00879 45.3633 5.08105 45.6836 5.40137C46.0039 5.72171 46.0762 6.1217 46.0762 6.40918V26.9365C46.0762 27.224 46.0039 27.624 45.6836 27.9443C45.3632 28.2647 44.9633 28.3369 44.6758 28.3369H35.252C34.7286 28.3369 34.2646 28.1316 33.9053 27.7725L30.7051 24.5723C30.3346 24.2018 30.1562 23.728 30.1562 23.2246V6.40918C30.1562 6.1217 30.2285 5.72171 30.5488 5.40137C30.869 5.0813 31.2683 5.00887 31.5557 5.00879V6.00879C31.2893 6.00894 31.1562 6.14266 31.1562 6.40918V23.2246L31.1602 23.3193ZM37.2188 22.4023C37.0366 22.3754 36.9322 22.2672 36.9062 22.0781L36.9004 21.9766V6.40918C36.9004 6.14251 36.7667 6.00879 36.5 6.00879V5.00879C36.7874 5.00879 37.1866 5.08137 37.5068 5.40137C37.8272 5.72171 37.9004 6.1217 37.9004 6.40918V21.4092H38.3477V6.40918C38.3477 6.1217 38.4209 5.72171 38.7412 5.40137C39.0615 5.08132 39.4607 5.0088 39.748 5.00879V6.00879C39.4814 6.00881 39.3477 6.14254 39.3477 6.40918V22.4092H37.3164L37.2188 22.4023ZM44.6758 5.00879V6.00879H39.748V5.00879H44.6758ZM36.5 5.00879V6.00879H31.5557V5.00879H36.5Z" fill="black"/>
<path d="M28.3574 24.1689V17.209C28.3574 16.9423 28.2772 16.7719 28.1172 16.6973L23.9258 14.2969V11.9932L28.1172 10.2334C28.2571 10.1588 28.3359 10.0266 28.3535 9.83789L28.3574 9.75293V6.40918C28.3574 6.14251 28.2237 6.00879 27.957 6.00879V5.00879C28.2445 5.00879 28.6445 5.08105 28.9648 5.40137C29.2852 5.72171 29.3574 6.1217 29.3574 6.40918V9.75293C29.3574 10.23 29.1722 10.8036 28.5879 11.1152L28.5469 11.1367L28.5049 11.1553L24.9258 12.6572V13.7168L28.6143 15.8291H28.6133C29.2271 16.1581 29.3574 16.7934 29.3574 17.209V24.1689C29.3574 24.3795 29.3176 24.5774 29.2578 24.7568C29.156 25.093 28.9284 25.377 28.5967 25.543L28.5947 25.5449L23.5703 28.04C23.5243 28.0631 23.459 28.0986 23.3711 28.1475L23.3516 28.1572L23.333 28.167C23.1254 28.2708 22.887 28.3369 22.6289 28.3369H18.501C18.2136 28.3368 17.8143 28.2645 17.4941 27.9443C17.1738 27.624 17.1016 27.224 17.1016 26.9365V23.4648C17.1016 23.3065 17.1071 23.1484 17.125 23.0049L17.1328 22.9453L17.1475 22.8867C17.2624 22.427 17.5924 22.1613 17.8623 22.0264L17.8721 22.0215L21.2617 20.374V19.3457L17.8633 17.333V17.332C17.3735 17.0424 17.1016 16.5533 17.1016 15.9932V9.70508C17.1016 9.53401 17.1095 9.30524 17.1641 9.09473H17.1631C17.1645 9.08924 17.1665 9.08356 17.168 9.07812C17.1694 9.07294 17.1704 9.06766 17.1719 9.0625H17.1729C17.295 8.62455 17.6289 8.36424 17.8037 8.24316L17.8125 8.23633L22.0205 5.38867L22.0264 5.38477C22.1861 5.27828 22.3617 5.18773 22.5527 5.12402V5.125C22.782 5.03903 23.0127 5.00879 23.2217 5.00879V6.00879L23.1211 6.0127C23.0252 6.02071 22.9411 6.04127 22.8691 6.07324C22.7732 6.10524 22.677 6.15286 22.5811 6.2168L18.373 9.06445C18.2344 9.16042 18.1552 9.25161 18.1338 9.33691C18.1125 9.41158 18.1016 9.53441 18.1016 9.70508V15.9932C18.1016 16.2062 18.192 16.366 18.373 16.4727L22.2617 18.7773V21.001L18.3096 22.9209L18.2373 22.9639C18.1733 23.0099 18.1332 23.0649 18.1172 23.1289C18.1065 23.2142 18.1016 23.3262 18.1016 23.4648V26.9365C18.1016 27.2031 18.2346 27.3368 18.501 27.3369H22.6289C22.6717 27.3369 22.715 27.332 22.7578 27.3213L22.8857 27.2725C22.9815 27.2193 23.0611 27.1765 23.125 27.1445L28.1494 24.6484C28.2346 24.6058 28.2883 24.5363 28.3096 24.4404C28.3255 24.3925 28.3377 24.346 28.3457 24.3008L28.3574 24.1689ZM27.957 5.00879V6.00879H23.2217V5.00879H27.957Z" fill="black"/>
<path d="M1.00391 23.3193C1.02265 23.5338 1.10662 23.716 1.25586 23.8652L4.45605 27.0645C4.63735 27.2457 4.85044 27.3369 5.0957 27.3369H14.5195C14.753 27.3369 14.885 27.2347 14.9141 27.0303L14.9199 26.9365V6.40918C14.9199 6.14251 14.7862 6.00879 14.5195 6.00879V5.00879C14.807 5.00879 15.207 5.08105 15.5273 5.40137C15.8477 5.72171 15.9199 6.1217 15.9199 6.40918V26.9365C15.9199 27.224 15.8477 27.624 15.5273 27.9443C15.207 28.2647 14.807 28.3369 14.5195 28.3369H5.0957C4.5723 28.3369 4.10834 28.1316 3.74902 27.7725L0.548828 24.5723C0.178366 24.2018 0 23.728 0 23.2246V6.40918C0 6.1217 0.0722314 5.72171 0.392578 5.40137C0.712735 5.0813 1.11201 5.00887 1.39941 5.00879V6.00879C1.13305 6.00894 1 6.14266 1 6.40918V23.2246L1.00391 23.3193ZM7.0625 22.4023C6.88038 22.3754 6.77599 22.2672 6.75 22.0781L6.74414 21.9766V6.40918C6.74414 6.14251 6.61042 6.00879 6.34375 6.00879V5.00879C6.6311 5.00879 7.03031 5.08137 7.35059 5.40137C7.67093 5.72171 7.74414 6.1217 7.74414 6.40918V21.4092H8.19141V6.40918C8.19141 6.1217 8.26461 5.72171 8.58496 5.40137C8.90523 5.08132 9.30442 5.0088 9.5918 5.00879V6.00879C9.32518 6.00881 9.19141 6.14254 9.19141 6.40918V22.4092H7.16016L7.0625 22.4023ZM14.5195 5.00879V6.00879H9.5918V5.00879H14.5195ZM6.34375 5.00879V6.00879H1.39941V5.00879H6.34375Z" fill="black"/>
</svg>
