<svg width="128" height="53" viewBox="0 0 128 53" fill="none" xmlns="http://www.w3.org/2000/svg">
<g filter="url(#filter0_d_271_2)">
<path d="M97.0095 38.292C96.6095 38.292 96.4095 38.092 96.4095 37.692V6.89999C96.4095 6.49999 96.6095 6.29999 97.0095 6.29999H110.641C111.025 6.29999 111.345 6.42799 111.601 6.68399L116.401 11.484C116.673 11.756 116.809 12.076 116.809 12.444V37.692C116.809 38.092 116.609 38.292 116.209 38.292H109.417C109.017 38.292 108.817 38.092 108.817 37.692V12.684H104.401V37.692C104.401 38.092 104.201 38.292 103.801 38.292H97.0095Z" fill="#6890E7"/>
<path d="M83.2751 38.292C82.8751 38.292 82.6751 38.092 82.6751 37.692V6.89999C82.6751 6.49999 82.8751 6.29999 83.2751 6.29999H90.0671C90.4671 6.29999 90.6671 6.49999 90.6671 6.89999V37.692C90.6671 38.092 90.4671 38.292 90.0671 38.292H83.2751Z" fill="#6890E7"/>
<path d="M62.4525 38.292C62.0685 38.292 61.7485 38.156 61.4925 37.884L56.6925 33.084C56.4205 32.828 56.2845 32.508 56.2845 32.124V12.444C56.2845 12.076 56.4205 11.756 56.6925 11.484L61.4925 6.68399C61.7485 6.42799 62.0685 6.29999 62.4525 6.29999H76.6365C77.0365 6.29999 77.2365 6.49999 77.2365 6.89999V12.084C77.2365 12.484 77.0365 12.684 76.6365 12.684H65.0925C64.8685 12.684 64.6765 12.764 64.5165 12.924C64.3565 13.084 64.2765 13.276 64.2765 13.5V31.044C64.2765 31.268 64.3565 31.46 64.5165 31.62C64.6765 31.78 64.8685 31.86 65.0925 31.86H70.2765V25.452H67.2045C66.8045 25.452 66.6045 25.252 66.6045 24.852V19.692C66.6045 19.292 66.8045 19.092 67.2045 19.092H77.0445C77.4445 19.092 77.6445 19.292 77.6445 19.692V32.124C77.6445 32.508 77.5085 32.828 77.2365 33.084L72.4365 37.884C72.1805 38.156 71.8605 38.292 71.4765 38.292H62.4525Z" fill="#6890E7"/>
<path d="M34.9369 38.292C34.5689 38.292 34.2489 38.156 33.9769 37.884L29.1768 33.084C28.9049 32.828 28.7689 32.508 28.7689 32.124V12.444C28.7689 12.076 28.9049 11.756 29.1768 11.484L33.9769 6.68399C34.2489 6.42799 34.5689 6.29999 34.9369 6.29999H44.3689C44.7528 6.29999 45.0729 6.42799 45.3289 6.68399L50.1289 11.484C50.4009 11.756 50.5368 12.076 50.5368 12.444V32.124C50.5368 32.508 50.4009 32.828 50.1289 33.084L45.3289 37.884C45.0729 38.156 44.7528 38.292 44.3689 38.292H34.9369ZM37.7689 31.884H41.5368C42.2089 31.884 42.5449 31.436 42.5449 30.54V14.052C42.5449 13.14 42.2089 12.684 41.5368 12.684H37.7689C37.1129 12.684 36.7849 13.14 36.7849 14.052V30.54C36.7849 31.436 37.1129 31.884 37.7689 31.884Z" fill="#6890E7"/>
<path d="M10.9001 38.292C10.5001 38.292 10.3001 38.092 10.3001 37.692V6.89999C10.3001 6.49999 10.5001 6.29999 10.9001 6.29999H17.6921C18.0921 6.29999 18.2921 6.49999 18.2921 6.89999V31.884H24.3401C24.7401 31.884 24.9401 32.084 24.9401 32.484V37.692C24.9401 38.092 24.7401 38.292 24.3401 38.292H10.9001Z" fill="#6890E7"/>
<path d="M96.4191 37.833C96.4567 38.0954 96.6067 38.2448 96.8693 38.2822L97.0095 38.292H103.801L103.943 38.2822C104.205 38.2446 104.354 38.0951 104.392 37.833L104.401 37.692V12.684H108.817V37.692C108.817 38.092 109.017 38.292 109.417 38.292H116.209C116.559 38.292 116.756 38.139 116.8 37.833L116.809 37.692V12.444C116.809 12.1219 116.706 11.8364 116.497 11.5879L116.401 11.484L111.601 6.68399C111.377 6.46001 111.104 6.33364 110.782 6.30566L110.641 6.29999L110.642 1.2998C112.262 1.29988 113.882 1.89358 115.137 3.14844L119.937 7.94824C121.099 9.11061 121.81 10.6848 121.81 12.4443V37.6924C121.81 38.6631 121.564 40.3095 120.195 41.6777C118.827 43.0461 117.18 43.292 116.209 43.292H109.417C108.714 43.292 107.658 43.1611 106.609 42.5703C105.56 43.1604 104.505 43.2919 103.802 43.292H97.0099C96.0392 43.292 94.392 43.0461 93.0236 41.6777C91.6555 40.3095 91.4094 38.6631 91.4094 37.6924V6.90039C91.4094 5.92967 91.6552 4.28246 93.0236 2.91406C94.392 1.54569 96.0392 1.2998 97.0099 1.2998L97.0095 6.29999L96.8693 6.30957C96.5628 6.3532 96.4095 6.54982 96.4095 6.89999V37.692L96.4191 37.833ZM110.642 1.2998L110.641 6.29999H97.0095L97.0099 1.2998H110.642Z" fill="black"/>
<path d="M82.6848 37.833C82.7224 38.0954 82.8723 38.2448 83.1349 38.2822L83.2751 38.292H90.0671L90.2082 38.2822C90.4702 38.2446 90.6198 38.0951 90.6574 37.833L90.6671 37.692V6.89999C90.6671 6.55017 90.5141 6.35346 90.2082 6.30957L90.0671 6.29999L90.0676 1.2998C91.0383 1.29988 92.6847 1.54593 94.0529 2.91406C95.4213 4.28246 95.6672 5.92967 95.6672 6.90039V37.6924C95.6671 38.6631 95.4211 40.3095 94.0529 41.6777C92.6847 43.0459 91.0384 43.2919 90.0676 43.292H83.2756C82.3048 43.292 80.6576 43.0461 79.2892 41.6777C77.9211 40.3095 77.6751 38.6631 77.675 37.6924V6.90039C77.675 5.92967 77.9208 4.28246 79.2892 2.91406C80.6576 1.54569 82.3049 1.2998 83.2756 1.2998L83.2751 6.29999L83.1349 6.30957C82.8284 6.3532 82.6751 6.54982 82.6751 6.89999V37.692L82.6848 37.833ZM90.0676 1.2998L90.0671 6.29999H83.2751L83.2756 1.2998H90.0676Z" fill="black"/>
<path d="M56.2912 32.2646C56.3209 32.5868 56.4544 32.8599 56.6925 33.084L61.4925 37.884C61.7485 38.156 62.0685 38.292 62.4525 38.292H71.4765L71.6174 38.2852C71.9394 38.2554 72.2125 38.122 72.4365 37.884L77.2365 33.084C77.4745 32.8599 77.6082 32.5868 77.6379 32.2646L77.6445 32.124V19.692C77.6445 19.292 77.4445 19.092 77.0445 19.092H67.2045C66.8045 19.092 66.6045 19.292 66.6045 19.692V24.852C66.6045 25.252 66.8045 25.452 67.2045 25.452H70.2765V31.86H65.0925L65.0099 31.8564C64.8479 31.8414 64.7043 31.7808 64.5783 31.6758L64.5165 31.62C64.3766 31.4801 64.298 31.3158 64.2805 31.127L64.2765 31.044V13.5C64.2765 13.276 64.3565 13.084 64.5165 12.924C64.6564 12.7841 64.8211 12.705 65.0099 12.6875L65.0925 12.684H76.6365L76.7775 12.6748C77.0398 12.6372 77.1893 12.487 77.2267 12.2246L77.2365 12.084V6.89999C77.2365 6.55016 77.0835 6.35345 76.7775 6.30957L76.6365 6.29999L76.6369 1.2998C77.6077 1.29988 79.2541 1.54593 80.6223 2.91406C81.9907 4.28246 82.2365 5.92967 82.2365 6.90039V12.084C82.2365 12.9609 82.0332 14.3874 80.9855 15.6641C81.0001 15.6783 81.0159 15.6915 81.0305 15.7061C82.3988 17.0745 82.6447 18.7217 82.6447 19.6924V32.124C82.6447 33.7945 82.0054 35.3987 80.7697 36.6172L80.7717 36.6191L75.9719 41.4199L75.9699 41.418C74.7515 42.6534 73.147 43.2919 71.4767 43.292H62.4523C60.7818 43.292 59.1767 42.6537 57.9582 41.418L57.9572 41.4199L53.1574 36.6191C51.922 35.4007 51.2844 33.7943 51.2844 32.124V12.4443C51.2844 10.6848 51.995 9.11061 53.1574 7.94824L57.9572 3.14844C59.2121 1.8936 60.8316 1.29984 62.4523 1.2998L62.4525 6.29999C62.0685 6.29999 61.7485 6.42799 61.4925 6.68399L56.6925 11.484C56.4205 11.756 56.2845 12.076 56.2845 12.444V32.124L56.2912 32.2646ZM76.6369 1.2998L76.6365 6.29999H62.4525L62.4523 1.2998H76.6369Z" fill="black"/>
<path d="M28.7756 32.2646C28.8053 32.5868 28.9388 32.8599 29.1768 33.084L33.9769 37.884C34.2489 38.156 34.5689 38.292 34.9369 38.292H44.3689L44.5099 38.2852C44.8319 38.2554 45.1049 38.122 45.3289 37.884L50.1289 33.084C50.3669 32.8599 50.5008 32.5867 50.5305 32.2646L50.5368 32.124V12.444C50.5368 12.122 50.4331 11.8364 50.2248 11.5879L50.1289 11.484L45.3289 6.68399C45.1049 6.46 44.8319 6.33368 44.5099 6.30566L44.3689 6.29999L44.3693 1.2998C45.8887 1.29991 47.4073 1.82164 48.6252 2.9209L48.8644 3.14844L53.6642 7.94824C54.8266 9.11061 55.5373 10.6848 55.5373 12.4443V32.124C55.5373 33.7945 54.8979 35.3987 53.6623 36.6172L53.6642 36.6191L48.8644 41.4199L48.8625 41.418C47.6441 42.6534 46.0396 43.2919 44.3693 43.292H34.9367C33.1774 43.292 31.6039 42.5821 30.4416 41.4199L25.6418 36.6191C25.3807 36.3617 25.1468 36.086 24.9396 35.7969L24.9401 32.484C24.9401 32.084 24.7401 31.884 24.3401 31.884L23.7687 31.8838V12.4443C23.7687 10.6848 24.4794 9.11061 25.6418 7.94824L30.4953 3.09473L30.55 3.04297C31.734 1.92864 33.274 1.29984 34.9367 1.2998L34.9369 6.29999C34.5689 6.29999 34.2489 6.42799 33.9769 6.68399L29.1768 11.484C28.9049 11.756 28.7689 12.076 28.7689 12.444V32.124L28.7756 32.2646ZM42.5449 30.54L42.5412 30.7031C42.5017 31.4902 42.1665 31.8838 41.5368 31.884H37.7689C37.154 31.8839 36.8268 31.4903 36.7883 30.7031L36.7849 30.54V14.052C36.7849 13.14 37.1129 12.684 37.7689 12.684H41.5368C42.2089 12.684 42.5449 13.14 42.5449 14.052V30.54ZM44.3693 1.2998L44.3689 6.29999H34.9369L34.9367 1.2998H44.3693Z" fill="black"/>
<path d="M10.3098 37.833C10.3474 38.0954 10.4973 38.2448 10.7599 38.2822L10.9001 38.292H24.3401C24.69 38.292 24.887 38.139 24.9308 37.833L24.9401 37.692V32.484C24.9401 32.084 24.7401 31.884 24.3401 31.884L24.34 26.8838C25.3107 26.8838 26.957 27.1299 28.3254 28.498C28.4885 28.6612 28.636 28.8286 28.7687 28.998L28.7689 32.124C28.7689 32.508 28.9049 32.828 29.1768 33.084L29.9396 33.8467V37.6924C29.9396 38.6632 29.6936 40.3095 28.3254 41.6777C26.957 43.0459 25.3107 43.292 24.34 43.292H10.9006C9.92985 43.292 8.28264 43.0461 6.91425 41.6777C5.54608 40.3095 5.30005 38.6631 5.29999 37.6924V6.90039C5.29999 5.92967 5.54585 4.28246 6.91425 2.91406C8.28264 1.54569 9.92986 1.2998 10.9006 1.2998L10.9001 6.29999L10.7599 6.30957C10.4534 6.3532 10.3001 6.54982 10.3001 6.89999V37.692L10.3098 37.833ZM18.2921 6.89999C18.2921 6.55017 18.1391 6.35346 17.8332 6.30957L17.6921 6.29999L17.6926 1.2998C18.6633 1.29988 20.3097 1.54593 21.6779 2.91406C23.0463 4.28246 23.2922 5.92967 23.2922 6.90039V26.8838H24.34L24.3401 31.884H18.2921V6.89999ZM17.6926 1.2998L17.6921 6.29999H10.9001L10.9006 1.2998H17.6926Z" fill="black"/>
</g>
<defs>
<filter id="filter0_d_271_2" x="-1.23978e-05" y="-0.000195503" width="127.11" height="52.5922" filterUnits="userSpaceOnUse" color-interpolation-filters="sRGB">
<feFlood flood-opacity="0" result="BackgroundImageFix"/>
<feColorMatrix in="SourceAlpha" type="matrix" values="0 0 0 0 0 0 0 0 0 0 0 0 0 0 0 0 0 0 127 0" result="hardAlpha"/>
<feOffset dy="4"/>
<feGaussianBlur stdDeviation="2.65"/>
<feComposite in2="hardAlpha" operator="out"/>
<feColorMatrix type="matrix" values="0 0 0 0 0 0 0 0 0 0 0 0 0 0 0 0 0 0 0.25 0"/>
<feBlend mode="normal" in2="BackgroundImageFix" result="effect1_dropShadow_271_2"/>
<feBlend mode="normal" in="SourceGraphic" in2="effect1_dropShadow_271_2" result="shape"/>
</filter>
</defs>
</svg>
