<svg width="135" height="24" viewBox="0 0 135 24" fill="none" xmlns="http://www.w3.org/2000/svg">
<path d="M119.976 22.328C119.709 22.328 119.576 22.1947 119.576 21.928V1.4C119.576 1.13333 119.709 1 119.976 1H129.864C130.109 1 130.323 1.08533 130.504 1.256L133.704 4.456C133.875 4.63733 133.96 4.85067 133.96 5.096V18.216C133.96 18.472 133.875 18.6853 133.704 18.856L130.504 22.056C130.323 22.2373 130.109 22.328 129.864 22.328H119.976ZM125.32 17.4H127.56C128.008 17.4 128.232 17.096 128.232 16.488V6.824C128.232 6.22667 128.008 5.928 127.56 5.928H125.32V17.4Z" fill="#DEDBDB"/>
<path d="M103.587 22.328C103.321 22.328 103.187 22.1947 103.187 21.928V1.4C103.187 1.13333 103.321 1 103.587 1H112.595C112.862 1 113.075 1.06933 113.235 1.208L116.915 4.856C117.033 4.96267 117.107 5.05333 117.139 5.128C117.171 5.20267 117.187 5.32533 117.187 5.496V9.88C117.187 10.0187 117.118 10.152 116.979 10.28L115.091 12.152L113.955 13.128L115.475 15.208L117.347 19.064C117.39 19.16 117.422 19.256 117.443 19.352C117.465 19.4373 117.475 19.544 117.475 19.672V21.928C117.475 22.1947 117.342 22.328 117.075 22.328H112.595C112.361 22.328 112.201 22.2213 112.115 22.008L109.667 15.096H108.755V21.928C108.755 22.1947 108.622 22.328 108.355 22.328H103.587ZM110.179 10.312C110.926 10.312 111.454 10.1467 111.763 9.816C112.073 9.47467 112.227 8.888 112.227 8.056C112.227 7.21333 112.073 6.62667 111.763 6.296C111.454 5.95467 110.926 5.784 110.179 5.784C109.443 5.784 108.921 5.95467 108.611 6.296C108.302 6.62667 108.147 7.21333 108.147 8.056C108.147 8.888 108.302 9.47467 108.611 9.816C108.921 10.1467 109.443 10.312 110.179 10.312Z" fill="#DEDBDB"/>
<path d="M89.6271 22.328C89.3818 22.328 89.1685 22.2373 88.9871 22.056L85.7871 18.856C85.6165 18.6853 85.5311 18.472 85.5311 18.216V5.096C85.5311 4.85067 85.6165 4.63733 85.7871 4.456L88.9871 1.256C89.1685 1.08533 89.3818 1 89.6271 1H96.0111C96.2671 1 96.4805 1.08533 96.6511 1.256L99.8511 4.456C100.032 4.63733 100.123 4.85067 100.123 5.096V18.216C100.123 18.472 100.032 18.6853 99.8511 18.856L96.6511 22.056C96.4805 22.2373 96.2671 22.328 96.0111 22.328H89.6271ZM91.9471 17.4H93.7071C94.1551 17.4 94.3791 17.096 94.3791 16.488V6.824C94.3791 6.22667 94.1551 5.928 93.7071 5.928H91.9471C91.4991 5.928 91.2751 6.22667 91.2751 6.824V16.488C91.2751 17.096 91.4991 17.4 91.9471 17.4Z" fill="#DEDBDB"/>
<path d="M63.5646 22.328C63.3193 22.328 63.106 22.2373 62.9246 22.056L59.7246 18.856C59.554 18.6853 59.4686 18.472 59.4686 18.216V1.4C59.4686 1.13333 59.602 1 59.8686 1H64.8126C65.0793 1 65.2126 1.13333 65.2126 1.4V16.968H68.0926V1.4C68.0926 1.13333 68.226 1 68.4926 1H73.4366C73.7033 1 73.8366 1.13333 73.8366 1.4V16.968H76.7166V1.4C76.7166 1.13333 76.85 1 77.1166 1H82.0606C82.3273 1 82.4606 1.13333 82.4606 1.4V18.216C82.4606 18.472 82.37 18.6853 82.1886 18.856L78.9886 22.056C78.8073 22.2373 78.594 22.328 78.3486 22.328H74.6686C74.4233 22.328 74.21 22.2373 74.0286 22.056L71.3406 19.368H70.5886L67.9006 22.056C67.7193 22.2373 67.506 22.328 67.2606 22.328H63.5646Z" fill="#DEDBDB"/>
<path d="M46.8764 22.328C46.6097 22.328 46.4764 22.1947 46.4764 21.928V18.456C46.4764 18.3173 46.4817 18.2053 46.4924 18.12C46.5137 18.0347 46.5777 17.9653 46.6844 17.912L50.6364 15.992V13.768L46.7484 11.464C46.567 11.3573 46.4764 11.1973 46.4764 10.984V4.696C46.4764 4.52533 46.487 4.40267 46.5084 4.328C46.5297 4.24267 46.6097 4.152 46.7484 4.056L50.9564 1.208C51.0524 1.144 51.1484 1.096 51.2444 1.064C51.3404 1.02133 51.4577 1 51.5964 1H56.3324C56.599 1 56.7324 1.13333 56.7324 1.4V4.744C56.7324 4.97867 56.6524 5.13867 56.4924 5.224L52.3004 6.984V9.288L56.4924 11.688C56.6524 11.7627 56.7324 11.9333 56.7324 12.2V19.16C56.7324 19.2453 56.7164 19.336 56.6844 19.432C56.663 19.528 56.6097 19.5973 56.5244 19.64L51.5004 22.136C51.4364 22.168 51.3564 22.2107 51.2604 22.264C51.175 22.3067 51.0897 22.328 51.0044 22.328H46.8764Z" fill="#DEDBDB"/>
<path d="M34.2201 22.328C33.9535 22.328 33.8201 22.1947 33.8201 21.928V18.456C33.8201 18.3173 33.8255 18.2053 33.8361 18.12C33.8575 18.0347 33.9215 17.9653 34.0281 17.912L37.9801 15.992V13.768L34.0921 11.464C33.9108 11.3573 33.8201 11.1973 33.8201 10.984V4.696C33.8201 4.52533 33.8308 4.40267 33.8521 4.328C33.8735 4.24267 33.9535 4.152 34.0921 4.056L38.3001 1.208C38.3961 1.144 38.4921 1.096 38.5881 1.064C38.6841 1.02133 38.8015 1 38.9401 1H43.6761C43.9428 1 44.0761 1.13333 44.0761 1.4V4.744C44.0761 4.97867 43.9961 5.13867 43.8361 5.224L39.6441 6.984V9.288L43.8361 11.688C43.9961 11.7627 44.0761 11.9333 44.0761 12.2V19.16C44.0761 19.2453 44.0601 19.336 44.0281 19.432C44.0068 19.528 43.9535 19.5973 43.8681 19.64L38.8441 22.136C38.7801 22.168 38.7001 22.2107 38.6041 22.264C38.5188 22.3067 38.4335 22.328 38.3481 22.328H34.2201Z" fill="#DEDBDB"/>
<path d="M17.1949 22.328C16.9282 22.328 16.7949 22.1947 16.7949 21.928V7.096C16.7949 6.94667 16.8482 6.78667 16.9549 6.616L20.7469 1.24C20.8642 1.08 21.0349 1 21.2589 1H26.6829C26.9175 1 27.0882 1.08 27.1949 1.24L31.0029 6.616C31.1095 6.76533 31.1629 6.92533 31.1629 7.096V21.928C31.1629 22.1947 31.0295 22.328 30.7629 22.328H25.8189C25.5522 22.328 25.4189 22.1947 25.4189 21.928V15.384H22.5389V21.928C22.5389 22.1947 22.4055 22.328 22.1389 22.328H17.1949ZM23.9789 11.288C24.8002 11.288 25.3709 11.096 25.6909 10.712C26.0215 10.3173 26.1869 9.62933 26.1869 8.648C26.1869 7.66667 26.0215 6.984 25.6909 6.6C25.3709 6.216 24.8002 6.024 23.9789 6.024C23.1682 6.024 22.5975 6.216 22.2669 6.6C21.9362 6.984 21.7709 7.66667 21.7709 8.648C21.7709 9.62933 21.9362 10.3173 22.2669 10.712C22.5975 11.096 23.1682 11.288 23.9789 11.288Z" fill="#DEDBDB"/>
<path d="M1.39988 22.328C1.13321 22.328 0.999878 22.1947 0.999878 21.928V1.4C0.999878 1.13333 1.13321 1 1.39988 1H10.5679C10.8239 1 11.0372 1.08533 11.2079 1.256L14.4079 4.456C14.5892 4.63733 14.6799 4.85067 14.6799 5.096V11.336C14.6799 11.592 14.5892 11.8053 14.4079 11.976L11.2079 15.176C11.0372 15.3573 10.8239 15.448 10.5679 15.448H6.74388V21.928C6.74388 22.1947 6.61054 22.328 6.34388 22.328H1.39988ZM7.68788 10.408C8.43455 10.408 8.96254 10.248 9.27188 9.928C9.58121 9.59733 9.73588 9.02667 9.73588 8.216C9.73588 7.40533 9.58121 6.83467 9.27188 6.504C8.96254 6.17333 8.43455 6.008 7.68788 6.008C6.95188 6.008 6.42921 6.17333 6.11988 6.504C5.81054 6.83467 5.65588 7.40533 5.65588 8.216C5.65588 9.02667 5.81054 9.59733 6.11988 9.928C6.42921 10.248 6.95188 10.408 7.68788 10.408Z" fill="#DEDBDB"/>
<path d="M133.96 18.2158V5.0957C133.96 4.85055 133.875 4.63729 133.704 4.45605L130.504 1.25586C130.345 1.10677 130.162 1.02264 129.955 1.00391L129.864 1V0C130.306 3.0075e-05 130.711 0.142337 131.049 0.407227L131.189 0.52832L131.2 0.538086L134.433 3.77051C134.775 4.13414 134.96 4.59159 134.96 5.0957V18.2158C134.96 18.7192 134.782 19.193 134.411 19.5635L131.211 22.7637C130.852 23.1228 130.388 23.3281 129.864 23.3281H119.977C119.689 23.3281 119.289 23.2559 118.969 22.9355C118.648 22.6152 118.576 22.2152 118.576 21.9277V1.40039C118.576 1.11291 118.648 0.712924 118.969 0.392578C119.289 0.0723074 119.689 0 119.977 0V1L119.883 1.00684C119.678 1.0359 119.576 1.16692 119.576 1.40039V21.9277C119.576 22.1613 119.678 22.2932 119.883 22.3223L119.977 22.3281H129.864L129.955 22.3242C130.163 22.3043 130.345 22.2142 130.504 22.0557L133.704 18.8564C133.875 18.6858 133.96 18.4718 133.96 18.2158ZM126.32 16.4004H127.232V6.92773H126.32V16.4004ZM129.864 0V1H119.977V0H129.864ZM128.232 16.4883L128.222 16.7021C128.173 17.1673 127.952 17.4002 127.561 17.4004H125.32V5.92773H127.561C128.008 5.92793 128.232 6.22708 128.232 6.82422V16.4883Z" fill="black"/>
<path d="M103.193 22.0215C103.222 22.2258 103.354 22.328 103.587 22.3281H108.355L108.449 22.3223C108.653 22.2931 108.755 22.1611 108.755 21.9277V15.0957H109.667L112.115 22.0078C112.19 22.1944 112.322 22.2999 112.511 22.3232L112.596 22.3281H117.075C117.309 22.3281 117.44 22.2259 117.469 22.0215L117.476 21.9277V19.6719C117.476 19.5442 117.465 19.4378 117.443 19.3525C117.433 19.3045 117.419 19.256 117.403 19.208L117.348 19.0645L115.476 15.208L113.955 13.1279L115.092 12.1523L116.979 10.2803C117.083 10.1843 117.149 10.0853 117.175 9.9834L117.188 9.87988V5.49609C117.187 5.32544 117.172 5.20259 117.14 5.12793C117.108 5.05328 117.032 4.96308 116.915 4.85645L113.235 1.20801C113.115 1.10399 112.965 1.03866 112.785 1.0127L112.596 1V0C112.983 5.23661e-05 113.389 0.0907351 113.742 0.336914L113.891 0.452148L113.916 0.474609L113.939 0.498047L117.619 4.14551H117.618C117.739 4.25809 117.897 4.42183 118.01 4.63281L118.059 4.73438L118.098 4.83789C118.178 5.08109 118.187 5.33018 118.188 5.49609V9.87988C118.188 10.3709 117.94 10.7425 117.683 10.9893L115.796 12.8623L115.771 12.8877L115.743 12.9102L115.308 13.2842L116.283 14.6182L116.336 14.6904L116.375 14.7715L118.247 18.627L118.261 18.6582C118.329 18.8108 118.383 18.9697 118.42 19.1348H118.418C118.461 19.3183 118.476 19.5033 118.476 19.6719V21.9277C118.476 22.2152 118.402 22.6152 118.082 22.9355C117.762 23.2556 117.363 23.3281 117.075 23.3281H112.596C112.325 23.3281 112.022 23.2648 111.745 23.0801C111.466 22.8942 111.289 22.637 111.187 22.3799L111.18 22.3613L111.173 22.3418L109.755 18.3379V21.9277C109.755 22.2152 109.683 22.6152 109.362 22.9355C109.042 23.2556 108.643 23.3281 108.355 23.3281H103.587C103.299 23.328 102.9 23.2557 102.58 22.9355C102.26 22.6152 102.188 22.2152 102.188 21.9277V1.40039C102.188 1.11291 102.26 0.712924 102.58 0.392578C102.9 0.0725088 103.3 7.62277e-05 103.587 0V1C103.321 1.00015 103.188 1.13388 103.188 1.40039V21.9277L103.193 22.0215ZM111.228 8.05566C111.227 7.27361 111.071 7.02042 111.033 6.97949L111.027 6.97363L111.022 6.96777C110.993 6.93516 110.814 6.78423 110.18 6.78418C109.561 6.78418 109.384 6.93266 109.353 6.96777L109.347 6.97363L109.342 6.97949C109.304 7.02 109.148 7.27277 109.147 8.05566C109.147 8.7944 109.291 9.06854 109.348 9.1377C109.391 9.17836 109.583 9.3125 110.18 9.3125V10.3125L109.913 10.3047C109.401 10.2737 109.009 10.1495 108.737 9.93262L108.611 9.81641C108.341 9.51771 108.188 9.03088 108.154 8.35645L108.147 8.05566C108.148 7.21324 108.302 6.6265 108.611 6.2959C108.921 5.95464 109.444 5.78418 110.18 5.78418L110.449 5.79199C111.055 5.82934 111.493 5.99725 111.764 6.2959C112.073 6.62651 112.227 7.21327 112.228 8.05566L112.22 8.35645C112.186 9.03086 112.034 9.51772 111.764 9.81641L111.637 9.93262C111.318 10.1856 110.833 10.3125 110.18 10.3125V9.3125C110.788 9.31245 110.983 9.17737 111.026 9.1377C111.083 9.06912 111.228 8.79566 111.228 8.05566ZM112.596 0V1H103.587V0H112.596Z" fill="black"/>
<path d="M85.5352 18.3105C85.5539 18.525 85.6379 18.7072 85.7871 18.8564L88.9873 22.0557C89.1686 22.237 89.3817 22.3281 89.627 22.3281H96.0107C96.2667 22.3281 96.4807 22.237 96.6514 22.0557L99.8516 18.8564C100.033 18.6858 100.123 18.4718 100.123 18.2158V5.0957C100.123 4.88119 100.054 4.69096 99.915 4.52539L99.8516 4.45605L96.6514 1.25586C96.4807 1.0852 96.2667 1 96.0107 1V0C96.4512 0 96.8692 0.136572 97.2148 0.418945L97.3584 0.548828L100.559 3.74902C100.918 4.10831 101.123 4.57233 101.123 5.0957V18.2158C101.123 18.7289 100.931 19.1987 100.557 19.5615L100.559 19.5635L97.3584 22.7637L97.3564 22.7617C96.9936 23.1356 96.5238 23.3281 96.0107 23.3281H89.627C89.1036 23.3281 88.6396 23.1228 88.2803 22.7637L85.0801 19.5635C84.7096 19.193 84.5312 18.7192 84.5312 18.2158V5.0957C84.5314 4.59159 84.7164 4.13414 85.0586 3.77051L88.291 0.538086L88.3018 0.52832C88.6655 0.186019 89.1227 4.03275e-05 89.627 0V1C89.3818 1.00004 89.1685 1.08538 88.9873 1.25586L85.7871 4.45605C85.6165 4.63729 85.5313 4.85055 85.5312 5.0957V18.2158L85.5352 18.3105ZM92.2754 16.4004H93.3789V6.92773H92.2754V16.4004ZM96.0107 0V1H89.627V0H96.0107ZM94.3789 16.4883L94.3682 16.7021C94.3191 17.1674 94.0989 17.4004 93.707 17.4004H91.9473L91.8662 17.3965C91.5247 17.3658 91.3307 17.1344 91.2852 16.7021L91.2754 16.4883V6.82422C91.2754 6.30137 91.4468 6.00758 91.79 5.94238L91.9473 5.92773H93.707C94.155 5.92773 94.3789 6.22688 94.3789 6.82422V16.4883Z" fill="black"/>
<path d="M59.4727 18.3105C59.4914 18.525 59.5754 18.7072 59.7246 18.8564L62.9248 22.0557C63.1061 22.237 63.3192 22.3281 63.5645 22.3281H67.2607L67.3516 22.3242C67.5591 22.3043 67.7418 22.2142 67.9004 22.0557L70.5889 19.3682H71.3408L74.0283 22.0557C74.187 22.2143 74.3704 22.3044 74.5781 22.3242L74.6689 22.3281H78.3486L78.4395 22.3242C78.647 22.3043 78.8297 22.2143 78.9883 22.0557L82.1885 18.8564C82.347 18.7072 82.4361 18.525 82.4561 18.3105L82.4609 18.2158V1.40039C82.4609 1.13372 82.3272 1 82.0605 1V0C82.3479 0 82.7471 0.0725631 83.0674 0.392578C83.3877 0.712924 83.4609 1.11291 83.4609 1.40039V18.2158C83.4609 18.729 83.2686 19.1996 82.8945 19.5625L82.8955 19.5635L79.6953 22.7637C79.336 23.1228 78.8721 23.3281 78.3486 23.3281H74.6689C74.1454 23.3281 73.6807 23.123 73.3213 22.7637L70.9639 20.4062L68.6074 22.7637C68.2481 23.1228 67.7842 23.3281 67.2607 23.3281H63.5645C63.0411 23.3281 62.5771 23.1228 62.2178 22.7637L59.0176 19.5635C58.6471 19.193 58.4688 18.7192 58.4688 18.2158V1.40039C58.4688 1.11291 58.541 0.712924 58.8613 0.392578C59.1815 0.0725088 59.5808 7.62277e-05 59.8682 0V1C59.6018 1.00015 59.4688 1.13388 59.4688 1.40039V18.2158L59.4727 18.3105ZM65.2129 1.40039C65.2129 1.13372 65.0792 1 64.8125 1V0C65.0999 0 65.4991 0.0725827 65.8193 0.392578C66.1397 0.712924 66.2129 1.11291 66.2129 1.40039V15.9678H67.0928V1.40039C67.0928 1.11291 67.165 0.712924 67.4854 0.392578C67.8055 0.07251 68.2048 7.23377e-05 68.4922 0V1C68.2258 1.00014 68.0928 1.13387 68.0928 1.40039V16.9678H65.2129V1.40039ZM73.8369 1.40039C73.8369 1.13372 73.7032 1 73.4365 1V0C73.7239 0 74.1231 0.0725729 74.4434 0.392578C74.7637 0.712924 74.8369 1.11291 74.8369 1.40039V15.9678H75.7168V1.40039C75.7168 1.11291 75.789 0.712924 76.1094 0.392578C76.4295 0.0725113 76.8288 6.83274e-05 77.1162 0V1C76.8498 1.00014 76.7168 1.13386 76.7168 1.40039V16.9678H73.8369V1.40039ZM82.0605 0V1H77.1162V0H82.0605ZM73.4365 0V1H68.4922V0H73.4365ZM64.8125 0V1H59.8682V0H64.8125Z" fill="black"/>
<path d="M56.7324 19.1602V12.2002C56.7324 11.9335 56.6522 11.7631 56.4922 11.6885L52.3008 9.28809V6.98438L56.4922 5.22461C56.6321 5.15001 56.7109 5.01784 56.7285 4.8291L56.7324 4.74414V1.40039C56.7324 1.13372 56.5987 1 56.332 1V0C56.6195 0 57.0195 0.0722613 57.3398 0.392578C57.6602 0.712924 57.7324 1.11291 57.7324 1.40039V4.74414C57.7324 5.22122 57.5472 5.79479 56.9629 6.10645L56.9219 6.12793L56.8799 6.14648L53.3008 7.64844V8.70801L56.9893 10.8203H56.9883C57.6021 11.1493 57.7324 11.7847 57.7324 12.2002V19.1602C57.7324 19.3707 57.6926 19.5686 57.6328 19.748C57.531 20.0842 57.3034 20.3682 56.9717 20.5342L56.9697 20.5361L51.9453 23.0312C51.8993 23.0543 51.834 23.0898 51.7461 23.1387L51.7266 23.1484L51.708 23.1582C51.5004 23.262 51.262 23.3281 51.0039 23.3281H46.876C46.5886 23.3281 46.1893 23.2557 45.8691 22.9355C45.5488 22.6152 45.4766 22.2152 45.4766 21.9277V18.4561C45.4766 18.2977 45.4821 18.1396 45.5 17.9961L45.5078 17.9365L45.5225 17.8779C45.6374 17.4182 45.9674 17.1525 46.2373 17.0176L46.2471 17.0127L49.6367 15.3652V14.3369L46.2383 12.3242V12.3232C45.7485 12.0336 45.4766 11.5445 45.4766 10.9844V4.69629C45.4766 4.52522 45.4845 4.29645 45.5391 4.08594H45.5381C45.5395 4.08045 45.5415 4.07477 45.543 4.06934C45.5444 4.06415 45.5454 4.05887 45.5469 4.05371H45.5479C45.67 3.61576 46.0039 3.35545 46.1787 3.23438L46.1875 3.22754L50.3955 0.379883L50.4014 0.375977C50.5611 0.269488 50.7367 0.178945 50.9277 0.115234V0.116211C51.157 0.0302449 51.3877 0 51.5967 0V1L51.4961 1.00391C51.4002 1.01192 51.3161 1.03248 51.2441 1.06445C51.1482 1.09645 51.052 1.14407 50.9561 1.20801L46.748 4.05566C46.6094 4.15163 46.5302 4.24282 46.5088 4.32812C46.4875 4.40279 46.4766 4.52562 46.4766 4.69629V10.9844C46.4766 11.1974 46.567 11.3572 46.748 11.4639L50.6367 13.7686V15.9922L46.6846 17.9121L46.6123 17.9551C46.5483 18.0011 46.5082 18.0561 46.4922 18.1201C46.4815 18.2054 46.4766 18.3174 46.4766 18.4561V21.9277C46.4766 22.1943 46.6096 22.328 46.876 22.3281H51.0039C51.0467 22.3281 51.09 22.3232 51.1328 22.3125L51.2607 22.2637C51.3565 22.2105 51.4361 22.1677 51.5 22.1357L56.5244 19.6396C56.6096 19.597 56.6633 19.5276 56.6846 19.4316C56.7005 19.3837 56.7127 19.3372 56.7207 19.292L56.7324 19.1602ZM56.332 0V1H51.5967V0H56.332Z" fill="black"/>
<path d="M44.0762 19.1602V12.2002C44.0762 11.9335 43.9959 11.7631 43.8359 11.6885L39.6445 9.28809V6.98438L43.8359 5.22461C43.9758 5.15001 44.0547 5.01784 44.0723 4.8291L44.0762 4.74414V1.40039C44.0762 1.13372 43.9424 1 43.6758 1V0C43.9632 0 44.3633 0.0722613 44.6836 0.392578C45.0039 0.712924 45.0762 1.11291 45.0762 1.40039V4.74414C45.0762 5.22122 44.891 5.79479 44.3066 6.10645L44.2656 6.12793L44.2236 6.14648L40.6445 7.64844V8.70801L44.333 10.8203H44.332C44.9459 11.1493 45.0762 11.7847 45.0762 12.2002V19.1602C45.0762 19.3707 45.0364 19.5686 44.9766 19.748C44.8747 20.0842 44.6472 20.3682 44.3154 20.5342L44.3135 20.5361L39.2891 23.0312C39.243 23.0543 39.1778 23.0898 39.0898 23.1387L39.0703 23.1484L39.0518 23.1582C38.8441 23.262 38.6058 23.3281 38.3477 23.3281H34.2197C33.9323 23.3281 33.5331 23.2557 33.2129 22.9355C32.8925 22.6152 32.8203 22.2152 32.8203 21.9277V18.4561C32.8203 18.2977 32.8258 18.1396 32.8438 17.9961L32.8516 17.9365L32.8662 17.8779C32.9812 17.4182 33.3111 17.1525 33.5811 17.0176L33.5908 17.0127L36.9805 15.3652V14.3369L33.582 12.3242V12.3232C33.0923 12.0336 32.8204 11.5445 32.8203 10.9844V4.69629C32.8203 4.52522 32.8282 4.29645 32.8828 4.08594H32.8818C32.8832 4.08045 32.8853 4.07477 32.8867 4.06934C32.8881 4.06415 32.8892 4.05887 32.8906 4.05371H32.8916C33.0138 3.61576 33.3477 3.35545 33.5225 3.23438L33.5312 3.22754L37.7393 0.379883L37.7451 0.375977C37.9048 0.269488 38.0805 0.178945 38.2715 0.115234V0.116211C38.5007 0.0302449 38.7315 0 38.9404 0V1L38.8398 1.00391C38.7439 1.01192 38.6598 1.03248 38.5879 1.06445C38.492 1.09645 38.3957 1.14407 38.2998 1.20801L34.0918 4.05566C33.9532 4.15163 33.8739 4.24282 33.8525 4.32812C33.8312 4.40279 33.8203 4.52562 33.8203 4.69629V10.9844C33.8204 11.1974 33.9108 11.3572 34.0918 11.4639L37.9805 13.7686V15.9922L34.0283 17.9121L33.9561 17.9551C33.8921 18.0011 33.8519 18.0561 33.8359 18.1201C33.8253 18.2054 33.8203 18.3174 33.8203 18.4561V21.9277C33.8203 22.1943 33.9533 22.328 34.2197 22.3281H38.3477C38.3904 22.3281 38.4338 22.3232 38.4766 22.3125L38.6045 22.2637C38.7002 22.2105 38.7799 22.1677 38.8438 22.1357L43.8682 19.6396C43.9534 19.597 44.007 19.5276 44.0283 19.4316C44.0443 19.3837 44.0565 19.3372 44.0645 19.292L44.0762 19.1602ZM43.6758 0V1H38.9404V0H43.6758Z" fill="black"/>
<path d="M25.4248 22.0215C25.4497 22.1969 25.5501 22.2974 25.7256 22.3223L25.8193 22.3281H30.7627C30.9962 22.3281 31.1272 22.2259 31.1562 22.0215L31.1631 21.9277V7.0957C31.163 6.96801 31.133 6.84621 31.0732 6.73047L31.0029 6.61621L27.1953 1.24023C27.0886 1.08023 26.9173 1 26.6826 1V0C27.1598 0 27.6757 0.178218 28.0107 0.662109L31.8193 6.03809H31.8184C32.0352 6.3428 32.163 6.70207 32.1631 7.0957V21.9277C32.1631 22.2152 32.0899 22.6152 31.7695 22.9355C31.4492 23.2556 31.0501 23.3281 30.7627 23.3281H25.8193C25.5319 23.3281 25.1319 23.2559 24.8115 22.9355C24.4912 22.6152 24.4189 22.2152 24.4189 21.9277V16.3838H23.5391V21.9277C23.5391 22.2152 23.4659 22.6152 23.1455 22.9355C22.8252 23.2556 22.426 23.3281 22.1387 23.3281H17.1953C16.9078 23.3281 16.5078 23.2559 16.1875 22.9355C15.8672 22.6152 15.7949 22.2152 15.7949 21.9277V7.0957C15.795 6.70464 15.934 6.36181 16.1064 6.08594L16.1221 6.0625L16.1377 6.04004L19.9297 0.664062L19.9346 0.65625L19.9404 0.648438C20.2724 0.19586 20.7636 2.06148e-05 21.2588 0V1C21.0348 1.00002 20.8644 1.08027 20.7471 1.24023L16.9551 6.61621C16.8485 6.78672 16.795 6.94649 16.7949 7.0957V21.9277C16.7949 22.1613 16.8971 22.2932 17.1016 22.3223L17.1953 22.3281H22.1387C22.3721 22.3281 22.5032 22.2259 22.5322 22.0215L22.5391 21.9277V15.3838H25.4189V21.9277L25.4248 22.0215ZM25.1865 8.64844C25.1865 7.71282 25.0152 7.34887 24.9326 7.25293L24.9277 7.24609L24.9229 7.24023C24.8866 7.19677 24.69 7.02441 23.9785 7.02441C23.2872 7.02447 23.076 7.19303 23.0244 7.25293C22.9417 7.34929 22.7705 7.7137 22.7705 8.64844C22.7705 9.55806 22.933 9.94076 23.0273 10.0615C23.0825 10.1234 23.2963 10.288 23.9785 10.2881V11.2881C23.168 11.288 22.5972 11.0959 22.2666 10.7119C21.9773 10.3665 21.8144 9.79648 21.7783 9.00195L21.7705 8.64844C21.7705 7.78968 21.8972 7.15914 22.1504 6.75781L22.2666 6.60059C22.5972 6.21664 23.168 6.02447 23.9785 6.02441L24.2754 6.0332C24.9391 6.07524 25.4105 6.26463 25.6904 6.60059C26.0211 6.9846 26.1865 7.66715 26.1865 8.64844L26.1787 9.00195C26.1426 9.79666 25.9798 10.3665 25.6904 10.7119C25.3704 11.0959 24.7998 11.2881 23.9785 11.2881V10.2881C24.6895 10.2881 24.8864 10.1159 24.9229 10.0723L24.9248 10.0703C25.018 9.95911 25.1865 9.57929 25.1865 8.64844ZM26.6826 0V1H21.2588V0H26.6826Z" fill="black"/>
<path d="M1.00586 22.0215C1.03489 22.2258 1.1662 22.328 1.39941 22.3281H6.34375C6.57721 22.3281 6.70823 22.2259 6.7373 22.0215L6.74414 21.9277V15.4482H10.5674L10.6621 15.4443C10.8767 15.4245 11.0587 15.3344 11.208 15.1758L14.4082 11.9766C14.5895 11.8059 14.6797 11.5919 14.6797 11.3359V5.0957C14.6796 4.88116 14.6105 4.69097 14.4717 4.52539L14.4082 4.45605L11.208 1.25586C11.0374 1.08523 10.8234 1 10.5674 1V0C11.0078 0 11.4258 0.136608 11.7715 0.418945L11.915 0.548828L15.1152 3.74902C15.4745 4.10832 15.6796 4.5723 15.6797 5.0957V11.3359C15.6797 11.849 15.4873 12.3188 15.1133 12.6816L15.1152 12.6836L11.915 15.8828L11.9141 15.8818C11.5512 16.256 11.0806 16.4482 10.5674 16.4482H7.74414V21.9277C7.74414 22.2152 7.67093 22.6152 7.35059 22.9355C7.0303 23.2556 6.63112 23.3281 6.34375 23.3281H1.39941C1.11199 23.328 0.712745 23.2557 0.392578 22.9355C0.0722317 22.6152 0 22.2152 0 21.9277V1.40039C0 1.11291 0.0722314 0.712924 0.392578 0.392578C0.712735 0.0725088 1.11201 7.62277e-05 1.39941 0V1C1.13305 1.00015 1 1.13388 1 1.40039V21.9277L1.00586 22.0215ZM8.73633 8.21582C8.73629 7.47895 8.58494 7.23378 8.54199 7.1875C8.51388 7.15745 8.32978 7.00781 7.6875 7.00781C7.06209 7.00787 6.88117 7.15491 6.85059 7.1875C6.80804 7.23298 6.65629 7.47727 6.65625 8.21582C6.65625 8.92677 6.7972 9.17967 6.8457 9.23828C6.89022 9.27787 7.08839 9.40815 7.6875 9.4082V10.4082L7.42188 10.4004C6.82454 10.3654 6.39078 10.2077 6.12012 9.92773C5.84949 9.63838 5.69691 9.1656 5.66309 8.50879L5.65625 8.21582C5.65628 7.50689 5.77411 6.98144 6.01074 6.63965L6.12012 6.50391C6.42943 6.17345 6.95187 6.00787 7.6875 6.00781C8.43394 6.00781 8.96211 6.17344 9.27148 6.50391C9.58078 6.83453 9.73629 7.40531 9.73633 8.21582L9.72852 8.50879C9.69469 9.16565 9.54215 9.63839 9.27148 9.92773C8.96215 10.2477 8.43417 10.4082 7.6875 10.4082V9.4082C8.30216 9.4082 8.50306 9.27517 8.5459 9.2373C8.5948 9.17772 8.73633 8.92469 8.73633 8.21582ZM10.5674 0V1H1.39941V0H10.5674Z" fill="black"/>
</svg>
